<?xml version='1.0' encoding='UTF-8' standalone='no'?>
<svg baseProfile="tiny" height="8.46667mm" version="1.2" viewBox="0 0 64 64" width="8.46667mm" xmlns="http://www.w3.org/2000/svg" xmlns:xlink="http://www.w3.org/1999/xlink">
    <style id="current-color-scheme" type="text/css">.ColorScheme-Text {color:#232629;}</style>
    <title>Qt SVG Document</title>
    <desc>Auto-generated by Klassy window decoration</desc>
    <defs/>
    <g fill="none" fill-rule="evenodd" stroke="black" stroke-linecap="square" stroke-linejoin="bevel" stroke-width="1">
        <g class="ColorScheme-Text" fill="currentColor" fill-opacity="0.949996" font-family="Noto Sans" font-size="26.6667" font-style="normal" font-weight="400" stroke="none" transform="matrix(3.55556,0,0,3.55556,14.5,24.5)">
            <path d="M-0.703828,0.703125 C-0.703828,0.0232646 0.0232646,-0.703828 0.703125,-0.703828 L6.32813,-0.703828 C7.00799,-0.703828 7.73508,0.0232646 7.73508,0.703125 L7.73508,6.32813 C7.73508,7.00799 7.00799,7.73508 6.32813,7.73508 L0.703125,7.73508 C0.0232646,7.73508 -0.703828,7.00799 -0.703828,6.32813 L-0.703828,0.703125 M0.703828,0.703125 L0.703828,6.32813 C0.703828,6.42492 0.606335,6.32742 0.703125,6.32742 L6.32813,6.32742 C6.42492,6.32742 6.32742,6.42492 6.32742,6.32813 L6.32742,0.703125 C6.32742,0.606335 6.42492,0.703828 6.32813,0.703828 L0.703125,0.703828 C0.606335,0.703828 0.703828,0.606335 0.703828,0.703125 " fill-rule="nonzero" vector-effect="none"/>
        </g>
        <g class="ColorScheme-Text" fill="currentColor" fill-opacity="0.949996" font-family="Noto Sans" font-size="26.6667" font-style="normal" font-weight="400" stroke="none" transform="matrix(3.55556,0,0,3.55556,14.5,24.5)">
            <path d="M2.8125,-3.51633 L7.02984,-3.51633 C7.41856,-3.51633 7.73367,-3.20121 7.73367,-2.8125 C7.73367,-2.42379 7.41856,-2.10867 7.02984,-2.10867 L2.8125,-2.10867 C2.42379,-2.10867 2.10867,-2.42379 2.10867,-2.8125 C2.10867,-3.20121 2.42379,-3.51633 2.8125,-3.51633 M7.02984,-3.51633 C8.87546,-3.51633 10.5476,-1.84421 10.5476,0.00140625 L10.5476,4.21875 C10.5476,4.60746 10.2325,4.92258 9.84375,4.92258 C9.45504,4.92258 9.13992,4.60746 9.13992,4.21875 L9.13992,0.00140625 C9.13992,-1.26114 8.29239,-2.10867 7.02984,-2.10867 C6.64113,-2.10867 6.32602,-2.42379 6.32602,-2.8125 C6.32602,-3.20121 6.64113,-3.51633 7.02984,-3.51633 " fill-rule="nonzero" vector-effect="none"/>
        </g>
    </g>
</svg>
