<?xml version='1.0' encoding='UTF-8' standalone='no'?>
<svg baseProfile="tiny" height="8.46667mm" version="1.2" viewBox="0 0 64 64" width="8.46667mm" xmlns="http://www.w3.org/2000/svg" xmlns:xlink="http://www.w3.org/1999/xlink">
    <style id="current-color-scheme" type="text/css">.ColorScheme-Text {color:#232629;}</style>
    <title>Qt SVG Document</title>
    <desc>Auto-generated by Klassy window decoration</desc>
    <defs/>
    <g fill="none" fill-rule="evenodd" stroke="black" stroke-linecap="square" stroke-linejoin="bevel" stroke-width="1">
        <g class="ColorScheme-Text" fill="currentColor" fill-opacity="0.949996" font-family="Noto Sans" font-size="26.6667" font-style="normal" font-weight="400" stroke="none" transform="matrix(3.55556,0,0,3.55556,0,0)">
            <path d="M3.65555,5.2875 C3.65555,4.48338 4.48338,3.65555 5.2875,3.65555 L12.7125,3.65555 C13.5166,3.65555 14.3445,4.48338 14.3445,5.2875 L14.3445,12.7125 C14.3445,13.5166 13.5166,14.3445 12.7125,14.3445 L5.2875,14.3445 C4.48338,14.3445 3.65555,13.5166 3.65555,12.7125 L3.65555,5.2875 M5.0632,5.2875 L5.0632,12.7125 C5.0632,12.9336 5.06645,12.9368 5.2875,12.9368 L12.7125,12.9368 C12.9336,12.9368 12.9368,12.9336 12.9368,12.7125 L12.9368,5.2875 C12.9368,5.06645 12.9336,5.0632 12.7125,5.0632 L5.2875,5.0632 C5.06645,5.0632 5.0632,5.06645 5.0632,5.2875 " fill-rule="nonzero" vector-effect="none"/>
        </g>
    </g>
</svg>
