<?xml version='1.0' encoding='UTF-8' standalone='no'?>
<svg baseProfile="tiny" height="5.29167mm" version="1.2" viewBox="0 0 35 35" width="5.29167mm" xmlns="http://www.w3.org/2000/svg" xmlns:xlink="http://www.w3.org/1999/xlink">
    <style id="current-color-scheme" type="text/css">.ColorScheme-Text {color:#232629;}</style>
    <title>Qt SVG Document</title>
    <desc>Auto-generated by Klassy window decoration</desc>
    <defs/>
    <g fill="none" fill-rule="evenodd" stroke="black" stroke-linecap="square" stroke-linejoin="bevel" stroke-width="1">
        <g class="ColorScheme-Text" fill="currentColor" fill-opacity="0.949996" font-family="Noto Sans" font-size="23.3333" font-style="normal" font-weight="400" stroke="none" transform="matrix(1.94444,0,0,1.94444,7.5,14.5)">
            <path d="M-0.7722,0.72 C-0.7722,0.00249927 0.00249927,-0.7722 0.72,-0.7722 L6.48,-0.7722 C7.1975,-0.7722 7.9722,0.00249927 7.9722,0.72 L7.9722,6.48 C7.9722,7.1975 7.1975,7.9722 6.48,7.9722 L0.72,7.9722 C0.00249927,7.9722 -0.7722,7.1975 -0.7722,6.48 L-0.7722,0.72 M0.7722,0.72 L0.7722,6.48 C0.7722,6.55779 0.642211,6.4278 0.72,6.4278 L6.48,6.4278 C6.55779,6.4278 6.4278,6.55779 6.4278,6.48 L6.4278,0.72 C6.4278,0.642211 6.55779,0.7722 6.48,0.7722 L0.72,0.7722 C0.642211,0.7722 0.7722,0.642211 0.7722,0.72 " fill-rule="nonzero" vector-effect="none"/>
        </g>
        <g class="ColorScheme-Text" fill="currentColor" fill-opacity="0.949996" font-family="Noto Sans" font-size="23.3333" font-style="normal" font-weight="400" stroke="none" transform="matrix(1.94444,0,0,1.94444,7.5,14.5)">
            <path d="M3.08571,-3.85791 L7.30131,-3.85791 C7.72779,-3.85791 8.07351,-3.51219 8.07351,-3.08571 C8.07351,-2.65924 7.72779,-2.31351 7.30131,-2.31351 L3.08571,-2.31351 C2.65924,-2.31351 2.31351,-2.65924 2.31351,-3.08571 C2.31351,-3.51219 2.65924,-3.85791 3.08571,-3.85791 M7.30131,-3.85791 C9.26941,-3.85791 11.0579,-2.06941 11.0579,-0.101314 L11.0579,4.11429 C11.0579,4.54076 10.7122,4.88649 10.2857,4.88649 C9.85924,4.88649 9.51351,4.54076 9.51351,4.11429 L9.51351,-0.101314 C9.51351,-1.4297 8.6297,-2.31351 7.30131,-2.31351 C6.87484,-2.31351 6.52911,-2.65924 6.52911,-3.08571 C6.52911,-3.51219 6.87484,-3.85791 7.30131,-3.85791 " fill-rule="nonzero" vector-effect="none"/>
        </g>
    </g>
</svg>
