<?xml version='1.0' encoding='UTF-8' standalone='no'?>
<svg baseProfile="tiny" height="5.29167mm" version="1.2" viewBox="0 0 35 35" width="5.29167mm" xmlns="http://www.w3.org/2000/svg" xmlns:xlink="http://www.w3.org/1999/xlink">
    <style id="current-color-scheme" type="text/css">.ColorScheme-Text {color:#232629;}</style>
    <title>Qt SVG Document</title>
    <desc>Auto-generated by Klassy window decoration</desc>
    <defs/>
    <g fill="none" fill-rule="evenodd" stroke="black" stroke-linecap="square" stroke-linejoin="bevel" stroke-width="1">
        <g class="ColorScheme-Text" fill="currentColor" fill-opacity="0.949996" font-family="Noto Sans" font-size="23.3333" font-style="normal" font-weight="400" stroke="none" transform="matrix(1.94444,0,0,1.94444,0,0)">
            <path d="M3.59923,5.34857 C3.59923,4.48905 4.48905,3.59923 5.34857,3.59923 L13.1657,3.59923 C14.0252,3.59923 14.9151,4.48905 14.9151,5.34857 L14.9151,13.1657 C14.9151,14.0252 14.0252,14.9151 13.1657,14.9151 L5.34857,14.9151 C4.48905,14.9151 3.59923,14.0252 3.59923,13.1657 L3.59923,5.34857 M5.14363,5.34857 L5.14363,13.1657 C5.14363,13.3855 5.12877,13.3707 5.34857,13.3707 L13.1657,13.3707 C13.3855,13.3707 13.3707,13.3855 13.3707,13.1657 L13.3707,5.34857 C13.3707,5.12877 13.3855,5.14363 13.1657,5.14363 L5.34857,5.14363 C5.12877,5.14363 5.14363,5.12877 5.14363,5.34857 " fill-rule="nonzero" vector-effect="none"/>
        </g>
    </g>
</svg>
