<?xml version='1.0' encoding='UTF-8' standalone='no'?>
<svg baseProfile="tiny" height="5.82083mm" version="1.2" viewBox="0 0 44 44" width="5.82083mm" xmlns="http://www.w3.org/2000/svg" xmlns:xlink="http://www.w3.org/1999/xlink">
    <style id="current-color-scheme" type="text/css">.ColorScheme-Text {color:#232629;}</style>
    <title>Qt SVG Document</title>
    <desc>Auto-generated by Klassy window decoration</desc>
    <defs/>
    <g fill="none" fill-rule="evenodd" stroke="black" stroke-linecap="square" stroke-linejoin="bevel" stroke-width="1">
        <g class="ColorScheme-Text" fill="currentColor" fill-opacity="0.949996" font-family="Noto Sans" font-size="26.6667" font-style="normal" font-weight="400" stroke="none" transform="matrix(2.44444,0,0,2.44444,0,0)">
            <path d="M3.681,5.4 C3.681,4.5637 4.5637,3.681 5.4,3.681 L12.6,3.681 C13.4363,3.681 14.319,4.5637 14.319,5.4 L14.319,12.6 C14.319,13.4363 13.4363,14.319 12.6,14.319 L5.4,14.319 C4.5637,14.319 3.681,13.4363 3.681,12.6 L3.681,5.4 M5.319,5.4 L5.319,12.6 C5.319,12.7578 5.24218,12.681 5.4,12.681 L12.6,12.681 C12.7578,12.681 12.681,12.7578 12.681,12.6 L12.681,5.4 C12.681,5.24218 12.7578,5.319 12.6,5.319 L5.4,5.319 C5.24218,5.319 5.319,5.24218 5.319,5.4 " fill-rule="nonzero" vector-effect="none"/>
        </g>
    </g>
</svg>
