<?xml version='1.0' encoding='UTF-8' standalone='no'?>
<svg baseProfile="tiny" height="5.82083mm" version="1.2" viewBox="0 0 44 44" width="5.82083mm" xmlns="http://www.w3.org/2000/svg" xmlns:xlink="http://www.w3.org/1999/xlink">
    <style id="current-color-scheme" type="text/css">.ColorScheme-Text {color:#232629;}</style>
    <title>Qt SVG Document</title>
    <desc>Auto-generated by Klassy window decoration</desc>
    <defs/>
    <g fill="none" fill-rule="evenodd" stroke="black" stroke-linecap="square" stroke-linejoin="bevel" stroke-width="1">
        <g class="ColorScheme-Text" fill="currentColor" fill-opacity="0.949996" font-family="Noto Sans" font-size="26.6667" font-style="normal" font-weight="400" stroke="none" transform="matrix(2.44444,0,0,2.44444,9,17)">
            <path d="M-0.819,0.736364 C-0.819,-0.00955968 -0.00955968,-0.819 0.736364,-0.819 L6.62727,-0.819 C7.3732,-0.819 8.18264,-0.00955968 8.18264,0.736364 L8.18264,6.62727 C8.18264,7.3732 7.3732,8.18264 6.62727,8.18264 L0.736364,8.18264 C-0.00955968,8.18264 -0.819,7.3732 -0.819,6.62727 L-0.819,0.736364 M0.819,0.736364 L0.819,6.62727 C0.819,6.69471 0.668922,6.54464 0.736364,6.54464 L6.62727,6.54464 C6.69471,6.54464 6.54464,6.69471 6.54464,6.62727 L6.54464,0.736364 C6.54464,0.668922 6.69471,0.819 6.62727,0.819 L0.736364,0.819 C0.668922,0.819 0.819,0.668922 0.819,0.736364 " fill-rule="nonzero" vector-effect="none"/>
        </g>
        <g class="ColorScheme-Text" fill="currentColor" fill-opacity="0.949996" font-family="Noto Sans" font-size="26.6667" font-style="normal" font-weight="400" stroke="none" transform="matrix(2.44444,0,0,2.44444,9,17)">
            <path d="M3.27273,-4.09173 L7.52564,-4.09173 C7.97796,-4.09173 8.34464,-3.72505 8.34464,-3.27273 C8.34464,-2.82041 7.97796,-2.45373 7.52564,-2.45373 L3.27273,-2.45373 C2.82041,-2.45373 2.45373,-2.82041 2.45373,-3.27273 C2.45373,-3.72505 2.82041,-4.09173 3.27273,-4.09173 M7.52564,-4.09173 C9.58288,-4.09173 11.4554,-2.21925 11.4554,-0.162 L11.4554,4.09091 C11.4554,4.54323 11.0887,4.90991 10.6364,4.90991 C10.184,4.90991 9.81736,4.54323 9.81736,4.09091 L9.81736,-0.162 C9.81736,-1.54077 8.9044,-2.45373 7.52564,-2.45373 C7.07332,-2.45373 6.70664,-2.82041 6.70664,-3.27273 C6.70664,-3.72505 7.07332,-4.09173 7.52564,-4.09173 " fill-rule="nonzero" vector-effect="none"/>
        </g>
    </g>
</svg>
