<?xml version='1.0' encoding='UTF-8' standalone='no'?>
<svg baseProfile="tiny" height="6.35mm" version="1.2" viewBox="0 0 66 66" width="6.35mm" xmlns="http://www.w3.org/2000/svg" xmlns:xlink="http://www.w3.org/1999/xlink">
    <style id="current-color-scheme" type="text/css">.ColorScheme-Text {color:#fcfcfc;}</style>
    <title>Qt SVG Document</title>
    <desc>Auto-generated by Klassy window decoration</desc>
    <defs/>
    <g fill="none" fill-rule="evenodd" stroke="black" stroke-linecap="square" stroke-linejoin="bevel" stroke-width="1">
        <g class="ColorScheme-Text" fill="currentColor" fill-opacity="0.949996" font-family="Noto Sans" font-size="36.6667" font-style="normal" font-weight="400" stroke="none" transform="matrix(3.66667,0,0,3.66667,14,26)">
            <path d="M-0.819,0.709091 C-0.819,-0.0217701 -0.0217701,-0.819 0.709091,-0.819 L6.38182,-0.819 C7.11268,-0.819 7.90991,-0.0217701 7.90991,0.709091 L7.90991,6.38182 C7.90991,7.11268 7.11268,7.90991 6.38182,7.90991 L0.709091,7.90991 C-0.0217701,7.90991 -0.819,7.11268 -0.819,6.38182 L-0.819,0.709091 M0.819,0.709091 L0.819,6.38182 C0.819,6.4342 0.656712,6.27191 0.709091,6.27191 L6.38182,6.27191 C6.4342,6.27191 6.27191,6.4342 6.27191,6.38182 L6.27191,0.709091 C6.27191,0.656712 6.4342,0.819 6.38182,0.819 L0.709091,0.819 C0.656712,0.819 0.819,0.656712 0.819,0.709091 " fill-rule="nonzero" vector-effect="none"/>
        </g>
        <g class="ColorScheme-Text" fill="currentColor" fill-opacity="0.949996" font-family="Noto Sans" font-size="36.6667" font-style="normal" font-weight="400" stroke="none" transform="matrix(3.66667,0,0,3.66667,14,26)">
            <path d="M3.27273,-4.09173 L7.30745,-4.09173 C7.75978,-4.09173 8.12645,-3.72505 8.12645,-3.27273 C8.12645,-2.82041 7.75978,-2.45373 7.30745,-2.45373 L3.27273,-2.45373 C2.82041,-2.45373 2.45373,-2.82041 2.45373,-3.27273 C2.45373,-3.72505 2.82041,-4.09173 3.27273,-4.09173 M7.30745,-4.09173 C9.33458,-4.09173 11.1826,-2.24367 11.1826,-0.216545 L11.1826,3.81818 C11.1826,4.2705 10.816,4.63718 10.3636,4.63718 C9.91132,4.63718 9.54464,4.2705 9.54464,3.81818 L9.54464,-0.216545 C9.54464,-1.56519 8.6561,-2.45373 7.30745,-2.45373 C6.85513,-2.45373 6.48845,-2.82041 6.48845,-3.27273 C6.48845,-3.72505 6.85513,-4.09173 7.30745,-4.09173 " fill-rule="nonzero" vector-effect="none"/>
        </g>
    </g>
</svg>
