<?xml version='1.0' encoding='UTF-8' standalone='no'?>
<svg baseProfile="tiny" height="5.92667mm" version="1.2" viewBox="0 0 28 28" width="5.92667mm" xmlns="http://www.w3.org/2000/svg" xmlns:xlink="http://www.w3.org/1999/xlink">
    <style id="current-color-scheme" type="text/css">.ColorScheme-Text {color:#232629;}</style>
    <title>Qt SVG Document</title>
    <desc>Auto-generated by Klassy window decoration</desc>
    <defs/>
    <g fill="none" fill-rule="evenodd" stroke="black" stroke-linecap="square" stroke-linejoin="bevel" stroke-width="1">
        <g class="ColorScheme-Text" fill="currentColor" fill-opacity="0.949996" font-family="Noto Sans" font-size="16.6667" font-style="normal" font-weight="400" stroke="none" transform="matrix(1.55556,0,0,1.55556,0,0)">
            <path d="M3.8565,5.4 C3.8565,4.6364 4.6364,3.8565 5.4,3.8565 L12.6,3.8565 C13.3636,3.8565 14.1435,4.6364 14.1435,5.4 L14.1435,12.6 C14.1435,13.3636 13.3636,14.1435 12.6,14.1435 L5.4,14.1435 C4.6364,14.1435 3.8565,13.3636 3.8565,12.6 L3.8565,5.4 M5.1435,5.4 L5.1435,12.6 C5.1435,12.8305 5.16949,12.8565 5.4,12.8565 L12.6,12.8565 C12.8305,12.8565 12.8565,12.8305 12.8565,12.6 L12.8565,5.4 C12.8565,5.16949 12.8305,5.1435 12.6,5.1435 L5.4,5.1435 C5.16949,5.1435 5.1435,5.16949 5.1435,5.4 " fill-rule="nonzero" vector-effect="none"/>
        </g>
    </g>
</svg>
