<?xml version='1.0' encoding='UTF-8' standalone='no'?>
<svg baseProfile="tiny" height="5.29167mm" version="1.2" viewBox="0 0 25 25" width="5.29167mm" xmlns="http://www.w3.org/2000/svg" xmlns:xlink="http://www.w3.org/1999/xlink">
    <style id="current-color-scheme" type="text/css">.ColorScheme-Text {color:#232629;}</style>
    <title>Qt SVG Document</title>
    <desc>Auto-generated by Klassy window decoration</desc>
    <defs/>
    <g fill="none" fill-rule="evenodd" stroke="black" stroke-linecap="square" stroke-linejoin="bevel" stroke-width="1">
        <g class="ColorScheme-Text" fill="currentColor" fill-opacity="0.949996" font-family="Noto Sans" font-size="16.6667" font-style="normal" font-weight="400" stroke="none" transform="matrix(1.38889,0,0,1.38889,0,0)">
            <path d="M3.59928,5.328 C3.59928,4.47276 4.47276,3.59928 5.328,3.59928 L13.392,3.59928 C14.2472,3.59928 15.1207,4.47276 15.1207,5.328 L15.1207,13.392 C15.1207,14.2472 14.2472,15.1207 13.392,15.1207 L5.328,15.1207 C4.47276,15.1207 3.59928,14.2472 3.59928,13.392 L3.59928,5.328 M5.04072,5.328 L5.04072,13.392 C5.04072,13.6502 5.06983,13.6793 5.328,13.6793 L13.392,13.6793 C13.6502,13.6793 13.6793,13.6502 13.6793,13.392 L13.6793,5.328 C13.6793,5.06983 13.6502,5.04072 13.392,5.04072 L5.328,5.04072 C5.06983,5.04072 5.04072,5.06983 5.04072,5.328 " fill-rule="nonzero" vector-effect="none"/>
        </g>
    </g>
</svg>
