<?xml version='1.0' encoding='UTF-8' standalone='no'?>
<svg baseProfile="tiny" height="4.23333mm" version="1.2" viewBox="0 0 40 40" width="4.23333mm" xmlns="http://www.w3.org/2000/svg" xmlns:xlink="http://www.w3.org/1999/xlink">
    <style id="current-color-scheme" type="text/css">.ColorScheme-Text {color:#232629;}</style>
    <title>Qt SVG Document</title>
    <desc>Auto-generated by Klassy window decoration</desc>
    <defs/>
    <g fill="none" fill-rule="evenodd" stroke="black" stroke-linecap="square" stroke-linejoin="bevel" stroke-width="1">
        <g class="ColorScheme-Text" fill="currentColor" fill-opacity="0.949996" font-family="Noto Sans" font-size="33.3333" font-style="normal" font-weight="400" stroke="none" transform="matrix(2.22222,0,0,2.22222,9.5,15.5)">
            <path d="M-0.675675,0.72 C-0.675675,0.0424812 0.0424812,-0.675675 0.72,-0.675675 L6.48,-0.675675 C7.15752,-0.675675 7.87567,0.0424812 7.87567,0.72 L7.87567,6.48 C7.87567,7.15752 7.15752,7.87567 6.48,7.87567 L0.72,7.87567 C0.0424812,7.87567 -0.675675,7.15752 -0.675675,6.48 L-0.675675,0.72 M0.675675,0.72 L0.675675,6.48 C0.675675,6.59777 0.602229,6.52432 0.72,6.52432 L6.48,6.52432 C6.59777,6.52432 6.52432,6.59777 6.52432,6.48 L6.52432,0.72 C6.52432,0.602229 6.59777,0.675675 6.48,0.675675 L0.72,0.675675 C0.602229,0.675675 0.675675,0.602229 0.675675,0.72 " fill-rule="nonzero" vector-effect="none"/>
        </g>
        <g class="ColorScheme-Text" fill="currentColor" fill-opacity="0.949996" font-family="Noto Sans" font-size="33.3333" font-style="normal" font-weight="400" stroke="none" transform="matrix(2.22222,0,0,2.22222,9.5,15.5)">
            <path d="M2.7,-3.37568 L7.10865,-3.37568 C7.48181,-3.37568 7.78433,-3.07316 7.78433,-2.7 C7.78433,-2.32684 7.48181,-2.02433 7.10865,-2.02433 L2.7,-2.02433 C2.32684,-2.02433 2.02433,-2.32684 2.02433,-2.7 C2.02433,-3.07316 2.32684,-3.37568 2.7,-3.37568 M7.10865,-3.37568 C8.93014,-3.37568 10.5757,-1.73014 10.5757,0.09135 L10.5757,4.5 C10.5757,4.87316 10.2732,5.17568 9.9,5.17568 C9.52684,5.17568 9.22433,4.87316 9.22433,4.5 L9.22433,0.09135 C9.22433,-1.1704 8.3704,-2.02433 7.10865,-2.02433 C6.73549,-2.02433 6.43298,-2.32684 6.43298,-2.7 C6.43298,-3.07316 6.73549,-3.37568 7.10865,-3.37568 " fill-rule="nonzero" vector-effect="none"/>
        </g>
    </g>
</svg>
