<?xml version='1.0' encoding='UTF-8' standalone='no'?>
<svg baseProfile="tiny" height="4.23333mm" version="1.2" viewBox="0 0 40 40" width="4.23333mm" xmlns="http://www.w3.org/2000/svg" xmlns:xlink="http://www.w3.org/1999/xlink">
    <style id="current-color-scheme" type="text/css">.ColorScheme-Text {color:#232629;}</style>
    <title>Qt SVG Document</title>
    <desc>Auto-generated by Klassy window decoration</desc>
    <defs/>
    <g fill="none" fill-rule="evenodd" stroke="black" stroke-linecap="square" stroke-linejoin="bevel" stroke-width="1">
        <g class="ColorScheme-Text" fill="currentColor" fill-opacity="0.949996" font-family="Noto Sans" font-size="33.3333" font-style="normal" font-weight="400" stroke="none" transform="matrix(2.22222,0,0,2.22222,0,0)">
            <path d="M3.59932,5.22 C3.59932,4.41822 4.41822,3.59932 5.22,3.59932 L12.78,3.59932 C13.5818,3.59932 14.4007,4.41822 14.4007,5.22 L14.4007,12.78 C14.4007,13.5818 13.5818,14.4007 12.78,14.4007 L5.22,14.4007 C4.41822,14.4007 3.59932,13.5818 3.59932,12.78 L3.59932,5.22 M4.95067,5.22 L4.95067,12.78 C4.95067,13.022 4.97796,13.0493 5.22,13.0493 L12.78,13.0493 C13.022,13.0493 13.0493,13.022 13.0493,12.78 L13.0493,5.22 C13.0493,4.97796 13.022,4.95067 12.78,4.95067 L5.22,4.95067 C4.97796,4.95067 4.95067,4.97796 4.95067,5.22 " fill-rule="nonzero" vector-effect="none"/>
        </g>
    </g>
</svg>
