<?xml version='1.0' encoding='UTF-8' standalone='no'?>
<svg baseProfile="tiny" height="12.7mm" version="1.2" viewBox="0 0 144 144" width="12.7mm" xmlns="http://www.w3.org/2000/svg" xmlns:xlink="http://www.w3.org/1999/xlink">
    <style id="current-color-scheme" type="text/css">.ColorScheme-Text {color:#fcfcfc;}</style>
    <title>Qt SVG Document</title>
    <desc>Auto-generated by Klassy window decoration</desc>
    <defs/>
    <g fill="none" fill-rule="evenodd" stroke="black" stroke-linecap="square" stroke-linejoin="bevel" stroke-width="1">
        <g class="ColorScheme-Text" fill="currentColor" fill-opacity="0.949996" font-family="Noto Sans" font-size="40" font-style="normal" font-weight="400" stroke="none" transform="matrix(8,0,0,8,35,53)">
            <path d="M-0.75075,0.7 C-0.75075,0.00242984 0.00242984,-0.75075 0.7,-0.75075 L6.3,-0.75075 C6.99757,-0.75075 7.75075,0.00242984 7.75075,0.7 L7.75075,6.3 C7.75075,6.99757 6.99757,7.75075 6.3,7.75075 L0.7,7.75075 C0.00242984,7.75075 -0.75075,6.99757 -0.75075,6.3 L-0.75075,0.7 M0.75075,0.7 L0.75075,6.3 C0.75075,6.37563 0.624372,6.24925 0.7,6.24925 L6.3,6.24925 C6.37563,6.24925 6.24925,6.37563 6.24925,6.3 L6.24925,0.7 C6.24925,0.624372 6.37563,0.75075 6.3,0.75075 L0.7,0.75075 C0.624372,0.75075 0.75075,0.624372 0.75075,0.7 " fill-rule="nonzero" vector-effect="none"/>
        </g>
        <g class="ColorScheme-Text" fill="currentColor" fill-opacity="0.949996" font-family="Noto Sans" font-size="40" font-style="normal" font-weight="400" stroke="none" transform="matrix(8,0,0,8,35,53)">
            <path d="M2.25,-3.00075 L6.3485,-3.00075 C6.76313,-3.00075 7.09925,-2.66463 7.09925,-2.25 C7.09925,-1.83537 6.76313,-1.49925 6.3485,-1.49925 L2.25,-1.49925 C1.83537,-1.49925 1.49925,-1.83537 1.49925,-2.25 C1.49925,-2.66463 1.83537,-3.00075 2.25,-3.00075 M6.3485,-3.00075 C8.26193,-3.00075 10.0008,-1.26193 10.0008,0.6515 L10.0008,4.75 C10.0008,5.16463 9.66463,5.50075 9.25,5.50075 C8.83537,5.50075 8.49925,5.16463 8.49925,4.75 L8.49925,0.6515 C8.49925,-0.639983 7.63998,-1.49925 6.3485,-1.49925 C5.93387,-1.49925 5.59775,-1.83537 5.59775,-2.25 C5.59775,-2.66463 5.93387,-3.00075 6.3485,-3.00075 " fill-rule="nonzero" vector-effect="none"/>
        </g>
    </g>
</svg>
