<?xml version='1.0' encoding='UTF-8' standalone='no'?>
<svg baseProfile="tiny" height="12.7mm" version="1.2" viewBox="0 0 96 96" width="12.7mm" xmlns="http://www.w3.org/2000/svg" xmlns:xlink="http://www.w3.org/1999/xlink">
    <style id="current-color-scheme" type="text/css">.ColorScheme-Text {color:#fcfcfc;}</style>
    <title>Qt SVG Document</title>
    <desc>Auto-generated by Klassy window decoration</desc>
    <defs/>
    <g fill="none" fill-rule="evenodd" stroke="black" stroke-linecap="square" stroke-linejoin="bevel" stroke-width="1">
        <g class="ColorScheme-Text" fill="currentColor" fill-opacity="0.949996" font-family="Noto Sans" font-size="26.6667" font-style="normal" font-weight="400" stroke="none" transform="matrix(5.33333,0,0,5.33333,23,35)">
            <path d="M-0.75075,0.7125 C-0.75075,0.00802628 0.00802628,-0.75075 0.7125,-0.75075 L6.4125,-0.75075 C7.11697,-0.75075 7.87575,0.00802628 7.87575,0.7125 L7.87575,6.4125 C7.87575,7.11697 7.11697,7.87575 6.4125,7.87575 L0.7125,7.87575 C0.00802628,7.87575 -0.75075,7.11697 -0.75075,6.4125 L-0.75075,0.7125 M0.75075,0.7125 L0.75075,6.4125 C0.75075,6.49503 0.629968,6.37425 0.7125,6.37425 L6.4125,6.37425 C6.49503,6.37425 6.37425,6.49503 6.37425,6.4125 L6.37425,0.7125 C6.37425,0.629968 6.49503,0.75075 6.4125,0.75075 L0.7125,0.75075 C0.629968,0.75075 0.75075,0.629968 0.75075,0.7125 " fill-rule="nonzero" vector-effect="none"/>
        </g>
        <g class="ColorScheme-Text" fill="currentColor" fill-opacity="0.949996" font-family="Noto Sans" font-size="26.6667" font-style="normal" font-weight="400" stroke="none" transform="matrix(5.33333,0,0,5.33333,23,35)">
            <path d="M2.25,-3.00075 L6.4485,-3.00075 C6.86313,-3.00075 7.19925,-2.66463 7.19925,-2.25 C7.19925,-1.83537 6.86313,-1.49925 6.4485,-1.49925 L2.25,-1.49925 C1.83537,-1.49925 1.49925,-1.83537 1.49925,-2.25 C1.49925,-2.66463 1.83537,-3.00075 2.25,-3.00075 M6.4485,-3.00075 C8.37573,-3.00075 10.1258,-1.25073 10.1258,0.6765 L10.1258,4.875 C10.1258,5.28963 9.78963,5.62575 9.375,5.62575 C8.96037,5.62575 8.62425,5.28963 8.62425,4.875 L8.62425,0.6765 C8.62425,-0.62879 7.75379,-1.49925 6.4485,-1.49925 C6.03387,-1.49925 5.69775,-1.83537 5.69775,-2.25 C5.69775,-2.66463 6.03387,-3.00075 6.4485,-3.00075 " fill-rule="nonzero" vector-effect="none"/>
        </g>
    </g>
</svg>
