<?xml version='1.0' encoding='UTF-8' standalone='no'?>
<svg baseProfile="tiny" height="12.7mm" version="1.2" viewBox="0 0 72 72" width="12.7mm" xmlns="http://www.w3.org/2000/svg" xmlns:xlink="http://www.w3.org/1999/xlink">
    <style id="current-color-scheme" type="text/css">.ColorScheme-Text {color:#fcfcfc;}</style>
    <title>Qt SVG Document</title>
    <desc>Auto-generated by Klassy window decoration</desc>
    <defs/>
    <g fill="none" fill-rule="evenodd" stroke="black" stroke-linecap="square" stroke-linejoin="bevel" stroke-width="1">
        <g class="ColorScheme-Text" fill="currentColor" fill-opacity="0.949996" font-family="Noto Sans" font-size="20" font-style="normal" font-weight="400" stroke="none" transform="matrix(4,0,0,4,16,28)">
            <path d="M-0.75075,0.7 C-0.75075,0.00242984 0.00242984,-0.75075 0.7,-0.75075 L6.3,-0.75075 C6.99757,-0.75075 7.75075,0.00242984 7.75075,0.7 L7.75075,6.3 C7.75075,6.99757 6.99757,7.75075 6.3,7.75075 L0.7,7.75075 C0.00242984,7.75075 -0.75075,6.99757 -0.75075,6.3 L-0.75075,0.7 M0.75075,0.7 L0.75075,6.3 C0.75075,6.37563 0.624372,6.24925 0.7,6.24925 L6.3,6.24925 C6.37563,6.24925 6.24925,6.37563 6.24925,6.3 L6.24925,0.7 C6.24925,0.624372 6.37563,0.75075 6.3,0.75075 L0.7,0.75075 C0.624372,0.75075 0.75075,0.624372 0.75075,0.7 " fill-rule="nonzero" vector-effect="none"/>
        </g>
        <g class="ColorScheme-Text" fill="currentColor" fill-opacity="0.949996" font-family="Noto Sans" font-size="20" font-style="normal" font-weight="400" stroke="none" transform="matrix(4,0,0,4,16,28)">
            <path d="M3,-3.75075 L7.0985,-3.75075 C7.51313,-3.75075 7.84925,-3.41463 7.84925,-3 C7.84925,-2.58537 7.51313,-2.24925 7.0985,-2.24925 L3,-2.24925 C2.58537,-2.24925 2.24925,-2.58537 2.24925,-3 C2.24925,-3.41463 2.58537,-3.75075 3,-3.75075 M7.0985,-3.75075 C9.01193,-3.75075 10.7508,-2.01193 10.7508,-0.0985 L10.7508,4 C10.7508,4.41463 10.4146,4.75075 10,4.75075 C9.58537,4.75075 9.24925,4.41463 9.24925,4 L9.24925,-0.0985 C9.24925,-1.38998 8.38998,-2.24925 7.0985,-2.24925 C6.68387,-2.24925 6.34775,-2.58537 6.34775,-3 C6.34775,-3.41463 6.68387,-3.75075 7.0985,-3.75075 " fill-rule="nonzero" vector-effect="none"/>
        </g>
    </g>
</svg>
