<?xml version='1.0' encoding='UTF-8' standalone='no'?>
<svg baseProfile="tiny" height="12.7mm" version="1.2" viewBox="0 0 120 120" width="12.7mm" xmlns="http://www.w3.org/2000/svg" xmlns:xlink="http://www.w3.org/1999/xlink">
    <style id="current-color-scheme" type="text/css">.ColorScheme-Text {color:#fcfcfc;}</style>
    <title>Qt SVG Document</title>
    <desc>Auto-generated by Klassy window decoration</desc>
    <defs/>
    <g fill="none" fill-rule="evenodd" stroke="black" stroke-linecap="square" stroke-linejoin="bevel" stroke-width="1">
        <g class="ColorScheme-Text" fill="currentColor" fill-opacity="0.949996" font-family="Noto Sans" font-size="33.3333" font-style="normal" font-weight="400" stroke="none" transform="matrix(6.66667,0,0,6.66667,28,46)">
            <path d="M-0.75075,0.705 C-0.75075,0.00466842 0.00466842,-0.75075 0.705,-0.75075 L6.345,-0.75075 C7.04533,-0.75075 7.80075,0.00466842 7.80075,0.705 L7.80075,6.345 C7.80075,7.04533 7.04533,7.80075 6.345,7.80075 L0.705,7.80075 C0.00466842,7.80075 -0.75075,7.04533 -0.75075,6.345 L-0.75075,0.705 M0.75075,0.705 L0.75075,6.345 C0.75075,6.42339 0.62661,6.29925 0.705,6.29925 L6.345,6.29925 C6.42339,6.29925 6.29925,6.42339 6.29925,6.345 L6.29925,0.705 C6.29925,0.62661 6.42339,0.75075 6.345,0.75075 L0.705,0.75075 C0.62661,0.75075 0.75075,0.62661 0.75075,0.705 " fill-rule="nonzero" vector-effect="none"/>
        </g>
        <g class="ColorScheme-Text" fill="currentColor" fill-opacity="0.949996" font-family="Noto Sans" font-size="33.3333" font-style="normal" font-weight="400" stroke="none" transform="matrix(6.66667,0,0,6.66667,28,46)">
            <path d="M2.7,-3.45075 L6.8385,-3.45075 C7.25313,-3.45075 7.58925,-3.11463 7.58925,-2.7 C7.58925,-2.28537 7.25313,-1.94925 6.8385,-1.94925 L2.7,-1.94925 C2.28537,-1.94925 1.94925,-2.28537 1.94925,-2.7 C1.94925,-3.11463 2.28537,-3.45075 2.7,-3.45075 M6.8385,-3.45075 C8.75745,-3.45075 10.5008,-1.70745 10.5008,0.2115 L10.5008,4.35 C10.5008,4.76463 10.1646,5.10075 9.75,5.10075 C9.33537,5.10075 8.99925,4.76463 8.99925,4.35 L8.99925,0.2115 C8.99925,-1.08551 8.13551,-1.94925 6.8385,-1.94925 C6.42387,-1.94925 6.08775,-2.28537 6.08775,-2.7 C6.08775,-3.11463 6.42387,-3.45075 6.8385,-3.45075 " fill-rule="nonzero" vector-effect="none"/>
        </g>
    </g>
</svg>
