<?xml version='1.0' encoding='UTF-8' standalone='no'?>
<svg baseProfile="tiny" height="4.7625mm" version="1.2" viewBox="0 0 45 45" width="4.7625mm" xmlns="http://www.w3.org/2000/svg" xmlns:xlink="http://www.w3.org/1999/xlink">
    <style id="current-color-scheme" type="text/css">.ColorScheme-Text {color:#fcfcfc;}</style>
    <title>Qt SVG Document</title>
    <desc>Auto-generated by Klassy window decoration</desc>
    <defs/>
    <g fill="none" fill-rule="evenodd" stroke="black" stroke-linecap="square" stroke-linejoin="bevel" stroke-width="1">
        <g class="ColorScheme-Text" fill="currentColor" fill-opacity="0.949996" font-family="Noto Sans" font-size="33.3333" font-style="normal" font-weight="400" stroke="none" transform="matrix(2.5,0,0,2.5,0,0)">
            <path d="M3.5992,5.36 C3.5992,4.4981 4.4981,3.5992 5.36,3.5992 L13.04,3.5992 C13.9019,3.5992 14.8008,4.4981 14.8008,5.36 L14.8008,13.04 C14.8008,13.9019 13.9019,14.8008 13.04,14.8008 L5.36,14.8008 C4.4981,14.8008 3.5992,13.9019 3.5992,13.04 L3.5992,5.36 M5.2008,5.36 L5.2008,13.04 C5.2008,13.2385 5.16151,13.1992 5.36,13.1992 L13.04,13.1992 C13.2385,13.1992 13.1992,13.2385 13.1992,13.04 L13.1992,5.36 C13.1992,5.16151 13.2385,5.2008 13.04,5.2008 L5.36,5.2008 C5.16151,5.2008 5.2008,5.16151 5.2008,5.36 " fill-rule="nonzero" vector-effect="none"/>
        </g>
    </g>
</svg>
