<?xml version='1.0' encoding='UTF-8' standalone='no'?>
<svg baseProfile="tiny" height="4.7625mm" version="1.2" viewBox="0 0 45 45" width="4.7625mm" xmlns="http://www.w3.org/2000/svg" xmlns:xlink="http://www.w3.org/1999/xlink">
    <style id="current-color-scheme" type="text/css">.ColorScheme-Text {color:#fcfcfc;}</style>
    <title>Qt SVG Document</title>
    <desc>Auto-generated by Klassy window decoration</desc>
    <defs/>
    <g fill="none" fill-rule="evenodd" stroke="black" stroke-linecap="square" stroke-linejoin="bevel" stroke-width="1">
        <g class="ColorScheme-Text" fill="currentColor" fill-opacity="0.949996" font-family="Noto Sans" font-size="33.3333" font-style="normal" font-weight="400" stroke="none" transform="matrix(2.5,0,0,2.5,10,18)">
            <path d="M-0.8008,0.72 C-0.8008,-0.00934724 -0.00934724,-0.8008 0.72,-0.8008 L6.48,-0.8008 C7.20935,-0.8008 8.0008,-0.00934724 8.0008,0.72 L8.0008,6.48 C8.0008,7.20935 7.20935,8.0008 6.48,8.0008 L0.72,8.0008 C-0.00934724,8.0008 -0.8008,7.20935 -0.8008,6.48 L-0.8008,0.72 M0.8008,0.72 L0.8008,6.48 C0.8008,6.54594 0.654057,6.3992 0.72,6.3992 L6.48,6.3992 C6.54594,6.3992 6.3992,6.54594 6.3992,6.48 L6.3992,0.72 C6.3992,0.654057 6.54594,0.8008 6.48,0.8008 L0.72,0.8008 C0.654057,0.8008 0.8008,0.654057 0.8008,0.72 " fill-rule="nonzero" vector-effect="none"/>
        </g>
        <g class="ColorScheme-Text" fill="currentColor" fill-opacity="0.949996" font-family="Noto Sans" font-size="33.3333" font-style="normal" font-weight="400" stroke="none" transform="matrix(2.5,0,0,2.5,10,18)">
            <path d="M3.2,-4.0008 L7.3584,-4.0008 C7.80067,-4.0008 8.1592,-3.64227 8.1592,-3.2 C8.1592,-2.75773 7.80067,-2.3992 7.3584,-2.3992 L3.2,-2.3992 C2.75773,-2.3992 2.3992,-2.75773 2.3992,-3.2 C2.3992,-3.64227 2.75773,-4.0008 3.2,-4.0008 M7.3584,-4.0008 C9.36993,-4.0008 11.2008,-2.16993 11.2008,-0.1584 L11.2008,4 C11.2008,4.44227 10.8423,4.8008 10.4,4.8008 C9.95773,4.8008 9.5992,4.44227 9.5992,4 L9.5992,-0.1584 C9.5992,-1.50653 8.70653,-2.3992 7.3584,-2.3992 C6.91613,-2.3992 6.5576,-2.75773 6.5576,-3.2 C6.5576,-3.64227 6.91613,-4.0008 7.3584,-4.0008 " fill-rule="nonzero" vector-effect="none"/>
        </g>
    </g>
</svg>
