<?xml version='1.0' encoding='UTF-8' standalone='no'?>
<svg baseProfile="tiny" height="5.86894mm" version="1.2" viewBox="0 0 61 61" width="5.86894mm" xmlns="http://www.w3.org/2000/svg" xmlns:xlink="http://www.w3.org/1999/xlink">
    <style id="current-color-scheme" type="text/css">.ColorScheme-Text {color:#232629;}</style>
    <title>Qt SVG Document</title>
    <desc>Auto-generated by Klassy window decoration</desc>
    <defs/>
    <g fill="none" fill-rule="evenodd" stroke="black" stroke-linecap="square" stroke-linejoin="bevel" stroke-width="1">
        <g class="ColorScheme-Text" fill="currentColor" fill-opacity="0.949996" font-family="Noto Sans" font-size="36.6667" font-style="normal" font-weight="400" stroke="none" transform="matrix(3.38889,0,0,3.38889,13.5,24.5)">
            <path d="M-0.738443,0.708197 C-0.738443,0.0111975 0.0111975,-0.738443 0.708197,-0.738443 L6.37377,-0.738443 C7.07077,-0.738443 7.82041,0.0111975 7.82041,0.708197 L7.82041,6.37377 C7.82041,7.07077 7.07077,7.82041 6.37377,7.82041 L0.708197,7.82041 C0.0111975,7.82041 -0.738443,7.07077 -0.738443,6.37377 L-0.738443,0.708197 M0.738443,0.708197 L0.738443,6.37377 C0.738443,6.45902 0.622943,6.34352 0.708197,6.34352 L6.37377,6.34352 C6.45902,6.34352 6.34352,6.45902 6.34352,6.37377 L6.34352,0.708197 C6.34352,0.622943 6.45902,0.738443 6.37377,0.738443 L0.708197,0.738443 C0.622943,0.738443 0.738443,0.622943 0.738443,0.708197 " fill-rule="nonzero" vector-effect="none"/>
        </g>
        <g class="ColorScheme-Text" fill="currentColor" fill-opacity="0.949996" font-family="Noto Sans" font-size="36.6667" font-style="normal" font-weight="400" stroke="none" transform="matrix(3.38889,0,0,3.38889,13.5,24.5)">
            <path d="M2.95082,-3.68926 L7.13951,-3.68926 C7.54734,-3.68926 7.87795,-3.35865 7.87795,-2.95082 C7.87795,-2.54299 7.54734,-2.21238 7.13951,-2.21238 L2.95082,-2.21238 C2.54299,-2.21238 2.21238,-2.54299 2.21238,-2.95082 C2.21238,-3.35865 2.54299,-3.68926 2.95082,-3.68926 M7.13951,-3.68926 C9.04329,-3.68926 10.7712,-1.96133 10.7712,-0.057541 L10.7712,4.13115 C10.7712,4.53898 10.4406,4.86959 10.0328,4.86959 C9.62496,4.86959 9.29434,4.53898 9.29434,4.13115 L9.29434,-0.057541 C9.29434,-1.34958 8.43155,-2.21238 7.13951,-2.21238 C6.73168,-2.21238 6.40107,-2.54299 6.40107,-2.95082 C6.40107,-3.35865 6.73168,-3.68926 7.13951,-3.68926 " fill-rule="nonzero" vector-effect="none"/>
        </g>
    </g>
</svg>
