<?xml version='1.0' encoding='UTF-8' standalone='no'?>
<svg baseProfile="tiny" height="8.46667mm" version="1.2" viewBox="0 0 88 88" width="8.46667mm" xmlns="http://www.w3.org/2000/svg" xmlns:xlink="http://www.w3.org/1999/xlink">
    <style id="current-color-scheme" type="text/css">.ColorScheme-Text {color:#fcfcfc;}</style>
    <title>Qt SVG Document</title>
    <desc>Auto-generated by Klassy window decoration</desc>
    <defs/>
    <g fill="none" fill-rule="evenodd" stroke="black" stroke-linecap="square" stroke-linejoin="bevel" stroke-width="1">
        <g class="ColorScheme-Text" fill="currentColor" fill-opacity="0.949996" font-family="Noto Sans" font-size="36.6667" font-style="normal" font-weight="400" stroke="none" transform="matrix(4.88889,0,0,4.88889,0,0)">
            <path d="M3.6811,5.31818 C3.6811,4.51299 4.51299,3.6811 5.31818,3.6811 L12.6818,3.6811 C13.487,3.6811 14.3189,4.51299 14.3189,5.31818 L14.3189,12.6818 C14.3189,13.487 13.487,14.3189 12.6818,14.3189 L5.31818,14.3189 C4.51299,14.3189 3.6811,13.487 3.6811,12.6818 L3.6811,5.31818 M5.11435,5.31818 L5.11435,12.6818 C5.11435,12.8933 5.10666,12.8856 5.31818,12.8856 L12.6818,12.8856 C12.8933,12.8856 12.8856,12.8933 12.8856,12.6818 L12.8856,5.31818 C12.8856,5.10666 12.8933,5.11435 12.6818,5.11435 L5.31818,5.11435 C5.10666,5.11435 5.11435,5.10666 5.11435,5.31818 " fill-rule="nonzero" vector-effect="none"/>
        </g>
    </g>
</svg>
