<?xml version='1.0' encoding='UTF-8' standalone='no'?>
<svg baseProfile="tiny" height="5.29167mm" version="1.2" viewBox="0 0 50 50" width="5.29167mm" xmlns="http://www.w3.org/2000/svg" xmlns:xlink="http://www.w3.org/1999/xlink">
    <style id="current-color-scheme" type="text/css">.ColorScheme-Text {color:#232629;}</style>
    <title>Qt SVG Document</title>
    <desc>Auto-generated by Klassy window decoration</desc>
    <defs/>
    <g fill="none" fill-rule="evenodd" stroke="black" stroke-linecap="square" stroke-linejoin="bevel" stroke-width="1">
        <g class="ColorScheme-Text" fill="currentColor" fill-opacity="0.949996" font-family="Noto Sans" font-size="33.3333" font-style="normal" font-weight="400" stroke="none" transform="matrix(2.77778,0,0,2.77778,0,0)">
            <path d="M3.59928,5.256 C3.59928,4.44053 4.44053,3.59928 5.256,3.59928 L12.744,3.59928 C13.5595,3.59928 14.4007,4.44053 14.4007,5.256 L14.4007,12.744 C14.4007,13.5595 13.5595,14.4007 12.744,14.4007 L5.256,14.4007 C4.44053,14.4007 3.59928,13.5595 3.59928,12.744 L3.59928,5.256 M5.04072,5.256 L5.04072,12.744 C5.04072,12.9624 5.03759,12.9593 5.256,12.9593 L12.744,12.9593 C12.9624,12.9593 12.9593,12.9624 12.9593,12.744 L12.9593,5.256 C12.9593,5.03759 12.9624,5.04072 12.744,5.04072 L5.256,5.04072 C5.03759,5.04072 5.04072,5.03759 5.04072,5.256 " fill-rule="nonzero" vector-effect="none"/>
        </g>
    </g>
</svg>
