<?xml version='1.0' encoding='UTF-8' standalone='no'?>
<svg baseProfile="tiny" height="4.8381mm" version="1.2" viewBox="0 0 32 32" width="4.8381mm" xmlns="http://www.w3.org/2000/svg" xmlns:xlink="http://www.w3.org/1999/xlink">
    <style id="current-color-scheme" type="text/css">.ColorScheme-Text {color:#fcfcfc;}</style>
    <title>Qt SVG Document</title>
    <desc>Auto-generated by Klassy window decoration</desc>
    <defs/>
    <g fill="none" fill-rule="evenodd" stroke="black" stroke-linecap="square" stroke-linejoin="bevel" stroke-width="1">
        <g class="ColorScheme-Text" fill="currentColor" fill-opacity="0.949996" font-family="Noto Sans" font-size="23.3333" font-style="normal" font-weight="400" stroke="none" transform="matrix(1.77778,0,0,1.77778,0,0)">
            <path d="M3.37416,5.175 C3.37416,4.29704 4.29704,3.37416 5.175,3.37416 L12.825,3.37416 C13.703,3.37416 14.6258,4.29704 14.6258,5.175 L14.6258,12.825 C14.6258,13.703 13.703,14.6258 12.825,14.6258 L5.175,14.6258 C4.29704,14.6258 3.37416,13.703 3.37416,12.825 L3.37416,5.175 M5.06334,5.175 L5.06334,12.825 C5.06334,13.0033 4.99672,12.9367 5.175,12.9367 L12.825,12.9367 C13.0033,12.9367 12.9367,13.0033 12.9367,12.825 L12.9367,5.175 C12.9367,4.99672 13.0033,5.06334 12.825,5.06334 L5.175,5.06334 C4.99672,5.06334 5.06334,4.99672 5.06334,5.175 " fill-rule="nonzero" vector-effect="none"/>
        </g>
    </g>
</svg>
