<?xml version='1.0' encoding='UTF-8' standalone='no'?>
<svg baseProfile="tiny" height="4.8381mm" version="1.2" viewBox="0 0 32 32" width="4.8381mm" xmlns="http://www.w3.org/2000/svg" xmlns:xlink="http://www.w3.org/1999/xlink">
    <style id="current-color-scheme" type="text/css">.ColorScheme-Text {color:#232629;}</style>
    <title>Qt SVG Document</title>
    <desc>Auto-generated by Klassy window decoration</desc>
    <defs/>
    <g fill="none" fill-rule="evenodd" stroke="black" stroke-linecap="square" stroke-linejoin="bevel" stroke-width="1">
        <g class="ColorScheme-Text" fill="currentColor" fill-opacity="0.949996" font-family="Noto Sans" font-size="23.3333" font-style="normal" font-weight="400" stroke="none" transform="matrix(1.77778,0,0,1.77778,6.5,12.5)">
            <path d="M-0.844594,0.73125 C-0.844594,-0.0224504 -0.0224504,-0.844594 0.73125,-0.844594 L6.58125,-0.844594 C7.33495,-0.844594 8.15709,-0.0224504 8.15709,0.73125 L8.15709,6.58125 C8.15709,7.33495 7.33495,8.15709 6.58125,8.15709 L0.73125,8.15709 C-0.0224504,8.15709 -0.844594,7.33495 -0.844594,6.58125 L-0.844594,0.73125 M0.844594,0.73125 L0.844594,6.58125 C0.844594,6.63527 0.677234,6.46791 0.73125,6.46791 L6.58125,6.46791 C6.63527,6.46791 6.46791,6.63527 6.46791,6.58125 L6.46791,0.73125 C6.46791,0.677234 6.63527,0.844594 6.58125,0.844594 L0.73125,0.844594 C0.677234,0.844594 0.844594,0.677234 0.844594,0.73125 " fill-rule="nonzero" vector-effect="none"/>
        </g>
        <g class="ColorScheme-Text" fill="currentColor" fill-opacity="0.949996" font-family="Noto Sans" font-size="23.3333" font-style="normal" font-weight="400" stroke="none" transform="matrix(1.77778,0,0,1.77778,6.5,12.5)">
            <path d="M3.375,-4.21959 L7.53581,-4.21959 C8.00227,-4.21959 8.38041,-3.84146 8.38041,-3.375 C8.38041,-2.90854 8.00227,-2.53041 7.53581,-2.53041 L3.375,-2.53041 C2.90854,-2.53041 2.53041,-2.90854 2.53041,-3.375 C2.53041,-3.84146 2.90854,-4.21959 3.375,-4.21959 M7.53581,-4.21959 C9.62628,-4.21959 11.5321,-2.31378 11.5321,-0.223313 L11.5321,3.9375 C11.5321,4.40396 11.154,4.78209 10.6875,4.78209 C10.221,4.78209 9.84291,4.40396 9.84291,3.9375 L9.84291,-0.223313 C9.84291,-1.6141 8.9266,-2.53041 7.53581,-2.53041 C7.06936,-2.53041 6.69122,-2.90854 6.69122,-3.375 C6.69122,-3.84146 7.06936,-4.21959 7.53581,-4.21959 " fill-rule="nonzero" vector-effect="none"/>
        </g>
    </g>
</svg>
