<?xml version='1.0' encoding='UTF-8' standalone='no'?>
<svg baseProfile="tiny" height="6.35mm" version="1.2" viewBox="0 0 24 24" width="6.35mm" xmlns="http://www.w3.org/2000/svg" xmlns:xlink="http://www.w3.org/1999/xlink">
    <style id="current-color-scheme" type="text/css">.ColorScheme-Text {color:#fcfcfc;}</style>
    <title>Qt SVG Document</title>
    <desc>Auto-generated by Klassy window decoration</desc>
    <defs/>
    <g fill="none" fill-rule="evenodd" stroke="black" stroke-linecap="square" stroke-linejoin="bevel" stroke-width="1">
        <g class="ColorScheme-Text" fill="currentColor" fill-opacity="0.900008" font-family="Noto Sans" font-size="13.3333" font-style="normal" font-weight="400" stroke="none" transform="matrix(1.33333,0,0,1.33333,0,0)">
            <path d="M3.74962,5.1 C3.74962,4.40604 4.40604,3.74962 5.1,3.74962 L12.9,3.74962 C13.594,3.74962 14.2504,4.40604 14.2504,5.1 L14.2504,12.9 C14.2504,13.594 13.594,14.2504 12.9,14.2504 L5.1,14.2504 C4.40604,14.2504 3.74962,13.594 3.74962,12.9 L3.74962,5.1 M4.50038,5.1 L4.50038,12.9 C4.50038,13.283 4.71701,13.4996 5.1,13.4996 L12.9,13.4996 C13.283,13.4996 13.4996,13.283 13.4996,12.9 L13.4996,5.1 C13.4996,4.71701 13.283,4.50038 12.9,4.50038 L5.1,4.50038 C4.71701,4.50038 4.50038,4.71701 4.50038,5.1 " fill-rule="nonzero" vector-effect="none"/>
        </g>
    </g>
</svg>
