<?xml version='1.0' encoding='UTF-8' standalone='no'?>
<svg baseProfile="tiny" height="6.35mm" version="1.2" viewBox="0 0 24 24" width="6.35mm" xmlns="http://www.w3.org/2000/svg" xmlns:xlink="http://www.w3.org/1999/xlink">
    <style id="current-color-scheme" type="text/css">.ColorScheme-Text {color:#fcfcfc;}</style>
    <title>Qt SVG Document</title>
    <desc>Auto-generated by Klassy window decoration</desc>
    <defs/>
    <g fill="none" fill-rule="evenodd" stroke="black" stroke-linecap="square" stroke-linejoin="bevel" stroke-width="1">
        <g class="ColorScheme-Text" fill="currentColor" fill-opacity="0.900008" font-family="Noto Sans" font-size="13.3333" font-style="normal" font-weight="400" stroke="none" transform="matrix(1.33333,0,0,1.33333,5.5,8.5)">
            <path d="M-0.375375,0.75 C-0.375375,0.180301 0.180301,-0.375375 0.75,-0.375375 L6.75,-0.375375 C7.3197,-0.375375 7.87538,0.180301 7.87538,0.75 L7.87538,6.75 C7.87538,7.3197 7.3197,7.87538 6.75,7.87538 L0.75,7.87538 C0.180301,7.87538 -0.375375,7.3197 -0.375375,6.75 L-0.375375,0.75 M0.375375,0.75 L0.375375,6.75 C0.375375,7.00873 0.491272,7.12462 0.75,7.12462 L6.75,7.12462 C7.00873,7.12462 7.12462,7.00873 7.12462,6.75 L7.12462,0.75 C7.12462,0.491272 7.00873,0.375375 6.75,0.375375 L0.75,0.375375 C0.491272,0.375375 0.375375,0.491272 0.375375,0.75 " fill-rule="nonzero" vector-effect="none"/>
        </g>
        <g class="ColorScheme-Text" fill="currentColor" fill-opacity="0.900008" font-family="Noto Sans" font-size="13.3333" font-style="normal" font-weight="400" stroke="none" transform="matrix(1.33333,0,0,1.33333,5.5,8.5)">
            <path d="M2.25,-2.62538 L7.49925,-2.62538 C7.70656,-2.62538 7.87462,-2.45731 7.87462,-2.25 C7.87462,-2.04269 7.70656,-1.87462 7.49925,-1.87462 L2.25,-1.87462 C2.04269,-1.87462 1.87462,-2.04269 1.87462,-2.25 C1.87462,-2.45731 2.04269,-2.62538 2.25,-2.62538 M7.49925,-2.62538 C8.89779,-2.62538 10.1254,-1.39779 10.1254,0.00075 L10.1254,5.25 C10.1254,5.45731 9.95731,5.62538 9.75,5.62538 C9.54269,5.62538 9.37462,5.45731 9.37462,5.25 L9.37462,0.00075 C9.37462,-1.08682 8.58682,-1.87462 7.49925,-1.87462 C7.29194,-1.87462 7.12387,-2.04269 7.12387,-2.25 C7.12387,-2.45731 7.29194,-2.62538 7.49925,-2.62538 " fill-rule="nonzero" vector-effect="none"/>
        </g>
    </g>
</svg>
