<?xml version='1.0' encoding='UTF-8' standalone='no'?>
<svg baseProfile="tiny" height="12.7mm" version="1.2" viewBox="0 0 108 108" width="12.7mm" xmlns="http://www.w3.org/2000/svg" xmlns:xlink="http://www.w3.org/1999/xlink">
    <style id="current-color-scheme" type="text/css">.ColorScheme-Text {color:#232629;}</style>
    <title>Qt SVG Document</title>
    <desc>Auto-generated by Klassy window decoration</desc>
    <defs/>
    <g fill="none" fill-rule="evenodd" stroke="black" stroke-linecap="square" stroke-linejoin="bevel" stroke-width="1">
        <g class="ColorScheme-Text" fill="currentColor" fill-opacity="0.949996" font-family="Noto Sans" font-size="30" font-style="normal" font-weight="400" stroke="none" transform="matrix(6,0,0,6,27.5,39.5)">
            <path d="M-0.75075,0.7 C-0.75075,0.00242984 0.00242984,-0.75075 0.7,-0.75075 L6.3,-0.75075 C6.99757,-0.75075 7.75075,0.00242984 7.75075,0.7 L7.75075,6.3 C7.75075,6.99757 6.99757,7.75075 6.3,7.75075 L0.7,7.75075 C0.00242984,7.75075 -0.75075,6.99757 -0.75075,6.3 L-0.75075,0.7 M0.75075,0.7 L0.75075,6.3 C0.75075,6.37563 0.624372,6.24925 0.7,6.24925 L6.3,6.24925 C6.37563,6.24925 6.24925,6.37563 6.24925,6.3 L6.24925,0.7 C6.24925,0.624372 6.37563,0.75075 6.3,0.75075 L0.7,0.75075 C0.624372,0.75075 0.75075,0.624372 0.75075,0.7 " fill-rule="nonzero" vector-effect="none"/>
        </g>
        <g class="ColorScheme-Text" fill="currentColor" fill-opacity="0.949996" font-family="Noto Sans" font-size="30" font-style="normal" font-weight="400" stroke="none" transform="matrix(6,0,0,6,27.5,39.5)">
            <path d="M2,-2.75075 L6.0985,-2.75075 C6.51313,-2.75075 6.84925,-2.41463 6.84925,-2 C6.84925,-1.58537 6.51313,-1.24925 6.0985,-1.24925 L2,-1.24925 C1.58537,-1.24925 1.24925,-1.58537 1.24925,-2 C1.24925,-2.41463 1.58537,-2.75075 2,-2.75075 M6.0985,-2.75075 C8.01193,-2.75075 9.75075,-1.01193 9.75075,0.9015 L9.75075,5 C9.75075,5.41463 9.41463,5.75075 9,5.75075 C8.58537,5.75075 8.24925,5.41463 8.24925,5 L8.24925,0.9015 C8.24925,-0.389983 7.38998,-1.24925 6.0985,-1.24925 C5.68387,-1.24925 5.34775,-1.58537 5.34775,-2 C5.34775,-2.41463 5.68387,-2.75075 6.0985,-2.75075 " fill-rule="nonzero" vector-effect="none"/>
        </g>
    </g>
</svg>
