<?xml version='1.0' encoding='UTF-8' standalone='no'?>
<svg baseProfile="tiny" height="5.82083mm" version="1.2" viewBox="0 0 22 22" width="5.82083mm" xmlns="http://www.w3.org/2000/svg" xmlns:xlink="http://www.w3.org/1999/xlink">
    <style id="current-color-scheme" type="text/css">.ColorScheme-Text {color:#232629;}</style>
    <title>Qt SVG Document</title>
    <desc>Auto-generated by Klassy window decoration</desc>
    <defs/>
    <g fill="none" fill-rule="evenodd" stroke="black" stroke-linecap="square" stroke-linejoin="bevel" stroke-width="1">
        <g class="ColorScheme-Text" fill="currentColor" fill-opacity="0.900008" font-family="Noto Sans" font-size="13.3333" font-style="normal" font-weight="400" stroke="none" transform="matrix(1.22222,0,0,1.22222,5.5,8.5)">
            <path d="M-0.4095,0.736364 C-0.4095,0.160061 0.160061,-0.4095 0.736364,-0.4095 L6.62727,-0.4095 C7.20358,-0.4095 7.77314,0.160061 7.77314,0.736364 L7.77314,6.62727 C7.77314,7.20358 7.20358,7.77314 6.62727,7.77314 L0.736364,7.77314 C0.160061,7.77314 -0.4095,7.20358 -0.4095,6.62727 L-0.4095,0.736364 M0.4095,0.736364 L0.4095,6.62727 C0.4095,6.86433 0.499302,6.95414 0.736364,6.95414 L6.62727,6.95414 C6.86433,6.95414 6.95414,6.86433 6.95414,6.62727 L6.95414,0.736364 C6.95414,0.499302 6.86433,0.4095 6.62727,0.4095 L0.736364,0.4095 C0.499302,0.4095 0.4095,0.499302 0.4095,0.736364 " fill-rule="nonzero" vector-effect="none"/>
        </g>
        <g class="ColorScheme-Text" fill="currentColor" fill-opacity="0.900008" font-family="Noto Sans" font-size="13.3333" font-style="normal" font-weight="400" stroke="none" transform="matrix(1.22222,0,0,1.22222,5.5,8.5)">
            <path d="M2.45455,-2.86405 L7.52645,-2.86405 C7.75262,-2.86405 7.93595,-2.68071 7.93595,-2.45455 C7.93595,-2.22838 7.75262,-2.04505 7.52645,-2.04505 L2.45455,-2.04505 C2.22838,-2.04505 2.04505,-2.22838 2.04505,-2.45455 C2.04505,-2.68071 2.22838,-2.86405 2.45455,-2.86405 M7.52645,-2.86405 C8.96176,-2.86405 10.2277,-1.59812 10.2277,-0.162818 L10.2277,4.90909 C10.2277,5.13525 10.0443,5.31859 9.81818,5.31859 C9.59202,5.31859 9.40868,5.13525 9.40868,4.90909 L9.40868,-0.162818 C9.40868,-1.25888 8.62252,-2.04505 7.52645,-2.04505 C7.30029,-2.04505 7.11695,-2.22838 7.11695,-2.45455 C7.11695,-2.68071 7.30029,-2.86405 7.52645,-2.86405 " fill-rule="nonzero" vector-effect="none"/>
        </g>
    </g>
</svg>
