<?xml version='1.0' encoding='UTF-8' standalone='no'?>
<svg baseProfile="tiny" height="5.82083mm" version="1.2" viewBox="0 0 22 22" width="5.82083mm" xmlns="http://www.w3.org/2000/svg" xmlns:xlink="http://www.w3.org/1999/xlink">
    <style id="current-color-scheme" type="text/css">.ColorScheme-Text {color:#232629;}</style>
    <title>Qt SVG Document</title>
    <desc>Auto-generated by Klassy window decoration</desc>
    <defs/>
    <g fill="none" fill-rule="evenodd" stroke="black" stroke-linecap="square" stroke-linejoin="bevel" stroke-width="1">
        <g class="ColorScheme-Text" fill="currentColor" fill-opacity="0.900008" font-family="Noto Sans" font-size="13.3333" font-style="normal" font-weight="400" stroke="none" transform="matrix(1.22222,0,0,1.22222,0,0)">
            <path d="M4.0905,5.4 C4.0905,4.73332 4.73332,4.0905 5.4,4.0905 L12.6,4.0905 C13.2667,4.0905 13.9095,4.73332 13.9095,5.4 L13.9095,12.6 C13.9095,13.2667 13.2667,13.9095 12.6,13.9095 L5.4,13.9095 C4.73332,13.9095 4.0905,13.2667 4.0905,12.6 L4.0905,5.4 M4.9095,5.4 L4.9095,12.6 C4.9095,12.9274 5.07256,13.0905 5.4,13.0905 L12.6,13.0905 C12.9274,13.0905 13.0905,12.9274 13.0905,12.6 L13.0905,5.4 C13.0905,5.07256 12.9274,4.9095 12.6,4.9095 L5.4,4.9095 C5.07256,4.9095 4.9095,5.07256 4.9095,5.4 " fill-rule="nonzero" vector-effect="none"/>
        </g>
    </g>
</svg>
