<?xml version='1.0' encoding='UTF-8' standalone='no'?>
<svg baseProfile="tiny" height="8.46667mm" version="1.2" viewBox="0 0 56 56" width="8.46667mm" xmlns="http://www.w3.org/2000/svg" xmlns:xlink="http://www.w3.org/1999/xlink">
    <style id="current-color-scheme" type="text/css">.ColorScheme-Text {color:#232629;}</style>
    <title>Qt SVG Document</title>
    <desc>Auto-generated by Klassy window decoration</desc>
    <defs/>
    <g fill="none" fill-rule="evenodd" stroke="black" stroke-linecap="square" stroke-linejoin="bevel" stroke-width="1">
        <g class="ColorScheme-Text" fill="currentColor" fill-opacity="0.949996" font-family="Noto Sans" font-size="23.3333" font-style="normal" font-weight="400" stroke="none" transform="matrix(3.11111,0,0,3.11111,0,0)">
            <path d="M3.53491,5.27143 C3.53491,4.42344 4.42344,3.53491 5.27143,3.53491 L12.7286,3.53491 C13.5766,3.53491 14.4651,4.42344 14.4651,5.27143 L14.4651,12.7286 C14.4651,13.5766 13.5766,14.4651 12.7286,14.4651 L5.27143,14.4651 C4.42344,14.4651 3.53491,13.5766 3.53491,12.7286 L3.53491,5.27143 M5.14366,5.27143 L5.14366,12.7286 C5.14366,12.9102 5.0898,12.8563 5.27143,12.8563 L12.7286,12.8563 C12.9102,12.8563 12.8563,12.9102 12.8563,12.7286 L12.8563,5.27143 C12.8563,5.0898 12.9102,5.14366 12.7286,5.14366 L5.27143,5.14366 C5.0898,5.14366 5.14366,5.0898 5.14366,5.27143 " fill-rule="nonzero" vector-effect="none"/>
        </g>
    </g>
</svg>
