<?xml version='1.0' encoding='UTF-8' standalone='no'?>
<svg baseProfile="tiny" height="5.82083mm" version="1.2" viewBox="0 0 55 55" width="5.82083mm" xmlns="http://www.w3.org/2000/svg" xmlns:xlink="http://www.w3.org/1999/xlink">
    <style id="current-color-scheme" type="text/css">.ColorScheme-Text {color:#fcfcfc;}</style>
    <title>Qt SVG Document</title>
    <desc>Auto-generated by Klassy window decoration</desc>
    <defs/>
    <g fill="none" fill-rule="evenodd" stroke="black" stroke-linecap="square" stroke-linejoin="bevel" stroke-width="1">
        <g class="ColorScheme-Text" fill="currentColor" fill-opacity="0.949996" font-family="Noto Sans" font-size="33.3333" font-style="normal" font-weight="400" stroke="none" transform="matrix(3.05556,0,0,3.05556,11.5,22.5)">
            <path d="M-0.819,0.72 C-0.819,-0.0168859 -0.0168859,-0.819 0.72,-0.819 L6.48,-0.819 C7.21689,-0.819 8.019,-0.0168859 8.019,0.72 L8.019,6.48 C8.019,7.21689 7.21689,8.019 6.48,8.019 L0.72,8.019 C-0.0168859,8.019 -0.819,7.21689 -0.819,6.48 L-0.819,0.72 M0.819,0.72 L0.819,6.48 C0.819,6.5384 0.661596,6.381 0.72,6.381 L6.48,6.381 C6.5384,6.381 6.381,6.5384 6.381,6.48 L6.381,0.72 C6.381,0.661596 6.5384,0.819 6.48,0.819 L0.72,0.819 C0.661596,0.819 0.819,0.661596 0.819,0.72 " fill-rule="nonzero" vector-effect="none"/>
        </g>
        <g class="ColorScheme-Text" fill="currentColor" fill-opacity="0.949996" font-family="Noto Sans" font-size="33.3333" font-style="normal" font-weight="400" stroke="none" transform="matrix(3.05556,0,0,3.05556,11.5,22.5)">
            <path d="M3.27273,-4.09173 L7.39473,-4.09173 C7.84705,-4.09173 8.21373,-3.72505 8.21373,-3.27273 C8.21373,-2.82041 7.84705,-2.45373 7.39473,-2.45373 L3.27273,-2.45373 C2.82041,-2.45373 2.45373,-2.82041 2.45373,-3.27273 C2.45373,-3.72505 2.82041,-4.09173 3.27273,-4.09173 M7.39473,-4.09173 C9.4339,-4.09173 11.2917,-2.2339 11.2917,-0.194727 L11.2917,3.92727 C11.2917,4.37959 10.925,4.74627 10.4727,4.74627 C10.0204,4.74627 9.65373,4.37959 9.65373,3.92727 L9.65373,-0.194727 C9.65373,-1.55542 8.75542,-2.45373 7.39473,-2.45373 C6.94241,-2.45373 6.57573,-2.82041 6.57573,-3.27273 C6.57573,-3.72505 6.94241,-4.09173 7.39473,-4.09173 " fill-rule="nonzero" vector-effect="none"/>
        </g>
    </g>
</svg>
