<?xml version='1.0' encoding='UTF-8' standalone='no'?>
<svg baseProfile="tiny" height="5.82083mm" version="1.2" viewBox="0 0 55 55" width="5.82083mm" xmlns="http://www.w3.org/2000/svg" xmlns:xlink="http://www.w3.org/1999/xlink">
    <style id="current-color-scheme" type="text/css">.ColorScheme-Text {color:#fcfcfc;}</style>
    <title>Qt SVG Document</title>
    <desc>Auto-generated by Klassy window decoration</desc>
    <defs/>
    <g fill="none" fill-rule="evenodd" stroke="black" stroke-linecap="square" stroke-linejoin="bevel" stroke-width="1">
        <g class="ColorScheme-Text" fill="currentColor" fill-opacity="0.949996" font-family="Noto Sans" font-size="33.3333" font-style="normal" font-weight="400" stroke="none" transform="matrix(3.05556,0,0,3.05556,0,0)">
            <path d="M3.59918,5.36727 C3.59918,4.50386 4.50386,3.59918 5.36727,3.59918 L12.96,3.59918 C13.8234,3.59918 14.7281,4.50386 14.7281,5.36727 L14.7281,12.96 C14.7281,13.8234 13.8234,14.7281 12.96,14.7281 L5.36727,14.7281 C4.50386,14.7281 3.59918,13.8234 3.59918,12.96 L3.59918,5.36727 M5.23718,5.36727 L5.23718,12.96 C5.23718,13.1449 5.18235,13.0901 5.36727,13.0901 L12.96,13.0901 C13.1449,13.0901 13.0901,13.1449 13.0901,12.96 L13.0901,5.36727 C13.0901,5.18235 13.1449,5.23718 12.96,5.23718 L5.36727,5.23718 C5.18235,5.23718 5.23718,5.18235 5.23718,5.36727 " fill-rule="nonzero" vector-effect="none"/>
        </g>
    </g>
</svg>
