<?xml version='1.0' encoding='UTF-8' standalone='no'?>
<svg baseProfile="tiny" height="5.86894mm" version="1.2" viewBox="0 0 61 61" width="5.86894mm" xmlns="http://www.w3.org/2000/svg" xmlns:xlink="http://www.w3.org/1999/xlink">
    <style id="current-color-scheme" type="text/css">.ColorScheme-Text {color:#fcfcfc;}</style>
    <title>Qt SVG Document</title>
    <desc>Auto-generated by Klassy window decoration</desc>
    <defs/>
    <g fill="none" fill-rule="evenodd" stroke="black" stroke-linecap="square" stroke-linejoin="bevel" stroke-width="1">
        <g class="ColorScheme-Text" fill="currentColor" fill-opacity="0.949996" font-family="Noto Sans" font-size="36.6667" font-style="normal" font-weight="400" stroke="none" transform="matrix(3.38889,0,0,3.38889,0,0)">
            <path d="M3.83533,5.48852 C3.83533,4.67745 4.67745,3.83533 5.48852,3.83533 L12.8066,3.83533 C13.6176,3.83533 14.4598,4.67745 14.4598,5.48852 L14.4598,12.8066 C14.4598,13.6176 13.6176,14.4598 12.8066,14.4598 L5.48852,14.4598 C4.67745,14.4598 3.83533,13.6176 3.83533,12.8066 L3.83533,5.48852 M5.31221,5.48852 L5.31221,12.8066 C5.31221,13.0059 5.28919,12.9829 5.48852,12.9829 L12.8066,12.9829 C13.0059,12.9829 12.9829,13.0059 12.9829,12.8066 L12.9829,5.48852 C12.9829,5.28919 13.0059,5.31221 12.8066,5.31221 L5.48852,5.31221 C5.28919,5.31221 5.31221,5.28919 5.31221,5.48852 " fill-rule="nonzero" vector-effect="none"/>
        </g>
    </g>
</svg>
