<?xml version='1.0' encoding='UTF-8' standalone='no'?>
<svg baseProfile="tiny" height="4.8213mm" version="1.2" viewBox="0 0 41 41" width="4.8213mm" xmlns="http://www.w3.org/2000/svg" xmlns:xlink="http://www.w3.org/1999/xlink">
    <style id="current-color-scheme" type="text/css">.ColorScheme-Text {color:#232629;}</style>
    <title>Qt SVG Document</title>
    <desc>Auto-generated by Klassy window decoration</desc>
    <defs/>
    <g fill="none" fill-rule="evenodd" stroke="black" stroke-linecap="square" stroke-linejoin="bevel" stroke-width="1">
        <g class="ColorScheme-Text" fill="currentColor" fill-opacity="0.949996" font-family="Noto Sans" font-size="30" font-style="normal" font-weight="400" stroke="none" transform="matrix(2.27778,0,0,2.27778,9.5,16.5)">
            <path d="M-0.659195,0.702439 C-0.659195,0.0414451 0.0414451,-0.659195 0.702439,-0.659195 L6.32195,-0.659195 C6.98295,-0.659195 7.68359,0.0414451 7.68359,0.702439 L7.68359,6.32195 C7.68359,6.98295 6.98295,7.68359 6.32195,7.68359 L0.702439,7.68359 C0.0414451,7.68359 -0.659195,6.98295 -0.659195,6.32195 L-0.659195,0.702439 M0.659195,0.702439 L0.659195,6.32195 C0.659195,6.43685 0.58754,6.3652 0.702439,6.3652 L6.32195,6.3652 C6.43685,6.3652 6.3652,6.43685 6.3652,6.32195 L6.3652,0.702439 C6.3652,0.58754 6.43685,0.659195 6.32195,0.659195 L0.702439,0.659195 C0.58754,0.659195 0.659195,0.58754 0.659195,0.702439 " fill-rule="nonzero" vector-effect="none"/>
        </g>
        <g class="ColorScheme-Text" fill="currentColor" fill-opacity="0.949996" font-family="Noto Sans" font-size="30" font-style="normal" font-weight="400" stroke="none" transform="matrix(2.27778,0,0,2.27778,9.5,16.5)">
            <path d="M3.07317,-3.73237 L7.37429,-3.73237 C7.73836,-3.73237 8.03349,-3.43723 8.03349,-3.07317 C8.03349,-2.70911 7.73836,-2.41398 7.37429,-2.41398 L3.07317,-2.41398 C2.70911,-2.41398 2.41398,-2.70911 2.41398,-3.07317 C2.41398,-3.43723 2.70911,-3.73237 3.07317,-3.73237 M7.37429,-3.73237 C9.15136,-3.73237 10.7568,-2.12697 10.7568,-0.349902 L10.7568,3.95122 C10.7568,4.31528 10.4616,4.61041 10.0976,4.61041 C9.7335,4.61041 9.43837,4.31528 9.43837,3.95122 L9.43837,-0.349902 C9.43837,-1.58087 8.60526,-2.41398 7.37429,-2.41398 C7.01023,-2.41398 6.7151,-2.70911 6.7151,-3.07317 C6.7151,-3.43723 7.01023,-3.73237 7.37429,-3.73237 " fill-rule="nonzero" vector-effect="none"/>
        </g>
    </g>
</svg>
