<?xml version='1.0' encoding='UTF-8' standalone='no'?>
<svg baseProfile="tiny" height="5.89643mm" version="1.2" viewBox="0 0 39 39" width="5.89643mm" xmlns="http://www.w3.org/2000/svg" xmlns:xlink="http://www.w3.org/1999/xlink">
    <style id="current-color-scheme" type="text/css">.ColorScheme-Text {color:#232629;}</style>
    <title>Qt SVG Document</title>
    <desc>Auto-generated by Klassy window decoration</desc>
    <defs/>
    <g fill="none" fill-rule="evenodd" stroke="black" stroke-linecap="square" stroke-linejoin="bevel" stroke-width="1">
        <g class="ColorScheme-Text" fill="currentColor" fill-opacity="0.949996" font-family="Noto Sans" font-size="23.3333" font-style="normal" font-weight="400" stroke="none" transform="matrix(2.16667,0,0,2.16667,0,0)">
            <path d="M3.69162,5.35385 C3.69162,4.5315 4.5315,3.69162 5.35385,3.69162 L13.1077,3.69162 C13.93,3.69162 14.7699,4.5315 14.7699,5.35385 L14.7699,13.1077 C14.7699,13.93 13.93,14.7699 13.1077,14.7699 L5.35385,14.7699 C4.5315,14.7699 3.69162,13.93 3.69162,13.1077 L3.69162,5.35385 M5.07762,5.35385 L5.07762,13.1077 C5.07762,13.3559 5.1056,13.3839 5.35385,13.3839 L13.1077,13.3839 C13.3559,13.3839 13.3839,13.3559 13.3839,13.1077 L13.3839,5.35385 C13.3839,5.1056 13.3559,5.07762 13.1077,5.07762 L5.35385,5.07762 C5.1056,5.07762 5.07762,5.1056 5.07762,5.35385 " fill-rule="nonzero" vector-effect="none"/>
        </g>
    </g>
</svg>
