<?xml version='1.0' encoding='UTF-8' standalone='no'?>
<svg baseProfile="tiny" height="8.46667mm" version="1.2" viewBox="0 0 80 80" width="8.46667mm" xmlns="http://www.w3.org/2000/svg" xmlns:xlink="http://www.w3.org/1999/xlink">
    <style id="current-color-scheme" type="text/css">.ColorScheme-Text {color:#fcfcfc;}</style>
    <title>Qt SVG Document</title>
    <desc>Auto-generated by Klassy window decoration</desc>
    <defs/>
    <g fill="none" fill-rule="evenodd" stroke="black" stroke-linecap="square" stroke-linejoin="bevel" stroke-width="1">
        <g class="ColorScheme-Text" fill="currentColor" fill-opacity="0.949996" font-family="Noto Sans" font-size="33.3333" font-style="normal" font-weight="400" stroke="none" transform="matrix(4.44444,0,0,4.44444,17.5,31.5)">
            <path d="M-0.788287,0.72 C-0.788287,-0.00416439 -0.00416439,-0.788287 0.72,-0.788287 L6.48,-0.788287 C7.20416,-0.788287 7.98829,-0.00416439 7.98829,0.72 L7.98829,6.48 C7.98829,7.20416 7.20416,7.98829 6.48,7.98829 L0.72,7.98829 C-0.00416439,7.98829 -0.788287,7.20416 -0.788287,6.48 L-0.788287,0.72 M0.788287,0.72 L0.788287,6.48 C0.788287,6.55113 0.648874,6.41171 0.72,6.41171 L6.48,6.41171 C6.55113,6.41171 6.41171,6.55113 6.41171,6.48 L6.41171,0.72 C6.41171,0.648874 6.55113,0.788287 6.48,0.788287 L0.72,0.788287 C0.648874,0.788287 0.788287,0.648874 0.788287,0.72 " fill-rule="nonzero" vector-effect="none"/>
        </g>
        <g class="ColorScheme-Text" fill="currentColor" fill-opacity="0.949996" font-family="Noto Sans" font-size="33.3333" font-style="normal" font-weight="400" stroke="none" transform="matrix(4.44444,0,0,4.44444,17.5,31.5)">
            <path d="M3.15,-3.93829 L7.33343,-3.93829 C7.76878,-3.93829 8.12171,-3.58536 8.12171,-3.15 C8.12171,-2.71464 7.76878,-2.36171 7.33343,-2.36171 L3.15,-2.36171 C2.71464,-2.36171 2.36171,-2.71464 2.36171,-3.15 C2.36171,-3.58536 2.71464,-3.93829 3.15,-3.93829 M7.33343,-3.93829 C9.32595,-3.93829 11.1383,-2.12595 11.1383,-0.133425 L11.1383,4.05 C11.1383,4.48536 10.7854,4.83829 10.35,4.83829 C9.91464,4.83829 9.56171,4.48536 9.56171,4.05 L9.56171,-0.133425 C9.56171,-1.47291 8.67291,-2.36171 7.33343,-2.36171 C6.89807,-2.36171 6.54514,-2.71464 6.54514,-3.15 C6.54514,-3.58536 6.89807,-3.93829 7.33343,-3.93829 " fill-rule="nonzero" vector-effect="none"/>
        </g>
    </g>
</svg>
