<?xml version='1.0' encoding='UTF-8' standalone='no'?>
<svg baseProfile="tiny" height="8.46667mm" version="1.2" viewBox="0 0 80 80" width="8.46667mm" xmlns="http://www.w3.org/2000/svg" xmlns:xlink="http://www.w3.org/1999/xlink">
    <style id="current-color-scheme" type="text/css">.ColorScheme-Text {color:#fcfcfc;}</style>
    <title>Qt SVG Document</title>
    <desc>Auto-generated by Klassy window decoration</desc>
    <defs/>
    <g fill="none" fill-rule="evenodd" stroke="black" stroke-linecap="square" stroke-linejoin="bevel" stroke-width="1">
        <g class="ColorScheme-Text" fill="currentColor" fill-opacity="0.949996" font-family="Noto Sans" font-size="33.3333" font-style="normal" font-weight="400" stroke="none" transform="matrix(4.44444,0,0,4.44444,0,0)">
            <path d="M3.59921,5.31 C3.59921,4.474 4.474,3.59921 5.31,3.59921 L12.69,3.59921 C13.526,3.59921 14.4008,4.474 14.4008,5.31 L14.4008,12.69 C14.4008,13.526 13.526,14.4008 12.69,14.4008 L5.31,14.4008 C4.474,14.4008 3.59921,13.526 3.59921,12.69 L3.59921,5.31 M5.17579,5.31 L5.17579,12.69 C5.17579,12.873 5.12704,12.8242 5.31,12.8242 L12.69,12.8242 C12.873,12.8242 12.8242,12.873 12.8242,12.69 L12.8242,5.31 C12.8242,5.12704 12.873,5.17579 12.69,5.17579 L5.31,5.17579 C5.12704,5.17579 5.17579,5.12704 5.17579,5.31 " fill-rule="nonzero" vector-effect="none"/>
        </g>
    </g>
</svg>
