<?xml version='1.0' encoding='UTF-8' standalone='no'?>
<svg baseProfile="tiny" height="4.7625mm" version="1.2" viewBox="0 0 27 27" width="4.7625mm" xmlns="http://www.w3.org/2000/svg" xmlns:xlink="http://www.w3.org/1999/xlink">
    <style id="current-color-scheme" type="text/css">.ColorScheme-Text {color:#232629;}</style>
    <title>Qt SVG Document</title>
    <desc>Auto-generated by Klassy window decoration</desc>
    <defs/>
    <g fill="none" fill-rule="evenodd" stroke="black" stroke-linecap="square" stroke-linejoin="bevel" stroke-width="1">
        <g class="ColorScheme-Text" fill="currentColor" fill-opacity="0.949996" font-family="Noto Sans" font-size="20" font-style="normal" font-weight="400" stroke="none" transform="matrix(1.5,0,0,1.5,6,11)">
            <path d="M-0.667333,0.733333 C-0.667333,0.051906 0.051906,-0.667333 0.733333,-0.667333 L6.6,-0.667333 C7.28143,-0.667333 8.00067,0.051906 8.00067,0.733333 L8.00067,6.6 C8.00067,7.28143 7.28143,8.00067 6.6,8.00067 L0.733333,8.00067 C0.051906,8.00067 -0.667333,7.28143 -0.667333,6.6 L-0.667333,0.733333 M0.667333,0.733333 L0.667333,6.6 C0.667333,6.72859 0.604743,6.666 0.733333,6.666 L6.6,6.666 C6.72859,6.666 6.666,6.72859 6.666,6.6 L6.666,0.733333 C6.666,0.604743 6.72859,0.667333 6.6,0.667333 L0.733333,0.667333 C0.604743,0.667333 0.667333,0.604743 0.667333,0.733333 " fill-rule="nonzero" vector-effect="none"/>
        </g>
        <g class="ColorScheme-Text" fill="currentColor" fill-opacity="0.949996" font-family="Noto Sans" font-size="20" font-style="normal" font-weight="400" stroke="none" transform="matrix(1.5,0,0,1.5,6,11)">
            <path d="M2.66667,-3.334 L7.19867,-3.334 C7.56722,-3.334 7.866,-3.03522 7.866,-2.66667 C7.866,-2.29811 7.56722,-1.99933 7.19867,-1.99933 L2.66667,-1.99933 C2.29811,-1.99933 1.99933,-2.29811 1.99933,-2.66667 C1.99933,-3.03522 2.29811,-3.334 2.66667,-3.334 M7.19867,-3.334 C9.02222,-3.334 10.6673,-1.68889 10.6673,0.134667 L10.6673,4.66667 C10.6673,5.03522 10.3686,5.334 10,5.334 C9.63144,5.334 9.33267,5.03522 9.33267,4.66667 L9.33267,0.134667 C9.33267,-1.13605 8.46938,-1.99933 7.19867,-1.99933 C6.83011,-1.99933 6.53133,-2.29811 6.53133,-2.66667 C6.53133,-3.03522 6.83011,-3.334 7.19867,-3.334 " fill-rule="nonzero" vector-effect="none"/>
        </g>
    </g>
</svg>
