<?xml version='1.0' encoding='UTF-8' standalone='no'?>
<svg baseProfile="tiny" height="5.29167mm" version="1.2" viewBox="0 0 20 20" width="5.29167mm" xmlns="http://www.w3.org/2000/svg" xmlns:xlink="http://www.w3.org/1999/xlink">
    <style id="current-color-scheme" type="text/css">.ColorScheme-Text {color:#fcfcfc;}</style>
    <title>Qt SVG Document</title>
    <desc>Auto-generated by Klassy window decoration</desc>
    <defs/>
    <g fill="none" fill-rule="evenodd" stroke="black" stroke-linecap="square" stroke-linejoin="bevel" stroke-width="1">
        <g class="ColorScheme-Text" fill="currentColor" fill-opacity="0.900008" font-family="Noto Sans" font-size="13.3333" font-style="normal" font-weight="400" stroke="none" transform="matrix(1.11111,0,0,1.11111,0,0)">
            <path d="M3.59955,5.04 C3.59955,4.30666 4.30666,3.59955 5.04,3.59955 L12.96,3.59955 C13.6933,3.59955 14.4004,4.30666 14.4004,5.04 L14.4004,12.96 C14.4004,13.6933 13.6933,14.4004 12.96,14.4004 L5.04,14.4004 C4.30666,14.4004 3.59955,13.6933 3.59955,12.96 L3.59955,5.04 M4.50045,5.04 L4.50045,12.96 C4.50045,13.3202 4.67982,13.4995 5.04,13.4995 L12.96,13.4995 C13.3202,13.4995 13.4995,13.3202 13.4995,12.96 L13.4995,5.04 C13.4995,4.67982 13.3202,4.50045 12.96,4.50045 L5.04,4.50045 C4.67982,4.50045 4.50045,4.67982 4.50045,5.04 " fill-rule="nonzero" vector-effect="none"/>
        </g>
    </g>
</svg>
