<?xml version='1.0' encoding='UTF-8' standalone='no'?>
<svg baseProfile="tiny" height="5.29167mm" version="1.2" viewBox="0 0 20 20" width="5.29167mm" xmlns="http://www.w3.org/2000/svg" xmlns:xlink="http://www.w3.org/1999/xlink">
    <style id="current-color-scheme" type="text/css">.ColorScheme-Text {color:#fcfcfc;}</style>
    <title>Qt SVG Document</title>
    <desc>Auto-generated by Klassy window decoration</desc>
    <defs/>
    <g fill="none" fill-rule="evenodd" stroke="black" stroke-linecap="square" stroke-linejoin="bevel" stroke-width="1">
        <g class="ColorScheme-Text" fill="currentColor" fill-opacity="0.900008" font-family="Noto Sans" font-size="13.3333" font-style="normal" font-weight="400" stroke="none" transform="matrix(1.11111,0,0,1.11111,4.5,7.5)">
            <path d="M-0.45045,0.72 C-0.45045,0.135772 0.135772,-0.45045 0.72,-0.45045 L6.48,-0.45045 C7.06423,-0.45045 7.65045,0.135772 7.65045,0.72 L7.65045,6.48 C7.65045,7.06423 7.06423,7.65045 6.48,7.65045 L0.72,7.65045 C0.135772,7.65045 -0.45045,7.06423 -0.45045,6.48 L-0.45045,0.72 M0.45045,0.72 L0.45045,6.48 C0.45045,6.69106 0.508937,6.74955 0.72,6.74955 L6.48,6.74955 C6.69106,6.74955 6.74955,6.69106 6.74955,6.48 L6.74955,0.72 C6.74955,0.508937 6.69106,0.45045 6.48,0.45045 L0.72,0.45045 C0.508937,0.45045 0.45045,0.508937 0.45045,0.72 " fill-rule="nonzero" vector-effect="none"/>
        </g>
        <g class="ColorScheme-Text" fill="currentColor" fill-opacity="0.900008" font-family="Noto Sans" font-size="13.3333" font-style="normal" font-weight="400" stroke="none" transform="matrix(1.11111,0,0,1.11111,4.5,7.5)">
            <path d="M2.7,-3.15045 L7.5591,-3.15045 C7.80788,-3.15045 8.00955,-2.94878 8.00955,-2.7 C8.00955,-2.45122 7.80788,-2.24955 7.5591,-2.24955 L2.7,-2.24955 C2.45122,-2.24955 2.24955,-2.45122 2.24955,-2.7 C2.24955,-2.94878 2.45122,-3.15045 2.7,-3.15045 M7.5591,-3.15045 C9.03853,-3.15045 10.3504,-1.83853 10.3504,-0.3591 L10.3504,4.5 C10.3504,4.74878 10.1488,4.95045 9.9,4.95045 C9.65122,4.95045 9.44955,4.74878 9.44955,4.5 L9.44955,-0.3591 C9.44955,-1.46536 8.66536,-2.24955 7.5591,-2.24955 C7.31032,-2.24955 7.10865,-2.45122 7.10865,-2.7 C7.10865,-2.94878 7.31032,-3.15045 7.5591,-3.15045 " fill-rule="nonzero" vector-effect="none"/>
        </g>
    </g>
</svg>
