<?xml version='1.0' encoding='UTF-8' standalone='no'?>
<svg baseProfile="tiny" height="4.8213mm" version="1.2" viewBox="0 0 41 41" width="4.8213mm" xmlns="http://www.w3.org/2000/svg" xmlns:xlink="http://www.w3.org/1999/xlink">
    <style id="current-color-scheme" type="text/css">.ColorScheme-Text {color:#fcfcfc;}</style>
    <title>Qt SVG Document</title>
    <desc>Auto-generated by Klassy window decoration</desc>
    <defs/>
    <g fill="none" fill-rule="evenodd" stroke="black" stroke-linecap="square" stroke-linejoin="bevel" stroke-width="1">
        <g class="ColorScheme-Text" fill="currentColor" fill-opacity="0.949996" font-family="Noto Sans" font-size="30" font-style="normal" font-weight="400" stroke="none" transform="matrix(2.27778,0,0,2.27778,0,0)">
            <path d="M3.95056,5.53171 C3.95056,4.74948 4.74948,3.95056 5.53171,3.95056 L12.9073,3.95056 C13.6895,3.95056 14.4885,4.74948 14.4885,5.53171 L14.4885,12.9073 C14.4885,13.6895 13.6895,14.4885 12.9073,14.4885 L5.53171,14.4885 C4.74948,14.4885 3.95056,13.6895 3.95056,12.9073 L3.95056,5.53171 M5.26895,5.53171 L5.26895,12.9073 C5.26895,13.1434 5.29558,13.1701 5.53171,13.1701 L12.9073,13.1701 C13.1434,13.1701 13.1701,13.1434 13.1701,12.9073 L13.1701,5.53171 C13.1701,5.29558 13.1434,5.26895 12.9073,5.26895 L5.53171,5.26895 C5.29558,5.26895 5.26895,5.29558 5.26895,5.53171 " fill-rule="nonzero" vector-effect="none"/>
        </g>
    </g>
</svg>
