<?xml version='1.0' encoding='UTF-8' standalone='no'?>
<svg baseProfile="tiny" height="4.23333mm" version="1.2" viewBox="0 0 24 24" width="4.23333mm" xmlns="http://www.w3.org/2000/svg" xmlns:xlink="http://www.w3.org/1999/xlink">
    <style id="current-color-scheme" type="text/css">.ColorScheme-Text {color:#232629;}</style>
    <title>Qt SVG Document</title>
    <desc>Auto-generated by Klassy window decoration</desc>
    <defs/>
    <g fill="none" fill-rule="evenodd" stroke="black" stroke-linecap="square" stroke-linejoin="bevel" stroke-width="1">
        <g class="ColorScheme-Text" fill="currentColor" fill-opacity="0.949996" font-family="Noto Sans" font-size="20" font-style="normal" font-weight="400" stroke="none" transform="matrix(1.33333,0,0,1.33333,5,9)">
            <path d="M-0.75075,0.75 C-0.75075,0.0248156 0.0248156,-0.75075 0.75,-0.75075 L6.75,-0.75075 C7.47518,-0.75075 8.25075,0.0248156 8.25075,0.75 L8.25075,6.75 C8.25075,7.47518 7.47518,8.25075 6.75,8.25075 L0.75,8.25075 C0.0248156,8.25075 -0.75075,7.47518 -0.75075,6.75 L-0.75075,0.75 M0.75075,0.75 L0.75075,6.75 C0.75075,6.85324 0.646757,6.74925 0.75,6.74925 L6.75,6.74925 C6.85324,6.74925 6.74925,6.85324 6.74925,6.75 L6.74925,0.75 C6.74925,0.646757 6.85324,0.75075 6.75,0.75075 L0.75,0.75075 C0.646757,0.75075 0.75075,0.646757 0.75075,0.75 " fill-rule="nonzero" vector-effect="none"/>
        </g>
        <g class="ColorScheme-Text" fill="currentColor" fill-opacity="0.949996" font-family="Noto Sans" font-size="20" font-style="normal" font-weight="400" stroke="none" transform="matrix(1.33333,0,0,1.33333,5,9)">
            <path d="M3,-3.75075 L7.4985,-3.75075 C7.91313,-3.75075 8.24925,-3.41463 8.24925,-3 C8.24925,-2.58537 7.91313,-2.24925 7.4985,-2.24925 L3,-2.24925 C2.58537,-2.24925 2.24925,-2.58537 2.24925,-3 C2.24925,-3.41463 2.58537,-3.75075 3,-3.75075 M7.4985,-3.75075 C9.46715,-3.75075 11.2508,-1.96715 11.2508,0.0015 L11.2508,4.5 C11.2508,4.91463 10.9146,5.25075 10.5,5.25075 C10.0854,5.25075 9.74925,4.91463 9.74925,4.5 L9.74925,0.0015 C9.74925,-1.34521 8.84521,-2.24925 7.4985,-2.24925 C7.08387,-2.24925 6.74775,-2.58537 6.74775,-3 C6.74775,-3.41463 7.08387,-3.75075 7.4985,-3.75075 " fill-rule="nonzero" vector-effect="none"/>
        </g>
    </g>
</svg>
