<?xml version='1.0' encoding='UTF-8' standalone='no'?>
<svg baseProfile="tiny" height="8.46667mm" version="1.2" viewBox="0 0 88 88" width="8.46667mm" xmlns="http://www.w3.org/2000/svg" xmlns:xlink="http://www.w3.org/1999/xlink">
    <style id="current-color-scheme" type="text/css">.ColorScheme-Text {color:#232629;}</style>
    <title>Qt SVG Document</title>
    <desc>Auto-generated by Klassy window decoration</desc>
    <defs/>
    <g fill="none" fill-rule="evenodd" stroke="black" stroke-linecap="square" stroke-linejoin="bevel" stroke-width="1">
        <g class="ColorScheme-Text" fill="currentColor" fill-opacity="0.949996" font-family="Noto Sans" font-size="36.6667" font-style="normal" font-weight="400" stroke="none" transform="matrix(4.88889,0,0,4.88889,19.5,33.5)">
            <path d="M-0.716625,0.715909 C-0.716625,0.0236876 0.0236876,-0.716625 0.715909,-0.716625 L6.44318,-0.716625 C7.1354,-0.716625 7.87572,0.0236876 7.87572,0.715909 L7.87572,6.44318 C7.87572,7.1354 7.1354,7.87572 6.44318,7.87572 L0.715909,7.87572 C0.0236876,7.87572 -0.716625,7.1354 -0.716625,6.44318 L-0.716625,0.715909 M0.716625,0.715909 L0.716625,6.44318 C0.716625,6.54173 0.617359,6.44247 0.715909,6.44247 L6.44318,6.44247 C6.54173,6.44247 6.44247,6.54173 6.44247,6.44318 L6.44247,0.715909 C6.44247,0.617359 6.54173,0.716625 6.44318,0.716625 L0.715909,0.716625 C0.617359,0.716625 0.716625,0.617359 0.716625,0.715909 " fill-rule="nonzero" vector-effect="none"/>
        </g>
        <g class="ColorScheme-Text" fill="currentColor" fill-opacity="0.949996" font-family="Noto Sans" font-size="36.6667" font-style="normal" font-weight="400" stroke="none" transform="matrix(4.88889,0,0,4.88889,19.5,33.5)">
            <path d="M2.86364,-3.58026 L7.15766,-3.58026 C7.55344,-3.58026 7.87428,-3.25942 7.87428,-2.86364 C7.87428,-2.46786 7.55344,-2.14701 7.15766,-2.14701 L2.86364,-2.14701 C2.46786,-2.14701 2.14701,-2.46786 2.14701,-2.86364 C2.14701,-3.25942 2.46786,-3.58026 2.86364,-3.58026 M7.15766,-3.58026 C9.03683,-3.58026 10.7394,-1.87774 10.7394,0.00143182 L10.7394,4.29545 C10.7394,4.69124 10.4185,5.01208 10.0227,5.01208 C9.62695,5.01208 9.3061,4.69124 9.3061,4.29545 L9.3061,0.00143182 C9.3061,-1.28407 8.44316,-2.14701 7.15766,-2.14701 C6.76188,-2.14701 6.44103,-2.46786 6.44103,-2.86364 C6.44103,-3.25942 6.76188,-3.58026 7.15766,-3.58026 " fill-rule="nonzero" vector-effect="none"/>
        </g>
    </g>
</svg>
