<?xml version='1.0' encoding='UTF-8' standalone='no'?>
<svg baseProfile="tiny" height="4.7625mm" version="1.2" viewBox="0 0 27 27" width="4.7625mm" xmlns="http://www.w3.org/2000/svg" xmlns:xlink="http://www.w3.org/1999/xlink">
    <style id="current-color-scheme" type="text/css">.ColorScheme-Text {color:#fcfcfc;}</style>
    <title>Qt SVG Document</title>
    <desc>Auto-generated by Klassy window decoration</desc>
    <defs/>
    <g fill="none" fill-rule="evenodd" stroke="black" stroke-linecap="square" stroke-linejoin="bevel" stroke-width="1">
        <g class="ColorScheme-Text" fill="currentColor" fill-opacity="0.949996" font-family="Noto Sans" font-size="20" font-style="normal" font-weight="400" stroke="none" transform="matrix(1.5,0,0,1.5,0,0)">
            <path d="M3.99933,5.6 C3.99933,4.80812 4.80812,3.99933 5.6,3.99933 L13.0667,3.99933 C13.8586,3.99933 14.6673,4.80812 14.6673,5.6 L14.6673,13.0667 C14.6673,13.8586 13.8586,14.6673 13.0667,14.6673 L5.6,14.6673 C4.80812,14.6673 3.99933,13.8586 3.99933,13.0667 L3.99933,5.6 M5.334,5.6 L5.334,13.0667 C5.334,13.3057 5.36095,13.3327 5.6,13.3327 L13.0667,13.3327 C13.3057,13.3327 13.3327,13.3057 13.3327,13.0667 L13.3327,5.6 C13.3327,5.36095 13.3057,5.334 13.0667,5.334 L5.6,5.334 C5.36095,5.334 5.334,5.36095 5.334,5.6 " fill-rule="nonzero" vector-effect="none"/>
        </g>
    </g>
</svg>
