<?xml version="1.0" encoding="UTF-8" standalone="no"?>
<svg
   height="32"
   width="32"
   version="1.1"
   id="svg1"
   sodipodi:docname="dialog-information-symbolic.svg"
   inkscape:version="1.3.2 (091e20ef0f, 2023-11-25)"
   xmlns:inkscape="http://www.inkscape.org/namespaces/inkscape"
   xmlns:sodipodi="http://sodipodi.sourceforge.net/DTD/sodipodi-0.dtd"
   xmlns="http://www.w3.org/2000/svg"
   xmlns:svg="http://www.w3.org/2000/svg">
  <defs
     id="defs1" />
  <sodipodi:namedview
     id="namedview1"
     pagecolor="#ffffff"
     bordercolor="#000000"
     borderopacity="0.25"
     inkscape:showpageshadow="2"
     inkscape:pageopacity="0.0"
     inkscape:pagecheckerboard="0"
     inkscape:deskcolor="#d1d1d1"
     inkscape:zoom="20.5"
     inkscape:cx="12"
     inkscape:cy="12"
     inkscape:window-width="1366"
     inkscape:window-height="696"
     inkscape:window-x="0"
     inkscape:window-y="0"
     inkscape:window-maximized="1"
     inkscape:current-layer="svg1" />
  <g
     transform="matrix(1.625,0,0,1.625,-1162.125,280.875)"
     id="g1">
    <path
       color="#bebebe"
       d="m 725,-171 c -4.423,0 -8,3.576 -8,8 0,4.424 3.577,8 8,8 4.424,0 8,-3.576 8,-8 0,-4.424 -3.576,-8 -8,-8 z m 0,1 c 3.87,0 7,3.13 7,7 0,3.87 -3.13,7 -7,7 -3.87,0 -7,-3.13 -7,-7 0,-3.87 3.13,-7 7,-7 z m 0.875,2.063 c -0.989,-0.014 -1.347,1.57 -0.406,1.968 0.749,0.277 1.496,-0.495 1.312,-1.25 -0.002,-0.009 0.002,-0.022 0,-0.031 a 0.88,0.88 0 0 0 -0.906,-0.687 z m -0.187,2.843 a 0.813,0.813 0 0 0 -0.532,0.188 l -2.093,1.5 a 0.195,0.195 0 0 0 -0.063,0.219 0.701,0.701 0 0 0 0.281,0.343 c 0.073,0.045 0.161,0.068 0.25,0.031 l 0.875,-0.593 -0.718,3.718 c -0.081,0.46 -0.01,0.75 0.25,0.97 a 0.85,0.85 0 0 0 1.031,0.03 l 1.812,-1.25 c 0.066,-0.052 0.1,-0.13 0.063,-0.218 a 1.192,1.192 0 0 0 -0.219,-0.344 c -0.055,-0.057 -0.143,-0.116 -0.25,-0.094 l -0.75,0.531 c -0.164,0.095 -0.215,0.136 -0.187,0.032 l 0.843,-3.844 c 0.077,-0.347 0.094,-0.55 0,-0.781 a 0.683,0.683 0 0 0 -0.593,-0.438 z"
       fill="#dedede"
       opacity="0.9"
       overflow="visible"
       style="text-indent:0;text-transform:none;marker:none"
       id="path1" />
  </g>
</svg>
