<?xml version="1.0" encoding="UTF-8" standalone="no"?>
<svg
   height="32"
   width="32"
   version="1.1"
   id="svg1"
   sodipodi:docname="weather-cloudy-symbolic.svg"
   inkscape:version="1.3.2 (091e20ef0f, 2023-11-25)"
   xmlns:inkscape="http://www.inkscape.org/namespaces/inkscape"
   xmlns:sodipodi="http://sodipodi.sourceforge.net/DTD/sodipodi-0.dtd"
   xmlns="http://www.w3.org/2000/svg"
   xmlns:svg="http://www.w3.org/2000/svg">
  <defs
     id="defs1" />
  <sodipodi:namedview
     id="namedview1"
     pagecolor="#ffffff"
     bordercolor="#000000"
     borderopacity="0.25"
     inkscape:showpageshadow="2"
     inkscape:pageopacity="0.0"
     inkscape:pagecheckerboard="0"
     inkscape:deskcolor="#d1d1d1"
     inkscape:zoom="30.75"
     inkscape:cx="8"
     inkscape:cy="8"
     inkscape:window-width="1366"
     inkscape:window-height="696"
     inkscape:window-x="0"
     inkscape:window-y="0"
     inkscape:window-maximized="1"
     inkscape:current-layer="svg1" />
  <path
     d="m 17.19998,5.376265 c -4.046246,0.00376 -7.4849903,2.495622 -9.1274887,6.059993 l -0.1143751,0.243749 -0.260624,0.01875 c -3.7387463,0.27 -6.6974921,3.506246 -6.6974921,7.439991 0,4.111869 3.2174959,7.48499 7.1962414,7.48499 H 25.603719 c 2.984997,0 5.396243,-2.531247 5.396243,-5.602493 a 5.546243,5.546243 0 0 0 -3.38437,-5.128118 L 27.358717,15.784373 27.33997,15.504999 C 27.086842,9.8931346 22.676848,5.3800152 17.207479,5.376265 Z m 0,1.874998 c 4.439995,0.00376 8.047489,3.659995 8.259364,8.338114 v 0.01875 l 0.09562,1.454998 1.318123,0.556874 a 3.6449954,3.6449954 0 0 1 2.240622,3.401246 c 0.01875,2.088748 -1.584372,3.727495 -3.506245,3.727495 H 8.194366 c -2.9174962,0 -5.3212434,-2.474996 -5.3212434,-5.609992 0,-2.994372 2.2218729,-5.373744 4.9593687,-5.574368 l 1.355624,-0.09375 0.5812491,-1.241248 v -0.0075 C 11.134362,9.2593641 13.918734,7.2531164 17.19623,7.2531164 Z"
     fill="#dedede"
     font-family="sans-serif"
     font-weight="400"
     overflow="visible"
     style="line-height:normal;-inkscape-font-specification:sans-serif;text-indent:0;text-align:start;text-decoration-line:none;text-transform:none;fill:#f9f9f9;stroke-width:1.875;marker:none"
     color="#000000"
     id="path1" />
</svg>
