<?xml version="1.0" encoding="UTF-8" standalone="no"?>
<svg
   width="32"
   height="32"
   version="1.1"
   id="svg1"
   sodipodi:docname="preferences-desktop-accessibility.svg"
   inkscape:version="1.3.2 (091e20ef0f, 2023-11-25)"
   xmlns:inkscape="http://www.inkscape.org/namespaces/inkscape"
   xmlns:sodipodi="http://sodipodi.sourceforge.net/DTD/sodipodi-0.dtd"
   xmlns="http://www.w3.org/2000/svg"
   xmlns:svg="http://www.w3.org/2000/svg">
  <defs
     id="defs1" />
  <sodipodi:namedview
     id="namedview1"
     pagecolor="#ffffff"
     bordercolor="#000000"
     borderopacity="0.25"
     inkscape:showpageshadow="2"
     inkscape:pageopacity="0.0"
     inkscape:pagecheckerboard="0"
     inkscape:deskcolor="#d1d1d1"
     inkscape:zoom="15.375"
     inkscape:cx="4.9430894"
     inkscape:cy="16"
     inkscape:window-width="1366"
     inkscape:window-height="696"
     inkscape:window-x="0"
     inkscape:window-y="0"
     inkscape:window-maximized="1"
     inkscape:current-layer="svg1" />
  <style
     type="text/css"
     id="current-color-scheme">.ColorScheme-Text { color: #fcfcfc; } </style>
  <path
     id="path1-5"
     style="fill:#f9f9f9;stroke-width:1.7365"
     d="M 16.003906 3 C 8.834071 3 3 8.8272887 3 16.003906 C 3 23.17374 8.834071 29 16.003906 29 C 23.173739 29 29.005859 23.17374 29.005859 16.003906 C 29.005859 8.8272887 23.173739 3.0000001 16.003906 3 z M 16.003906 6.4257812 C 21.301578 6.4257812 25.574219 10.706235 25.574219 16.003906 C 25.574219 21.294796 21.301578 25.574219 16.003906 25.574219 C 10.706232 25.574219 6.4316406 21.294796 6.4316406 16.003906 C 6.4316406 10.706235 10.706232 6.4257812 16.003906 6.4257812 z M 16 7.8027344 C 15.102539 7.8027344 14.375 8.5302731 14.375 9.4277344 C 14.375 10.325196 15.102539 11.052734 16 11.052734 C 16.897461 11.052734 17.625 10.325196 17.625 9.4277344 C 17.625 8.5302731 16.897461 7.8027344 16 7.8027344 z M 7.875 12.677734 L 7.875 14.302734 L 14.375 14.302734 L 14.375 15.927734 L 12.271484 23.777344 L 13.841797 24.197266 L 15.623047 17.552734 L 16.376953 17.552734 L 18.158203 24.197266 L 19.728516 23.777344 L 17.625 15.927734 L 17.625 14.302734 L 24.125 14.302734 L 24.125 12.677734 L 7.875 12.677734 z " />
  <g
     style="fill:#fffff9;fill-opacity:1;stroke:none;stroke-width:1.25"
     id="layer1"
     transform="matrix(0.58329268,0,0,0.58329268,-217.54467,-293.93709)" />
  <g
     id="view-history"
     transform="translate(0,32) translate(-22,-32)">
    <path
       id="path24"
       d="m22 0v32h32v-32h-32z"
       fill="none" />
  </g>
</svg>
