<?xml version="1.0" encoding="UTF-8" standalone="no"?>
<svg
   height="32"
   viewBox="0 0 32 32"
   width="32"
   version="1.1"
   id="svg1"
   sodipodi:docname="starred-symbolic.svg"
   inkscape:version="1.3.2 (091e20ef0f, 2023-11-25)"
   xmlns:inkscape="http://www.inkscape.org/namespaces/inkscape"
   xmlns:sodipodi="http://sodipodi.sourceforge.net/DTD/sodipodi-0.dtd"
   xmlns="http://www.w3.org/2000/svg"
   xmlns:svg="http://www.w3.org/2000/svg">
  <defs
     id="defs1" />
  <sodipodi:namedview
     id="namedview1"
     pagecolor="#ffffff"
     bordercolor="#000000"
     borderopacity="0.25"
     inkscape:showpageshadow="2"
     inkscape:pageopacity="0.0"
     inkscape:pagecheckerboard="0"
     inkscape:deskcolor="#d1d1d1"
     inkscape:zoom="30.75"
     inkscape:cx="8"
     inkscape:cy="8"
     inkscape:window-width="1366"
     inkscape:window-height="696"
     inkscape:window-x="0"
     inkscape:window-y="0"
     inkscape:window-maximized="1"
     inkscape:current-layer="svg1" />
  <path
     d="m 15.991472,3.0000001 c -0.744522,0 -1.407821,0.4737869 -1.644715,1.1844654 l -2.511066,7.5196615 -7.9528354,-0.02708 c -1.6988616,-0.0068 -2.3960043,2.179417 -1.0084869,3.154062 l 6.2810487,4.426514 -2.5990547,7.424905 c -0.5482393,1.563492 1.1912334,2.930704 2.585517,2.030511 l 6.9375803,-4.494198 6.748066,4.480661 c 1.387518,0.920498 3.147294,-0.446712 2.599055,-2.010206 l -2.605823,-7.431673 6.314892,-4.467123 c 1.36721,-0.974646 0.683605,-3.133756 -0.994951,-3.140524 L 20.066031,11.622904 17.636187,4.1980014 C 17.406061,3.4873229 16.742762,3.0067685 15.991472,3.0000001 Z m 0,0"
     fill="#2e3436"
     id="path1"
     style="fill:#f9f9f9;stroke-width:1.7327" />
</svg>
