<?xml version="1.0" encoding="UTF-8" standalone="no"?>
<svg
   height="32"
   viewBox="0 0 32 32"
   width="32"
   version="1.1"
   id="svg1"
   sodipodi:docname="network-wireless-signal-good-symbolic.svg"
   inkscape:version="1.3.2 (091e20ef0f, 2023-11-25)"
   xmlns:inkscape="http://www.inkscape.org/namespaces/inkscape"
   xmlns:sodipodi="http://sodipodi.sourceforge.net/DTD/sodipodi-0.dtd"
   xmlns="http://www.w3.org/2000/svg"
   xmlns:svg="http://www.w3.org/2000/svg">
  <defs
     id="defs1" />
  <sodipodi:namedview
     id="namedview1"
     pagecolor="#ffffff"
     bordercolor="#000000"
     borderopacity="0.25"
     inkscape:showpageshadow="2"
     inkscape:pageopacity="0.0"
     inkscape:pagecheckerboard="0"
     inkscape:deskcolor="#d1d1d1"
     inkscape:zoom="30.75"
     inkscape:cx="8"
     inkscape:cy="8"
     inkscape:window-width="1366"
     inkscape:window-height="696"
     inkscape:window-x="0"
     inkscape:window-y="0"
     inkscape:window-maximized="1"
     inkscape:current-layer="svg1" />
  <path
     d="m 15.999999,4.7409284 c -4.907989,0 -9.8233018,1.7507588 -13.4933048,5.2669296 l -0.9303207,0.901019 c -0.74718693,0.71056 -0.76916197,1.897268 -0.058603,2.644453 0.7178839,0.747188 1.9045925,0.769162 2.651778,0.0586 l 0.9376456,-0.893689 c 5.7870327,-5.5452962 15.9985777,-5.5452962 21.7856107,0 l 0.937645,0.893692 c 0.747186,0.710559 1.933894,0.688585 2.651778,-0.0586 0.71056,-0.747185 0.688585,-1.933893 -0.0586,-2.644453 L 29.493305,10.000533 C 25.823302,6.4916872 20.907989,4.7409284 15.999999,4.7409284 Z m -0.0586,7.5158146 c -2.944795,0.02198 -5.867612,1.179382 -7.8894105,3.398965 l -0.9376456,1.032875 c -0.3369674,0.366269 -0.5201008,0.849741 -0.4907994,1.347865 0.021977,0.498125 0.2417363,0.966947 0.6153299,1.303915 0.3662688,0.336965 0.8497414,0.512774 1.3478656,0.483472 0.4981242,-0.02197 0.9669471,-0.241736 1.3039144,-0.61533 l 0.9303186,-1.025549 c 2.395392,-2.629804 7.801506,-2.805612 10.358055,0.0073 l 0.937645,1.018225 c 0.329641,0.373586 0.798464,0.593348 1.296588,0.615322 0.498124,0.0293 0.981597,-0.146507 1.35519,-0.483472 0.366269,-0.336968 0.586029,-0.80579 0.608005,-1.303915 0.02198,-0.490799 -0.153832,-0.981596 -0.490799,-1.347865 l -0.937645,-1.02555 C 21.845635,13.34822 18.878864,12.234767 15.941397,12.256743 Z m 0.0586,7.501165 c -0.959622,0 -1.919244,0.366266 -2.651778,1.098804 -1.465071,1.465071 -1.465071,3.838485 0,5.303556 1.465072,1.465071 3.838485,1.465071 5.303556,0 1.465072,-1.465071 1.465072,-3.838485 0,-5.303556 -0.732533,-0.732538 -1.692155,-1.098804 -2.651778,-1.098804 z m 0,0"
     fill="#2e3436"
     id="path1"
     style="fill:#f9f9f9;stroke-width:1.87529" />
</svg>
