<?xml version="1.0" encoding="UTF-8" standalone="no"?>
<svg
   viewBox="0 0 32 32"
   version="1.1"
   id="svg1"
   sodipodi:docname="preferences-desktop-gaming.svg"
   width="32"
   height="32"
   inkscape:version="1.3.2 (091e20ef0f, 2023-11-25)"
   xmlns:inkscape="http://www.inkscape.org/namespaces/inkscape"
   xmlns:sodipodi="http://sodipodi.sourceforge.net/DTD/sodipodi-0.dtd"
   xmlns="http://www.w3.org/2000/svg"
   xmlns:svg="http://www.w3.org/2000/svg">
  <sodipodi:namedview
     id="namedview1"
     pagecolor="#ffffff"
     bordercolor="#000000"
     borderopacity="0.25"
     inkscape:showpageshadow="2"
     inkscape:pageopacity="0.0"
     inkscape:pagecheckerboard="0"
     inkscape:deskcolor="#d1d1d1"
     inkscape:zoom="10.871767"
     inkscape:cx="21.155715"
     inkscape:cy="13.42928"
     inkscape:window-width="1366"
     inkscape:window-height="696"
     inkscape:window-x="0"
     inkscape:window-y="0"
     inkscape:window-maximized="1"
     inkscape:current-layer="svg1" />
  <defs
     id="defs3051">
    <style
       type="text/css"
       id="current-color-scheme">.ColorScheme-Text { color: #fcfcfc; } </style>
  </defs>
  <path
     style="fill:currentColor;stroke-width:2.24914"
     d="M 7.0034175,6.9104598 A 4.4982912,8.9965823 0 0 0 2.5051263,15.907042 v 5.622864 a 3.3737185,3.3737185 0 0 0 5.8477784,2.474061 L 10.377137,21.754821 A 3.3737185,3.3737185 0 0 0 12.626281,22.65448 3.3737185,3.3737185 0 0 0 16,19.280762 a 3.3737185,3.3737185 0 0 0 5.622864,2.474059 l 2.024231,2.249146 a 3.3737185,3.3737185 0 0 0 5.847779,-2.474061 V 15.907042 A 4.4982912,8.9965823 0 0 0 24.996582,6.9104598 Z m 0,2.2491457 H 24.996582 a 2.2491456,6.7474368 0 0 1 2.249146,6.7474365 v 5.622864 a 1.1245728,1.1245728 0 0 1 -2.024232,0.674745 L 21.39795,18.381103 a 1.3494873,1.3494873 0 0 0 0.224914,0 1.3494873,1.3494873 0 0 0 1.349487,-1.349488 1.3494873,1.3494873 0 0 0 -1.349487,-1.349486 1.3494873,1.3494873 0 0 0 -1.349486,1.349486 1.3494873,1.3494873 0 0 0 0.674742,1.124574 h -0.449828 v 1.124573 a 1.1245731,1.1245731 0 0 1 -2.249146,0 v -1.124573 h -4.498293 v 1.124573 a 1.1245728,1.1245728 0 0 1 -2.249143,0 v -1.124573 -2.249147 h 2.249143 V 13.657896 H 11.50171 V 11.408751 H 9.2525626 v 2.249145 H 7.0034175 v 2.249146 h 2.2491451 v 2.249147 H 10.826966 L 6.5535883,22.204651 A 1.1245728,1.1245728 0 0 1 4.7542719,21.529906 V 15.907042 A 2.2491456,6.7474368 0 0 1 7.0034175,9.1596055 Z M 21.622864,11.183836 a 1.3494873,1.3494873 0 0 0 -1.349486,1.349487 1.3494873,1.3494873 0 0 0 1.349486,1.349489 1.3494873,1.3494873 0 0 0 1.349487,-1.349489 1.3494873,1.3494873 0 0 0 -1.349487,-1.349487 z m -2.249146,2.249146 a 1.3494873,1.3494873 0 0 0 -1.349487,1.349488 1.3494873,1.3494873 0 0 0 1.349487,1.349487 1.3494873,1.3494873 0 0 0 1.349488,-1.349487 1.3494873,1.3494873 0 0 0 -1.349488,-1.349488 z m 4.498291,0 a 1.3494873,1.3494873 0 0 0 -1.349487,1.349488 1.3494873,1.3494873 0 0 0 1.349487,1.349487 1.3494873,1.3494873 0 0 0 1.349487,-1.349487 1.3494873,1.3494873 0 0 0 -1.349487,-1.349488 z"
     class="ColorScheme-Text"
     id="path1" />
</svg>
