<?xml version="1.0" encoding="UTF-8" standalone="no"?>
<svg
   height="32"
   width="32"
   viewBox="0 0 32 32"
   version="1.1"
   id="svg1"
   sodipodi:docname="preferences-desktop-mouse.svg"
   inkscape:version="1.3.2 (091e20ef0f, 2023-11-25)"
   xmlns:inkscape="http://www.inkscape.org/namespaces/inkscape"
   xmlns:sodipodi="http://sodipodi.sourceforge.net/DTD/sodipodi-0.dtd"
   xmlns="http://www.w3.org/2000/svg"
   xmlns:svg="http://www.w3.org/2000/svg">
  <defs
     id="defs1" />
  <sodipodi:namedview
     id="namedview1"
     pagecolor="#ffffff"
     bordercolor="#000000"
     borderopacity="0.25"
     inkscape:showpageshadow="2"
     inkscape:pageopacity="0.0"
     inkscape:pagecheckerboard="0"
     inkscape:deskcolor="#d1d1d1"
     inkscape:zoom="20.5"
     inkscape:cx="12"
     inkscape:cy="12"
     inkscape:window-width="1366"
     inkscape:window-height="696"
     inkscape:window-x="0"
     inkscape:window-y="0"
     inkscape:window-maximized="1"
     inkscape:current-layer="svg1" />
  <style
     type="text/css"
     id="current-color-scheme">.ColorScheme-Text { color: #fcfcfc; } </style>
  <g
     transform="matrix(1.625,0,0,1.625,-1.875,-1.875)"
     id="g1">
    <path
       d="M 10,3 A 5,5 0 0 0 5,8 v 6 a 5,5 0 0 0 5,5 h 2 a 5,5 0 0 0 5,-5 V 8 A 5,5 0 0 0 12,3 Z m 0,1 h 2 a 4,4 0 0 1 4,4 v 6 a 4,4 0 0 1 -4,4 H 10 A 4,4 0 0 1 6,14 V 8 a 4,4 0 0 1 4,-4 z m 0,1 v 5 h 2 V 5 Z"
       fill="currentColor"
       class="ColorScheme-Text"
       id="path1" />
  </g>
</svg>
