<?xml version="1.0" encoding="UTF-8" standalone="no"?>
<svg
   height="32"
   viewBox="0 0 32 32"
   width="32"
   version="1.1"
   id="svg1"
   sodipodi:docname="mail-attachment-symbolic.svg"
   inkscape:version="1.3.2 (091e20ef0f, 2023-11-25)"
   xmlns:inkscape="http://www.inkscape.org/namespaces/inkscape"
   xmlns:sodipodi="http://sodipodi.sourceforge.net/DTD/sodipodi-0.dtd"
   xmlns="http://www.w3.org/2000/svg"
   xmlns:svg="http://www.w3.org/2000/svg">
  <defs
     id="defs1" />
  <sodipodi:namedview
     id="namedview1"
     pagecolor="#ffffff"
     bordercolor="#000000"
     borderopacity="0.25"
     inkscape:showpageshadow="2"
     inkscape:pageopacity="0.0"
     inkscape:pagecheckerboard="0"
     inkscape:deskcolor="#d1d1d1"
     inkscape:zoom="30.75"
     inkscape:cx="8"
     inkscape:cy="8"
     inkscape:window-width="1366"
     inkscape:window-height="696"
     inkscape:window-x="0"
     inkscape:window-y="0"
     inkscape:window-maximized="1"
     inkscape:current-layer="svg1" />
  <path
     d="m 19.122422,3 c -1.472795,0 -2.94559,0.561988 -4.063105,1.6795031 L 9.271491,10.467329 c -0.032298,0.0323 -0.064597,0.0646 -0.096895,0.103354 -0.1162741,0.135652 -0.9495656,1.04 -1.3113048,2.377143 -0.3617391,1.330683 -0.096895,3.262112 1.3888204,4.799502 1.5115522,1.556772 3.5204962,1.808696 4.8705582,1.434038 1.343602,-0.381118 2.021864,-0.968945 2.480497,-1.446956 l 3.275031,-3.275032 c 0.645963,-0.645963 0.645963,-1.692421 0,-2.338384 -0.645963,-0.645963 -1.692421,-0.645963 -2.338384,0 l -3.307329,3.307329 c -0.01292,0.0065 -0.01938,0.01938 -0.0323,0.0323 0.187329,-0.19379 -0.478013,0.394037 -0.975404,0.536149 -0.49093,0.13565 -0.82683,0.245463 -1.595526,-0.54907 -0.800994,-0.826832 -0.69764,-1.175653 -0.574907,-1.634287 0.122732,-0.452173 0.426335,-0.833291 0.639502,-1.091676 l 5.703851,-5.7038516 c 1.065838,-1.0658381 2.383604,-1.0658381 3.449442,0 l 4.134162,4.1341616 c 1.065838,1.065838 1.065838,2.383604 0,3.449442 l -9.921988,9.921988 c 0,0 -0.303603,0.303601 -0.781616,0.620124 -0.478012,0.316521 -1.078757,0.549068 -1.356521,0.549068 H 7.9601863 c -0.2777644,0 -0.7428576,-0.187329 -1.1045967,-0.549068 -0.3617392,-0.361739 -0.549068,-0.826832 -0.549068,-1.104597 v -6.614658 c 0,-0.910807 -0.7428575,-1.653665 -1.6536646,-1.653665 -0.9108071,0 -1.6536646,0.742858 -1.6536646,1.653665 v 6.614658 c 0,1.3759 0.6395035,2.564472 1.5180129,3.442981 C 5.3957146,28.360496 6.584286,29 7.9601863,29 H 12.92118 c 1.3759,0 2.42882,-0.594286 3.191057,-1.104597 0.762235,-0.510309 1.285464,-1.03354 1.285464,-1.03354 l 9.921988,-9.921988 c 2.241491,-2.241491 2.241491,-5.884719 0,-8.1262103 L 23.185527,4.6795031 C 22.068012,3.561988 20.595217,3 19.122422,3 Z m 0,0"
     fill="#2e3436"
     id="path1"
     style="fill:#f9f9f9;stroke-width:1.65366" />
</svg>
