<?xml version="1.0" encoding="UTF-8" standalone="no"?>
<svg
   height="32"
   viewBox="0 0 32 32"
   width="32"
   version="1.1"
   id="svg1"
   sodipodi:docname="network-wireless-hotspot-symbolic.svg"
   inkscape:version="1.3.2 (091e20ef0f, 2023-11-25)"
   xmlns:inkscape="http://www.inkscape.org/namespaces/inkscape"
   xmlns:sodipodi="http://sodipodi.sourceforge.net/DTD/sodipodi-0.dtd"
   xmlns="http://www.w3.org/2000/svg"
   xmlns:svg="http://www.w3.org/2000/svg">
  <defs
     id="defs1" />
  <sodipodi:namedview
     id="namedview1"
     pagecolor="#ffffff"
     bordercolor="#000000"
     borderopacity="0.25"
     inkscape:showpageshadow="2"
     inkscape:pageopacity="0.0"
     inkscape:pagecheckerboard="0"
     inkscape:deskcolor="#d1d1d1"
     inkscape:zoom="30.75"
     inkscape:cx="8"
     inkscape:cy="8"
     inkscape:window-width="1366"
     inkscape:window-height="696"
     inkscape:window-x="0"
     inkscape:window-y="0"
     inkscape:window-maximized="1"
     inkscape:current-layer="svg1" />
  <path
     d="M 6.7142856,3 C 3.6601566,3 1.142857,5.5172996 1.142857,8.5714286 V 16 c 0,3.054129 2.5172996,5.571429 5.5714286,5.571429 h 1.8571428 v 1.857142 C 8.5714284,26.4827 11.088728,29 14.142857,29 h 11.142857 c 3.054129,0 5.571429,-2.5173 5.571429,-5.571429 V 16 c 0,-3.054129 -2.5173,-5.571429 -5.571429,-5.571429 H 23.428571 V 8.5714286 C 23.428571,5.5172996 20.911272,3 17.857143,3 Z m 0,3.7142857 H 17.857143 c 1.059151,0 1.857143,0.797992 1.857143,1.8571429 V 16 c 0,1.059151 -0.797992,1.857143 -1.857143,1.857143 H 16 c -1.022879,0 -1.857143,0.834264 -1.857143,1.857143 0,1.022879 0.834264,1.857143 1.857143,1.857143 h 1.857143 c 3.054129,0 5.571428,-2.5173 5.571428,-5.571429 v -1.857143 h 1.857143 c 1.059151,0 1.857143,0.797992 1.857143,1.857143 v 7.428571 c 0,1.059151 -0.797992,1.857143 -1.857143,1.857143 H 14.142857 c -1.059151,0 -1.857143,-0.797992 -1.857143,-1.857143 V 16 c 0,-1.059151 0.797992,-1.857143 1.857143,-1.857143 H 16 c 1.022879,0 1.857143,-0.834264 1.857143,-1.857143 0,-1.022879 -0.834264,-1.857143 -1.857143,-1.857143 h -1.857143 c -3.054129,0 -5.5714286,2.5173 -5.5714286,5.571429 v 1.857143 H 6.7142856 C 5.6551347,17.857143 4.8571427,17.059151 4.8571427,16 V 8.5714286 c 0,-1.0591509 0.797992,-1.8571429 1.8571429,-1.8571429 z m 0,0"
     fill="#2e3436"
     id="path1"
     style="fill:#f9f9f9;stroke-width:1.85714" />
</svg>
