<?xml version="1.0" encoding="UTF-8" standalone="no"?>
<svg
   viewBox="0 0 32 32"
   width="32"
   height="32"
   version="1.1"
   id="svg3"
   sodipodi:docname="preferences-desktop-keyboard.svg"
   inkscape:version="1.3.2 (091e20ef0f, 2023-11-25)"
   xmlns:inkscape="http://www.inkscape.org/namespaces/inkscape"
   xmlns:sodipodi="http://sodipodi.sourceforge.net/DTD/sodipodi-0.dtd"
   xmlns="http://www.w3.org/2000/svg"
   xmlns:svg="http://www.w3.org/2000/svg">
  <defs
     id="defs3" />
  <sodipodi:namedview
     id="namedview3"
     pagecolor="#ffffff"
     bordercolor="#000000"
     borderopacity="0.25"
     inkscape:showpageshadow="2"
     inkscape:pageopacity="0.0"
     inkscape:pagecheckerboard="0"
     inkscape:deskcolor="#d1d1d1"
     inkscape:zoom="7.2478445"
     inkscape:cx="0.82783233"
     inkscape:cy="18.764199"
     inkscape:window-width="1366"
     inkscape:window-height="696"
     inkscape:window-x="0"
     inkscape:window-y="0"
     inkscape:window-maximized="1"
     inkscape:current-layer="svg3" />
  <style
     type="text/css"
     id="current-color-scheme">.ColorScheme-Text { color: #fcfcfc; } </style>
  <g
     transform="matrix(1.6666667,0,0,1.3333334,-2.3321507,-1.9960354)"
     id="g3">
    <g
       class="ColorScheme-Text"
       fill="currentColor"
       id="g2">
      <path
         id="path1"
         d="m 9.9992904,7.9931198 c -1.01e-5,0.00263 0,0.00518 0,0.00781 h -8 V 19.000932 H 19.99929 V 8.0009323 h -9 c 0,-0.00198 -1.1e-5,-0.00389 0,-0.00586 z m -7,1.0078125 H 18.99929 V 10.000932 H 2.9992904 Z m 0,1.9999997 H 18.99929 v 7 H 2.9992904 Z" />
      <path
         d="m 4,12 v 1 h 1 v -1 z m 2,0 v 1 h 1 v -1 z m 2,0 v 1 h 1 v -1 z m 2,0 v 1 h 1 v -1 z m 2,0 v 1 h 1 v -1 z m 2,0 v 1 h 1 v -1 z m 2,0 v 1 h 2 V 12 Z M 4,14 v 1 h 2 v -1 z m 3,0 v 1 h 1 v -1 z m 2,0 v 1 h 1 v -1 z m 2,0 v 1 h 1 v -1 z m 2,0 v 1 h 1 v -1 z m 2,0 v 1 h 3 V 14 Z M 4,16 v 1 h 2 v -1 z m 3,0 v 1 h 8 v -1 z m 9,0 v 1 h 2 v -1 z"
         id="path2" />
    </g>
  </g>
</svg>
