<?xml version="1.0" encoding="UTF-8" standalone="no"?>
<svg
   viewBox="0 0 32 32"
   version="1.1"
   id="svg1"
   sodipodi:docname="preferences-devices-printer.svg"
   width="32"
   height="32"
   inkscape:version="1.3.2 (091e20ef0f, 2023-11-25)"
   xmlns:inkscape="http://www.inkscape.org/namespaces/inkscape"
   xmlns:sodipodi="http://sodipodi.sourceforge.net/DTD/sodipodi-0.dtd"
   xmlns="http://www.w3.org/2000/svg"
   xmlns:svg="http://www.w3.org/2000/svg">
  <sodipodi:namedview
     id="namedview1"
     pagecolor="#ffffff"
     bordercolor="#000000"
     borderopacity="0.25"
     inkscape:showpageshadow="2"
     inkscape:pageopacity="0.0"
     inkscape:pagecheckerboard="0"
     inkscape:deskcolor="#d1d1d1"
     inkscape:zoom="15.375"
     inkscape:cx="16"
     inkscape:cy="16"
     inkscape:window-width="1366"
     inkscape:window-height="696"
     inkscape:window-x="0"
     inkscape:window-y="0"
     inkscape:window-maximized="1"
     inkscape:current-layer="svg1" />
  <defs
     id="defs3051">
    <style
       type="text/css"
       id="current-color-scheme">.ColorScheme-Text { color: #fcfcfc; } </style>
  </defs>
  <path
     style="fill:currentColor;fill-opacity:1;stroke:none;stroke-width:1.625"
     d="m 6.25,3 v 1.625 6.5 H 3 V 12.75 24.125 H 4.625 9.5 V 27.375 29 h 13 v -1.625 -3.25 H 29 V 22.5 12.75 11.125 H 25.75 V 4.625 3 H 6.25 m 1.625,1.625 h 16.25 v 6.5 H 22.5 V 9.5 h -13 v 1.625 H 7.875 v -6.5 M 9.5,6.25 v 1.625 h 13 V 6.25 h -13 m -4.875,6.5 h 22.75 v 9.75 h -3.25 V 19.25 H 7.875 v 3.25 h -3.25 v -9.75 m 16.25,1.625 V 16 h 4.875 v -1.625 h -4.875 m -9.75,9.75 h 9.75 v 3.25 h -9.75 v -3.25"
     class="ColorScheme-Text"
     id="path1" />
</svg>
