<?xml version="1.0" encoding="UTF-8" standalone="no"?>
<svg
   fill="none"
   viewBox="0 0 32 32"
   width="32"
   height="32"
   version="1.1"
   id="svg4"
   sodipodi:docname="preferences-desktop-touchscreen.svg"
   inkscape:version="1.3.2 (091e20ef0f, 2023-11-25)"
   xmlns:inkscape="http://www.inkscape.org/namespaces/inkscape"
   xmlns:sodipodi="http://sodipodi.sourceforge.net/DTD/sodipodi-0.dtd"
   xmlns="http://www.w3.org/2000/svg"
   xmlns:svg="http://www.w3.org/2000/svg">
  <defs
     id="defs4" />
  <sodipodi:namedview
     id="namedview4"
     pagecolor="#ffffff"
     bordercolor="#000000"
     borderopacity="0.25"
     inkscape:showpageshadow="2"
     inkscape:pageopacity="0.0"
     inkscape:pagecheckerboard="0"
     inkscape:deskcolor="#d1d1d1"
     inkscape:zoom="15.375"
     inkscape:cx="16"
     inkscape:cy="16"
     inkscape:window-width="1366"
     inkscape:window-height="696"
     inkscape:window-x="0"
     inkscape:window-y="0"
     inkscape:window-maximized="1"
     inkscape:current-layer="svg4" />
  <style
     type="text/css"
     id="current-color-scheme">.ColorScheme-Text { color: #fcfcfc; } </style>
  <g
     transform="matrix(1.4444444,0,0,1.4444444,0.1111116,-1.3332606)"
     id="g4">
    <g
       class="ColorScheme-Text"
       style="fill:currentColor;fill-opacity:1;stroke:none"
       id="g3">
      <path
         d="M 2,18 V 3 H 20 V 17.5 H 19 V 4 H 3 v 13 h 3 v 1 z"
         id="path1" />
      <path
         d="m 10,20.9999 h 6.5 l 1.5,-6 c -2,-1.4999 -4.5,-2 -6,-2 V 9.29999 C 12,8 10,7.29991 10,9.29999 V 17 L 8.5,14.9999 c -1.5,-2 -3,0 -3,0 z"
         id="path2" />
      <path
         d="M 9.0001,12.3726 C 8.0933,11.7401 7.5,10.6893 7.5,9.49988 c 0,-1.933 1.567,-3.5 3.5,-3.5 1.933,0 3.5,1.567 3.5,3.5 0,0.97932 -0.4022,1.86482 -1.0505,2.50002 h 1.2927 C 15.2209,11.2849 15.5,10.425 15.5,9.49988 c 0,-2.48528 -2.0147,-4.5 -4.5,-4.5 -2.48528,0 -4.5,2.01472 -4.5,4.5 0,1.76692 1.01833,3.29592 2.5001,4.03232 z"
         id="path3" />
    </g>
  </g>
</svg>
