<?xml version="1.0" encoding="UTF-8" standalone="no"?>
<svg
   height="32"
   viewBox="0 0 32 32"
   width="32"
   version="1.1"
   id="svg1"
   sodipodi:docname="bluetooth-symbolic.svg"
   inkscape:version="1.3.2 (091e20ef0f, 2023-11-25)"
   xmlns:inkscape="http://www.inkscape.org/namespaces/inkscape"
   xmlns:sodipodi="http://sodipodi.sourceforge.net/DTD/sodipodi-0.dtd"
   xmlns="http://www.w3.org/2000/svg"
   xmlns:svg="http://www.w3.org/2000/svg">
  <defs
     id="defs1" />
  <sodipodi:namedview
     id="namedview1"
     pagecolor="#ffffff"
     bordercolor="#000000"
     borderopacity="0.25"
     inkscape:showpageshadow="2"
     inkscape:pageopacity="0.0"
     inkscape:pagecheckerboard="0"
     inkscape:deskcolor="#d1d1d1"
     inkscape:zoom="30.75"
     inkscape:cx="8"
     inkscape:cy="8"
     inkscape:window-width="1366"
     inkscape:window-height="696"
     inkscape:window-x="0"
     inkscape:window-y="0"
     inkscape:window-maximized="1"
     inkscape:current-layer="svg1" />
  <path
     d="m 15.325672,3.1469784 c -0.577656,0.2666097 -0.95218,0.8442655 -0.95218,1.4790517 V 13.23373 L 10.564775,9.9074509 C 9.8919024,9.3171002 8.8698955,9.380578 8.2795447,10.053452 7.689194,10.732672 7.7526718,11.754679 8.4318934,12.34503 l 4.1705446,3.656368 -4.1705446,3.656368 c -0.6792216,0.59035 -0.7426994,1.612357 -0.1523487,2.28523 0.5903508,0.679222 1.6123577,0.742699 2.2852303,0.152349 l 3.808717,-3.32628 v 8.6077 c 0,0.634787 0.374524,1.212442 0.95218,1.479052 0.584001,0.260262 1.263223,0.165045 1.739313,-0.260262 l 6.50021,-5.687684 c 0.35548,-0.304697 0.558612,-0.749049 0.558612,-1.21879 0,-0.46974 -0.203132,-0.914092 -0.558612,-1.218789 l -5.103681,-4.468894 5.103681,-4.468895 c 0.35548,-0.304697 0.558612,-0.749048 0.558612,-1.218789 0,-0.4697409 -0.203132,-0.914092 -0.558612,-1.2187894 l -6.50021,-5.687684 C 16.588895,2.9819338 15.909673,2.880368 15.325672,3.1469784 Z m 2.297925,5.0592456 2.412187,2.10749 -2.412187,2.10749 z m 0,11.375367 2.412187,2.10749 -2.412187,2.107491 z m 0,0"
     fill="#2e3436"
     id="path1"
     style="fill:#f9f9f9;stroke-width:1.62505" />
</svg>
