<?xml version="1.0" encoding="UTF-8" standalone="no"?>
<svg
   viewBox="0 0 32 32"
   width="32"
   height="32"
   version="1.1"
   id="svg2"
   sodipodi:docname="preferences-desktop-sound.svg"
   inkscape:version="1.3.2 (091e20ef0f, 2023-11-25)"
   xmlns:inkscape="http://www.inkscape.org/namespaces/inkscape"
   xmlns:sodipodi="http://sodipodi.sourceforge.net/DTD/sodipodi-0.dtd"
   xmlns="http://www.w3.org/2000/svg"
   xmlns:svg="http://www.w3.org/2000/svg">
  <sodipodi:namedview
     id="namedview2"
     pagecolor="#ffffff"
     bordercolor="#000000"
     borderopacity="0.25"
     inkscape:showpageshadow="2"
     inkscape:pageopacity="0.0"
     inkscape:pagecheckerboard="0"
     inkscape:deskcolor="#d1d1d1"
     inkscape:zoom="15.375"
     inkscape:cx="16"
     inkscape:cy="16"
     inkscape:window-width="1366"
     inkscape:window-height="696"
     inkscape:window-x="0"
     inkscape:window-y="0"
     inkscape:window-maximized="1"
     inkscape:current-layer="svg2" />
  <defs
     id="defs3051">
    <style
       type="text/css"
       id="current-color-scheme">.ColorScheme-Text { color: #fcfcfc; } </style>
  </defs>
  <g
     transform="matrix(1.5625,0,0,1.5625,-1.1875,-1.1875)"
     id="g2">
    <path
       style="fill:currentColor;fill-opacity:1;stroke:none"
       d="M 10.988281,3 6,7.9902344 V 8 v 1 4 1 0.0098 L 10.988281,19 H 12 V 18.597656 3.4023438 3 Z m 3.335938,4.28125 -0.539063,0.8613281 A 4,4 0 0 1 15,11 4,4 0 0 1 13.789062,13.861328 l 0.539063,0.863281 A 5,5 0 0 0 16,11 5,5 0 0 0 14.324219,7.28125 Z M 3,8 v 1 4 1 H 5 V 13 9 8 Z"
       class="ColorScheme-Text"
       id="path1" />
    <path
       style="fill:#ffffff;fill-opacity:1;stroke:none"
       d="m 13.865234,3.5371094 -0.24414,0.9765625 A 7,7 0 0 1 18,11 7,7 0 0 1 13.619141,17.478516 l 0.24414,0.974609 A 8,8 0 0 0 19,11 8,8 0 0 0 13.865234,3.5371094 Z"
       class="ColorScheme-Text"
       id="path2" />
  </g>
</svg>
