<?xml version="1.0" encoding="UTF-8" standalone="no"?>
<svg
   height="32"
   viewBox="0 0 32 32"
   width="32"
   version="1.1"
   id="svg1"
   sodipodi:docname="chat-message-new-symbolic.svg"
   inkscape:version="1.3.2 (091e20ef0f, 2023-11-25)"
   xmlns:inkscape="http://www.inkscape.org/namespaces/inkscape"
   xmlns:sodipodi="http://sodipodi.sourceforge.net/DTD/sodipodi-0.dtd"
   xmlns="http://www.w3.org/2000/svg"
   xmlns:svg="http://www.w3.org/2000/svg">
  <defs
     id="defs1" />
  <sodipodi:namedview
     id="namedview1"
     pagecolor="#ffffff"
     bordercolor="#000000"
     borderopacity="0.25"
     inkscape:showpageshadow="2"
     inkscape:pageopacity="0.0"
     inkscape:pagecheckerboard="0"
     inkscape:deskcolor="#d1d1d1"
     inkscape:zoom="30.75"
     inkscape:cx="8"
     inkscape:cy="8"
     inkscape:window-width="1366"
     inkscape:window-height="696"
     inkscape:window-x="0"
     inkscape:window-y="0"
     inkscape:window-maximized="1"
     inkscape:current-layer="svg1" />
  <path
     id="path1"
     d="M 7.3164065,3 C 7.114812,3 6.9165019,3.0143867 6.7205732,3.0372389 h -0.098178 c -0.1180885,0.016917 -0.2331891,0.042891 -0.3486979,0.067709 -0.3224186,0.069271 -0.6330042,0.1679618 -0.9309897,0.2945313 -0.016397,0.00683 -0.034466,0.00993 -0.050781,0.016935 C 5.1461959,3.4800744 5.0039577,3.5500106 4.8653648,3.626302 4.7306692,3.6992995 4.6000189,3.7790728 4.4726565,3.8632813 3.0597068,4.797484 2.1164065,6.3964173 2.1164065,8.2 v 10.4 c 0,2.850517 2.3494824,5.2 5.2,5.2 H 9.0497398 V 29 L 14.24974,23.8 v -0.02032 h 10.433853 c 2.850517,0 5.2,-2.349484 5.2,-5.199999 v -6.933329 c 0,-0.119335 -0.01075,-0.23604 -0.03385,-0.348697 V 8.2 C 29.849739,5.3494824 27.500256,3 24.649739,3 Z m 0,3.4666667 H 24.649739 c 0.961458,0 1.733334,0.7718751 1.733334,1.7333333 v 6.933333 c 0,0.119337 0.01075,0.236041 0.03385,0.348698 v 3.097656 c 0,0.961458 -0.771874,1.733333 -1.733334,1.733333 H 7.3502606 c -0.9614573,0 -1.7333334,-0.771875 -1.7333334,-1.733333 V 8.1796874 c 0,-0.3707019 0.1047107,-0.7060447 0.2877606,-0.9817707 C 5.9616902,7.1120543 6.029649,7.0342293 6.1010419,6.9609374 6.413215,6.654808 6.8417989,6.4666667 7.3164065,6.4666667 Z"
     style="fill:#f9f9f9;stroke-width:1.73333" />
</svg>
