<?xml version="1.0" encoding="UTF-8" standalone="no"?>
<svg
   height="32"
   viewBox="0 0 32 32"
   width="32"
   version="1.1"
   id="svg1"
   sodipodi:docname="edit-find-symbolic.svg"
   inkscape:version="1.3.2 (091e20ef0f, 2023-11-25)"
   xmlns:inkscape="http://www.inkscape.org/namespaces/inkscape"
   xmlns:sodipodi="http://sodipodi.sourceforge.net/DTD/sodipodi-0.dtd"
   xmlns="http://www.w3.org/2000/svg"
   xmlns:svg="http://www.w3.org/2000/svg">
  <defs
     id="defs1" />
  <sodipodi:namedview
     id="namedview1"
     pagecolor="#ffffff"
     bordercolor="#000000"
     borderopacity="0.25"
     inkscape:showpageshadow="2"
     inkscape:pageopacity="0.0"
     inkscape:pagecheckerboard="0"
     inkscape:deskcolor="#d1d1d1"
     inkscape:zoom="30.75"
     inkscape:cx="8"
     inkscape:cy="8"
     inkscape:window-width="1366"
     inkscape:window-height="696"
     inkscape:window-x="0"
     inkscape:window-y="0"
     inkscape:window-maximized="1"
     inkscape:current-layer="svg1" />
  <path
     d="m 14.266348,2.9999999 c -6.2052075,0 -11.2723425,5.067135 -11.2723425,11.2723431 0,6.205208 5.067135,11.272343 11.2723425,11.272343 2.479375,0 4.775842,-0.812909 6.63876,-2.181306 l 5.107781,5.10778 c 1.65969,1.625819 4.098418,-0.867103 2.438728,-2.492922 l -5.080684,-5.080684 c 1.361623,-1.862916 2.167758,-4.152612 2.167758,-6.625211 0,-6.2052081 -5.067135,-11.2723431 -11.272343,-11.2723431 z m 0,3.4684133 c 4.328743,0 7.80393,3.4751871 7.80393,7.8039298 0,4.328743 -3.475187,7.80393 -7.80393,7.80393 -4.3287421,0 -7.8039292,-3.475187 -7.8039292,-7.80393 0,-4.3287427 3.4751871,-7.8039298 7.8039292,-7.8039298 z m 0,0"
     fill="#2e3436"
     id="path1"
     style="fill:#f9f9f9;stroke-width:1.73421" />
</svg>
