<?xml version="1.0" encoding="UTF-8" standalone="no"?>
<svg
   height="32"
   viewBox="0 0 32 32"
   width="32"
   version="1.1"
   id="svg2"
   sodipodi:docname="power-profile-performance-symbolic.svg"
   inkscape:version="1.3.2 (091e20ef0f, 2023-11-25)"
   xmlns:inkscape="http://www.inkscape.org/namespaces/inkscape"
   xmlns:sodipodi="http://sodipodi.sourceforge.net/DTD/sodipodi-0.dtd"
   xmlns="http://www.w3.org/2000/svg"
   xmlns:svg="http://www.w3.org/2000/svg">
  <defs
     id="defs2" />
  <sodipodi:namedview
     id="namedview2"
     pagecolor="#ffffff"
     bordercolor="#000000"
     borderopacity="0.25"
     inkscape:showpageshadow="2"
     inkscape:pageopacity="0.0"
     inkscape:pagecheckerboard="0"
     inkscape:deskcolor="#d1d1d1"
     inkscape:zoom="30.75"
     inkscape:cx="8"
     inkscape:cy="8"
     inkscape:window-width="1366"
     inkscape:window-height="696"
     inkscape:window-x="0"
     inkscape:window-y="0"
     inkscape:window-maximized="1"
     inkscape:current-layer="svg2" />
  <g
     id="g2"
     style="fill:#f9f9f9"
     transform="matrix(1.8644257,0,0,1.8644257,1.0845944,1.1282921)">
    <path
       d="m 8,1.003906 c -2.050781,0 -4.097656,0.78125 -5.65625,2.339844 -3.117188,3.117188 -3.117188,8.195312 0,11.3125 0.390625,0.390625 1.023438,0.390625 1.414062,0 0.390626,-0.390625 0.390626,-1.023438 0,-1.414062 -2.351562,-2.351563 -2.351562,-6.132813 0,-8.484376 2.351563,-2.351562 6.132813,-2.351562 8.484376,0 1.972656,1.972657 2.289062,4.953126 0.953124,7.246094 -0.257812,0.445313 -0.574218,0.859375 -0.953124,1.238282 -0.390626,0.390624 -0.390626,1.023437 0,1.414062 0.390624,0.390625 1.023437,0.390625 1.414062,0 3.117188,-3.117188 3.117188,-8.195312 0,-11.3125 C 12.097656,1.785156 10.050781,1.003906 8,1.003906 Z m 5.195312,11 L 12.832031,10.640625 10,9.003906 C 10,8.289062 9.617188,7.632812 9,7.273438 8.042969,6.722656 6.820312,7.050781 6.269531,8.003906 5.714844,8.960938 6.042969,10.1875 7,10.738281 c 0.617188,0.355469 1.378906,0.351563 1.996094,-0.0039 l 2.835937,1.636719 z m 0,0"
       fill="#2e3434"
       id="path1"
       style="fill:#f9f9f9" />
    <path
       d="m 12,9 c -0.0039,1.058594 -0.429688,2.074219 -1.179688,2.820312 l 2.128907,2.128907 C 14.261719,12.636719 15,10.855469 15,9 Z m 0,0"
       fill="#2e3436"
       fill-opacity="0.34902"
       id="path2"
       style="fill:#f9f9f9" />
  </g>
</svg>
