<?xml version="1.0" encoding="UTF-8" standalone="no"?>
<svg
   viewBox="0 0 32 32"
   version="1.1"
   id="svg1"
   sodipodi:docname="system-users.svg"
   inkscape:version="1.3.2 (091e20ef0f, 2023-11-25)"
   xmlns:inkscape="http://www.inkscape.org/namespaces/inkscape"
   xmlns:sodipodi="http://sodipodi.sourceforge.net/DTD/sodipodi-0.dtd"
   xmlns="http://www.w3.org/2000/svg"
   xmlns:svg="http://www.w3.org/2000/svg">
  <sodipodi:namedview
     id="namedview1"
     pagecolor="#ffffff"
     bordercolor="#000000"
     borderopacity="0.25"
     inkscape:showpageshadow="2"
     inkscape:pageopacity="0.0"
     inkscape:pagecheckerboard="0"
     inkscape:deskcolor="#d1d1d1"
     inkscape:zoom="15.375"
     inkscape:cx="16"
     inkscape:cy="16"
     inkscape:window-width="1366"
     inkscape:window-height="696"
     inkscape:window-x="0"
     inkscape:window-y="0"
     inkscape:window-maximized="1"
     inkscape:current-layer="svg1" />
  <defs
     id="defs3051">
    <style
       type="text/css"
       id="current-color-scheme">.ColorScheme-Text { color: #fcfcfc; } </style>
  </defs>
  <path
     style="fill:currentColor;fill-opacity:1;stroke:none;stroke-width:1.25"
     d="M 21.625,1 A 5.625,5.625 0 0 0 16,6.625 5.625,5.625 0 0 0 21.625,12.25 5.625,5.625 0 0 0 27.25,6.625 5.625,5.625 0 0 0 21.625,1 Z m 0,1.25 A 4.375,4.375 0 0 1 26,6.625 4.375,4.375 0 0 1 21.625,11 4.375,4.375 0 0 1 17.25,6.625 4.375,4.375 0 0 1 21.625,2.25 Z m -11.25,5 C 7.268399,7.25 4.75,9.7684 4.75,12.875 4.75,15.9816 7.268399,18.5 10.375,18.5 13.481601,18.5 16,15.9816 16,12.875 16,9.7684 13.481601,7.25 10.375,7.25 Z m 0,1.25 A 4.375,4.375 0 0 1 14.75,12.875 4.375,4.375 0 0 1 10.375,17.25 4.375,4.375 0 0 1 6,12.875 4.375,4.375 0 0 1 10.375,8.5 Z m 11.25,5 c -1.103563,0.0038 -2.197832,0.21535 -3.232422,0.625 -0.08272,0.5296 -0.217665,1.049712 -0.402832,1.552737 C 19.118134,15.0686 20.362784,14.750962 21.625,14.75 c 4.487314,0 8.125,3.917512 8.125,8.75 H 19.322754 c 0.212903,0.404112 0.406873,0.821387 0.581055,1.25 H 31 V 23.5 c 0,-5.52285 -4.19733,-10 -9.375,-10 z m -11.25,6.25 C 5.19733,19.75 1,24.22715 1,29.75 V 31 h 18.75 v -1.25 c 0,-5.52285 -4.19733,-10 -9.375,-10 z m 0,1.25 c 4.487314,0 8.125,3.917512 8.125,8.75 H 2.25 C 2.25,24.917512 5.8876863,21 10.375,21 Z"
     class="ColorScheme-Text"
     id="path1" />
</svg>
