<?xml version='1.0' encoding='UTF-8' standalone='no'?>
<svg baseProfile="tiny" height="6.35mm" version="1.2" viewBox="0 0 54 54" width="6.35mm" xmlns="http://www.w3.org/2000/svg" xmlns:xlink="http://www.w3.org/1999/xlink">
    <style id="current-color-scheme" type="text/css">.ColorScheme-Text {color:#232629;}</style>
    <title>Qt SVG Document</title>
    <desc>Auto-generated by Klassy window decoration</desc>
    <defs/>
    <g fill="none" fill-rule="evenodd" stroke="black" stroke-linecap="square" stroke-linejoin="bevel" stroke-width="1">
        <g class="ColorScheme-Text" fill="currentColor" fill-opacity="0.949996" font-family="Noto Sans" font-size="30" font-style="normal" font-weight="400" stroke="none" transform="matrix(3,0,0,3,0,0)">
            <path d="M3.66583,5.4 C3.66583,4.55742 4.55742,3.66583 5.4,3.66583 L12.6,3.66583 C13.4426,3.66583 14.3342,4.55742 14.3342,5.4 L14.3342,12.6 C14.3342,13.4426 13.4426,14.3342 12.6,14.3342 L5.4,14.3342 C4.55742,14.3342 3.66583,13.4426 3.66583,12.6 L3.66583,5.4 M5.33417,5.4 L5.33417,12.6 C5.33417,12.7515 5.24847,12.6658 5.4,12.6658 L12.6,12.6658 C12.7515,12.6658 12.6658,12.7515 12.6658,12.6 L12.6658,5.4 C12.6658,5.24847 12.7515,5.33417 12.6,5.33417 L5.4,5.33417 C5.24847,5.33417 5.33417,5.24847 5.33417,5.4 " fill-rule="nonzero" vector-effect="none"/>
        </g>
    </g>
</svg>
