<?xml version='1.0' encoding='UTF-8' standalone='no'?>
<svg baseProfile="tiny" height="12.7mm" version="1.2" viewBox="0 0 132 132" width="12.7mm" xmlns="http://www.w3.org/2000/svg" xmlns:xlink="http://www.w3.org/1999/xlink">
    <style id="current-color-scheme" type="text/css">.ColorScheme-Text {color:#fcfcfc;}</style>
    <title>Qt SVG Document</title>
    <desc>Auto-generated by Klassy window decoration</desc>
    <defs/>
    <g fill="none" fill-rule="evenodd" stroke="black" stroke-linecap="square" stroke-linejoin="bevel" stroke-width="1">
        <g class="ColorScheme-Text" fill="currentColor" fill-opacity="0.949996" font-family="Noto Sans" font-size="36.6667" font-style="normal" font-weight="400" stroke="none" transform="matrix(7.33333,0,0,7.33333,31.5,49.5)">
            <path d="M-0.75075,0.709091 C-0.75075,0.00649998 0.00649998,-0.75075 0.709091,-0.75075 L6.38182,-0.75075 C7.08441,-0.75075 7.84166,0.00649998 7.84166,0.709091 L7.84166,6.38182 C7.84166,7.08441 7.08441,7.84166 6.38182,7.84166 L0.709091,7.84166 C0.00649998,7.84166 -0.75075,7.08441 -0.75075,6.38182 L-0.75075,0.709091 M0.75075,0.709091 L0.75075,6.38182 C0.75075,6.46247 0.628442,6.34016 0.709091,6.34016 L6.38182,6.34016 C6.46247,6.34016 6.34016,6.46247 6.34016,6.38182 L6.34016,0.709091 C6.34016,0.628442 6.46247,0.75075 6.38182,0.75075 L0.709091,0.75075 C0.628442,0.75075 0.75075,0.628442 0.75075,0.709091 " fill-rule="nonzero" vector-effect="none"/>
        </g>
        <g class="ColorScheme-Text" fill="currentColor" fill-opacity="0.949996" font-family="Noto Sans" font-size="36.6667" font-style="normal" font-weight="400" stroke="none" transform="matrix(7.33333,0,0,7.33333,31.5,49.5)">
            <path d="M2.45455,-3.2053 L6.62577,-3.2053 C7.0404,-3.2053 7.37652,-2.86917 7.37652,-2.45455 C7.37652,-2.03992 7.0404,-1.7038 6.62577,-1.7038 L2.45455,-1.7038 C2.03992,-1.7038 1.7038,-2.03992 1.7038,-2.45455 C1.7038,-2.86917 2.03992,-3.2053 2.45455,-3.2053 M6.62577,-3.2053 C8.54924,-3.2053 10.2962,-1.45833 10.2962,0.465136 L10.2962,4.63636 C10.2962,5.05099 9.96008,5.38711 9.54545,5.38711 C9.13083,5.38711 8.7947,5.05099 8.7947,4.63636 L8.7947,0.465136 C8.7947,-0.836389 7.9273,-1.7038 6.62577,-1.7038 C6.21114,-1.7038 5.87502,-2.03992 5.87502,-2.45455 C5.87502,-2.86917 6.21114,-3.2053 6.62577,-3.2053 " fill-rule="nonzero" vector-effect="none"/>
        </g>
    </g>
</svg>
