<?xml version='1.0' encoding='UTF-8' standalone='no'?>
<svg baseProfile="tiny" height="12.7mm" version="1.2" viewBox="0 0 132 132" width="12.7mm" xmlns="http://www.w3.org/2000/svg" xmlns:xlink="http://www.w3.org/1999/xlink">
    <style id="current-color-scheme" type="text/css">.ColorScheme-Text {color:#232629;}</style>
    <title>Qt SVG Document</title>
    <desc>Auto-generated by Klassy window decoration</desc>
    <defs/>
    <g fill="none" fill-rule="evenodd" stroke="black" stroke-linecap="square" stroke-linejoin="bevel" stroke-width="1">
        <g class="ColorScheme-Text" fill="currentColor" fill-opacity="0.949996" font-family="Noto Sans" font-size="36.6667" font-style="normal" font-weight="400" stroke="none" transform="matrix(7.33333,0,0,7.33333,0,0)">
            <path d="M3.68107,5.34545 C3.68107,4.5299 4.5299,3.68107 5.34545,3.68107 L12.6545,3.68107 C13.4701,3.68107 14.3189,4.5299 14.3189,5.34545 L14.3189,12.6545 C14.3189,13.4701 13.4701,14.3189 12.6545,14.3189 L5.34545,14.3189 C4.5299,14.3189 3.68107,13.4701 3.68107,12.6545 L3.68107,5.34545 M5.18257,5.34545 L5.18257,12.6545 C5.18257,12.8482 5.15184,12.8174 5.34545,12.8174 L12.6545,12.8174 C12.8482,12.8174 12.8174,12.8482 12.8174,12.6545 L12.8174,5.34545 C12.8174,5.15184 12.8482,5.18257 12.6545,5.18257 L5.34545,5.18257 C5.15184,5.18257 5.18257,5.15184 5.18257,5.34545 " fill-rule="nonzero" vector-effect="none"/>
        </g>
    </g>
</svg>
