<?xml version='1.0' encoding='UTF-8' standalone='no'?>
<svg baseProfile="tiny" height="5.29167mm" version="1.2" viewBox="0 0 60 60" width="5.29167mm" xmlns="http://www.w3.org/2000/svg" xmlns:xlink="http://www.w3.org/1999/xlink">
    <style id="current-color-scheme" type="text/css">.ColorScheme-Text {color:#fcfcfc;}</style>
    <title>Qt SVG Document</title>
    <desc>Auto-generated by Klassy window decoration</desc>
    <defs/>
    <g fill="none" fill-rule="evenodd" stroke="black" stroke-linecap="square" stroke-linejoin="bevel" stroke-width="1">
        <g class="ColorScheme-Text" fill="currentColor" fill-opacity="0.949996" font-family="Noto Sans" font-size="40" font-style="normal" font-weight="400" stroke="none" transform="matrix(3.33333,0,0,3.33333,13.5,23.5)">
            <path d="M-0.75075,0.72 C-0.75075,0.0113841 0.0113841,-0.75075 0.72,-0.75075 L6.48,-0.75075 C7.18862,-0.75075 7.95075,0.0113841 7.95075,0.72 L7.95075,6.48 C7.95075,7.18862 7.18862,7.95075 6.48,7.95075 L0.72,7.95075 C0.0113841,7.95075 -0.75075,7.18862 -0.75075,6.48 L-0.75075,0.72 M0.75075,0.72 L0.75075,6.48 C0.75075,6.56667 0.633326,6.44925 0.72,6.44925 L6.48,6.44925 C6.56667,6.44925 6.44925,6.56667 6.44925,6.48 L6.44925,0.72 C6.44925,0.633326 6.56667,0.75075 6.48,0.75075 L0.72,0.75075 C0.633326,0.75075 0.75075,0.633326 0.75075,0.72 " fill-rule="nonzero" vector-effect="none"/>
        </g>
        <g class="ColorScheme-Text" fill="currentColor" fill-opacity="0.949996" font-family="Noto Sans" font-size="40" font-style="normal" font-weight="400" stroke="none" transform="matrix(3.33333,0,0,3.33333,13.5,23.5)">
            <path d="M3,-3.75075 L7.2585,-3.75075 C7.67313,-3.75075 8.00925,-3.41463 8.00925,-3 C8.00925,-2.58537 7.67313,-2.24925 7.2585,-2.24925 L3,-2.24925 C2.58537,-2.24925 2.24925,-2.58537 2.24925,-3 C2.24925,-3.41463 2.58537,-3.75075 3,-3.75075 M7.2585,-3.75075 C9.19402,-3.75075 10.9507,-1.99402 10.9507,-0.0585 L10.9507,4.2 C10.9507,4.61463 10.6146,4.95075 10.2,4.95075 C9.78537,4.95075 9.44925,4.61463 9.44925,4.2 L9.44925,-0.0585 C9.44925,-1.37207 8.57207,-2.24925 7.2585,-2.24925 C6.84387,-2.24925 6.50775,-2.58537 6.50775,-3 C6.50775,-3.41463 6.84387,-3.75075 7.2585,-3.75075 " fill-rule="nonzero" vector-effect="none"/>
        </g>
    </g>
</svg>
