<?xml version='1.0' encoding='UTF-8' standalone='no'?>
<svg baseProfile="tiny" height="4.23333mm" version="1.2" viewBox="0 0 20 20" width="4.23333mm" xmlns="http://www.w3.org/2000/svg" xmlns:xlink="http://www.w3.org/1999/xlink">
    <style id="current-color-scheme" type="text/css">.ColorScheme-Text {color:#fcfcfc;}</style>
    <title>Qt SVG Document</title>
    <desc>Auto-generated by Klassy window decoration</desc>
    <defs/>
    <g fill="none" fill-rule="evenodd" stroke="black" stroke-linecap="square" stroke-linejoin="bevel" stroke-width="1">
        <g class="ColorScheme-Text" fill="currentColor" fill-opacity="0.949996" font-family="Noto Sans" font-size="16.6667" font-style="normal" font-weight="400" stroke="none" transform="matrix(1.11111,0,0,1.11111,0,0)">
            <path d="M3.5991,5.4 C3.5991,4.52978 4.52978,3.5991 5.4,3.5991 L12.6,3.5991 C13.4702,3.5991 14.4009,4.52978 14.4009,5.4 L14.4009,12.6 C14.4009,13.4702 13.4702,14.4009 12.6,14.4009 L5.4,14.4009 C4.52978,14.4009 3.5991,13.4702 3.5991,12.6 L3.5991,5.4 M5.4009,5.4 L5.4009,12.6 C5.4009,12.7239 5.27611,12.5991 5.4,12.5991 L12.6,12.5991 C12.7239,12.5991 12.5991,12.7239 12.5991,12.6 L12.5991,5.4 C12.5991,5.27611 12.7239,5.4009 12.6,5.4009 L5.4,5.4009 C5.27611,5.4009 5.4009,5.27611 5.4009,5.4 " fill-rule="nonzero" vector-effect="none"/>
        </g>
    </g>
</svg>
