<?xml version='1.0' encoding='UTF-8' standalone='no'?>
<svg baseProfile="tiny" height="4.23333mm" version="1.2" viewBox="0 0 20 20" width="4.23333mm" xmlns="http://www.w3.org/2000/svg" xmlns:xlink="http://www.w3.org/1999/xlink">
    <style id="current-color-scheme" type="text/css">.ColorScheme-Text {color:#fcfcfc;}</style>
    <title>Qt SVG Document</title>
    <desc>Auto-generated by Klassy window decoration</desc>
    <defs/>
    <g fill="none" fill-rule="evenodd" stroke="black" stroke-linecap="square" stroke-linejoin="bevel" stroke-width="1">
        <g class="ColorScheme-Text" fill="currentColor" fill-opacity="0.949996" font-family="Noto Sans" font-size="16.6667" font-style="normal" font-weight="400" stroke="none" transform="matrix(1.11111,0,0,1.11111,4,8)">
            <path d="M-0.9009,0.72 C-0.9009,-0.05081 -0.05081,-0.9009 0.72,-0.9009 L6.48,-0.9009 C7.25081,-0.9009 8.1009,-0.05081 8.1009,0.72 L8.1009,6.48 C8.1009,7.25081 7.25081,8.1009 6.48,8.1009 L0.72,8.1009 C-0.05081,8.1009 -0.9009,7.25081 -0.9009,6.48 L-0.9009,0.72 M0.9009,0.72 L0.9009,6.48 C0.9009,6.50448 0.69552,6.2991 0.72,6.2991 L6.48,6.2991 C6.50448,6.2991 6.2991,6.50448 6.2991,6.48 L6.2991,0.72 C6.2991,0.69552 6.50448,0.9009 6.48,0.9009 L0.72,0.9009 C0.69552,0.9009 0.9009,0.69552 0.9009,0.72 " fill-rule="nonzero" vector-effect="none"/>
        </g>
        <g class="ColorScheme-Text" fill="currentColor" fill-opacity="0.949996" font-family="Noto Sans" font-size="16.6667" font-style="normal" font-weight="400" stroke="none" transform="matrix(1.11111,0,0,1.11111,4,8)">
            <path d="M3.6,-4.5009 L7.5582,-4.5009 C8.05575,-4.5009 8.4591,-4.09755 8.4591,-3.6 C8.4591,-3.10245 8.05575,-2.6991 7.5582,-2.6991 L3.6,-2.6991 C3.10245,-2.6991 2.6991,-3.10245 2.6991,-3.6 C2.6991,-4.09755 3.10245,-4.5009 3.6,-4.5009 M7.5582,-4.5009 C9.72176,-4.5009 11.7009,-2.52176 11.7009,-0.3582 L11.7009,3.6 C11.7009,4.09755 11.2976,4.5009 10.8,4.5009 C10.3024,4.5009 9.8991,4.09755 9.8991,3.6 L9.8991,-0.3582 C9.8991,-1.77543 8.97543,-2.6991 7.5582,-2.6991 C7.06065,-2.6991 6.6573,-3.10245 6.6573,-3.6 C6.6573,-4.09755 7.06065,-4.5009 7.5582,-4.5009 " fill-rule="nonzero" vector-effect="none"/>
        </g>
    </g>
</svg>
