<?xml version='1.0' encoding='UTF-8' standalone='no'?>
<svg baseProfile="tiny" height="5.82083mm" version="1.2" viewBox="0 0 33 33" width="5.82083mm" xmlns="http://www.w3.org/2000/svg" xmlns:xlink="http://www.w3.org/1999/xlink">
    <style id="current-color-scheme" type="text/css">.ColorScheme-Text {color:#fcfcfc;}</style>
    <title>Qt SVG Document</title>
    <desc>Auto-generated by Klassy window decoration</desc>
    <defs/>
    <g fill="none" fill-rule="evenodd" stroke="black" stroke-linecap="square" stroke-linejoin="bevel" stroke-width="1">
        <g class="ColorScheme-Text" fill="currentColor" fill-opacity="0.949996" font-family="Noto Sans" font-size="20" font-style="normal" font-weight="400" stroke="none" transform="matrix(1.83333,0,0,1.83333,0,0)">
            <path d="M3.81736,5.56364 C3.81736,4.71228 4.71228,3.81736 5.56364,3.81736 L12.9818,3.81736 C13.8332,3.81736 14.7281,4.71228 14.7281,5.56364 L14.7281,12.9818 C14.7281,13.8332 13.8332,14.7281 12.9818,14.7281 L5.56364,14.7281 C4.71228,14.7281 3.81736,13.8332 3.81736,12.9818 L3.81736,5.56364 M5.45536,5.56364 L5.45536,12.9818 C5.45536,13.1547 5.39076,13.0901 5.56364,13.0901 L12.9818,13.0901 C13.1547,13.0901 13.0901,13.1547 13.0901,12.9818 L13.0901,5.56364 C13.0901,5.39076 13.1547,5.45536 12.9818,5.45536 L5.56364,5.45536 C5.39076,5.45536 5.45536,5.39076 5.45536,5.56364 " fill-rule="nonzero" vector-effect="none"/>
        </g>
    </g>
</svg>
