<?xml version='1.0' encoding='UTF-8' standalone='no'?>
<svg baseProfile="tiny" height="4.7625mm" version="1.2" viewBox="0 0 54 54" width="4.7625mm" xmlns="http://www.w3.org/2000/svg" xmlns:xlink="http://www.w3.org/1999/xlink">
    <style id="current-color-scheme" type="text/css">.ColorScheme-Text {color:#fcfcfc;}</style>
    <title>Qt SVG Document</title>
    <desc>Auto-generated by Klassy window decoration</desc>
    <defs/>
    <g fill="none" fill-rule="evenodd" stroke="black" stroke-linecap="square" stroke-linejoin="bevel" stroke-width="1">
        <g class="ColorScheme-Text" fill="currentColor" fill-opacity="0.949996" font-family="Noto Sans" font-size="40" font-style="normal" font-weight="400" stroke="none" transform="matrix(3,0,0,3,11.5,21.5)">
            <path d="M-0.834167,0.7 C-0.834167,-0.0321225 -0.0321225,-0.834167 0.7,-0.834167 L6.3,-0.834167 C7.03212,-0.834167 7.83417,-0.0321225 7.83417,0.7 L7.83417,6.3 C7.83417,7.03212 7.03212,7.83417 6.3,7.83417 L0.7,7.83417 C-0.0321225,7.83417 -0.834167,7.03212 -0.834167,6.3 L-0.834167,0.7 M0.834167,0.7 L0.834167,6.3 C0.834167,6.34108 0.658924,6.16583 0.7,6.16583 L6.3,6.16583 C6.34108,6.16583 6.16583,6.34108 6.16583,6.3 L6.16583,0.7 C6.16583,0.658924 6.34108,0.834167 6.3,0.834167 L0.7,0.834167 C0.658924,0.834167 0.834167,0.658924 0.834167,0.7 " fill-rule="nonzero" vector-effect="none"/>
        </g>
        <g class="ColorScheme-Text" fill="currentColor" fill-opacity="0.949996" font-family="Noto Sans" font-size="40" font-style="normal" font-weight="400" stroke="none" transform="matrix(3,0,0,3,11.5,21.5)">
            <path d="M3.33333,-4.1675 L7.265,-4.1675 C7.7257,-4.1675 8.09917,-3.79403 8.09917,-3.33333 C8.09917,-2.87264 7.7257,-2.49917 7.265,-2.49917 L3.33333,-2.49917 C2.87264,-2.49917 2.49917,-2.87264 2.49917,-3.33333 C2.49917,-3.79403 2.87264,-4.1675 3.33333,-4.1675 M7.265,-4.1675 C9.30512,-4.1675 11.1675,-2.30512 11.1675,-0.265 L11.1675,3.66667 C11.1675,4.12736 10.794,4.50083 10.3333,4.50083 C9.87264,4.50083 9.49917,4.12736 9.49917,3.66667 L9.49917,-0.265 C9.49917,-1.61407 8.61407,-2.49917 7.265,-2.49917 C6.8043,-2.49917 6.43083,-2.87264 6.43083,-3.33333 C6.43083,-3.79403 6.8043,-4.1675 7.265,-4.1675 " fill-rule="nonzero" vector-effect="none"/>
        </g>
    </g>
</svg>
