<?xml version='1.0' encoding='UTF-8' standalone='no'?>
<svg baseProfile="tiny" height="8.46667mm" version="1.2" viewBox="0 0 48 48" width="8.46667mm" xmlns="http://www.w3.org/2000/svg" xmlns:xlink="http://www.w3.org/1999/xlink">
    <style id="current-color-scheme" type="text/css">.ColorScheme-Text {color:#fcfcfc;}</style>
    <title>Qt SVG Document</title>
    <desc>Auto-generated by Klassy window decoration</desc>
    <defs/>
    <g fill="none" fill-rule="evenodd" stroke="black" stroke-linecap="square" stroke-linejoin="bevel" stroke-width="1">
        <g class="ColorScheme-Text" fill="currentColor" fill-opacity="0.949996" font-family="Noto Sans" font-size="20" font-style="normal" font-weight="400" stroke="none" transform="matrix(2.66667,0,0,2.66667,11,19)">
            <path d="M-0.75075,0.7125 C-0.75075,0.00802628 0.00802628,-0.75075 0.7125,-0.75075 L6.4125,-0.75075 C7.11697,-0.75075 7.87575,0.00802628 7.87575,0.7125 L7.87575,6.4125 C7.87575,7.11697 7.11697,7.87575 6.4125,7.87575 L0.7125,7.87575 C0.00802628,7.87575 -0.75075,7.11697 -0.75075,6.4125 L-0.75075,0.7125 M0.75075,0.7125 L0.75075,6.4125 C0.75075,6.49503 0.629968,6.37425 0.7125,6.37425 L6.4125,6.37425 C6.49503,6.37425 6.37425,6.49503 6.37425,6.4125 L6.37425,0.7125 C6.37425,0.629968 6.49503,0.75075 6.4125,0.75075 L0.7125,0.75075 C0.629968,0.75075 0.75075,0.629968 0.75075,0.7125 " fill-rule="nonzero" vector-effect="none"/>
        </g>
        <g class="ColorScheme-Text" fill="currentColor" fill-opacity="0.949996" font-family="Noto Sans" font-size="20" font-style="normal" font-weight="400" stroke="none" transform="matrix(2.66667,0,0,2.66667,11,19)">
            <path d="M3,-3.75075 L7.1985,-3.75075 C7.61313,-3.75075 7.94925,-3.41463 7.94925,-3 C7.94925,-2.58537 7.61313,-2.24925 7.1985,-2.24925 L3,-2.24925 C2.58537,-2.24925 2.24925,-2.58537 2.24925,-3 C2.24925,-3.41463 2.58537,-3.75075 3,-3.75075 M7.1985,-3.75075 C9.12573,-3.75075 10.8758,-2.00073 10.8758,-0.0735 L10.8758,4.125 C10.8758,4.53963 10.5396,4.87575 10.125,4.87575 C9.71037,4.87575 9.37425,4.53963 9.37425,4.125 L9.37425,-0.0735 C9.37425,-1.37879 8.50379,-2.24925 7.1985,-2.24925 C6.78387,-2.24925 6.44775,-2.58537 6.44775,-3 C6.44775,-3.41463 6.78387,-3.75075 7.1985,-3.75075 " fill-rule="nonzero" vector-effect="none"/>
        </g>
    </g>
</svg>
