<?xml version='1.0' encoding='UTF-8' standalone='no'?>
<svg baseProfile="tiny" height="12.7mm" version="1.2" viewBox="0 0 84 84" width="12.7mm" xmlns="http://www.w3.org/2000/svg" xmlns:xlink="http://www.w3.org/1999/xlink">
    <style id="current-color-scheme" type="text/css">.ColorScheme-Text {color:#fcfcfc;}</style>
    <title>Qt SVG Document</title>
    <desc>Auto-generated by Klassy window decoration</desc>
    <defs/>
    <g fill="none" fill-rule="evenodd" stroke="black" stroke-linecap="square" stroke-linejoin="bevel" stroke-width="1">
        <g class="ColorScheme-Text" fill="currentColor" fill-opacity="0.949996" font-family="Noto Sans" font-size="23.3333" font-style="normal" font-weight="400" stroke="none" transform="matrix(4.66667,0,0,4.66667,19.5,31.5)">
            <path d="M-0.75075,0.707143 C-0.75075,0.00562781 0.00562781,-0.75075 0.707143,-0.75075 L6.36429,-0.75075 C7.0658,-0.75075 7.82218,0.00562781 7.82218,0.707143 L7.82218,6.36429 C7.82218,7.0658 7.0658,7.82218 6.36429,7.82218 L0.707143,7.82218 C0.00562781,7.82218 -0.75075,7.0658 -0.75075,6.36429 L-0.75075,0.707143 M0.75075,0.707143 L0.75075,6.36429 C0.75075,6.44386 0.627569,6.32068 0.707143,6.32068 L6.36429,6.32068 C6.44386,6.32068 6.32068,6.44386 6.32068,6.36429 L6.32068,0.707143 C6.32068,0.627569 6.44386,0.75075 6.36429,0.75075 L0.707143,0.75075 C0.627569,0.75075 0.75075,0.627569 0.75075,0.707143 " fill-rule="nonzero" vector-effect="none"/>
        </g>
        <g class="ColorScheme-Text" fill="currentColor" fill-opacity="0.949996" font-family="Noto Sans" font-size="23.3333" font-style="normal" font-weight="400" stroke="none" transform="matrix(4.66667,0,0,4.66667,19.5,31.5)">
            <path d="M2.57143,-3.32218 L6.72707,-3.32218 C7.1417,-3.32218 7.47782,-2.98606 7.47782,-2.57143 C7.47782,-2.1568 7.1417,-1.82068 6.72707,-1.82068 L2.57143,-1.82068 C2.1568,-1.82068 1.82068,-2.1568 1.82068,-2.57143 C1.82068,-2.98606 2.1568,-3.32218 2.57143,-3.32218 M6.72707,-3.32218 C8.64839,-3.32218 10.3936,-1.57696 10.3936,0.344357 L10.3936,4.5 C10.3936,4.91463 10.0575,5.25075 9.64286,5.25075 C9.22823,5.25075 8.89211,4.91463 8.89211,4.5 L8.89211,0.344357 C8.89211,-0.955016 8.02644,-1.82068 6.72707,-1.82068 C6.31244,-1.82068 5.97632,-2.1568 5.97632,-2.57143 C5.97632,-2.98606 6.31244,-3.32218 6.72707,-3.32218 " fill-rule="nonzero" vector-effect="none"/>
        </g>
    </g>
</svg>
