<?xml version='1.0' encoding='UTF-8' standalone='no'?>
<svg baseProfile="tiny" height="12.7mm" version="1.2" viewBox="0 0 84 84" width="12.7mm" xmlns="http://www.w3.org/2000/svg" xmlns:xlink="http://www.w3.org/1999/xlink">
    <style id="current-color-scheme" type="text/css">.ColorScheme-Text {color:#fcfcfc;}</style>
    <title>Qt SVG Document</title>
    <desc>Auto-generated by Klassy window decoration</desc>
    <defs/>
    <g fill="none" fill-rule="evenodd" stroke="black" stroke-linecap="square" stroke-linejoin="bevel" stroke-width="1">
        <g class="ColorScheme-Text" fill="currentColor" fill-opacity="0.949996" font-family="Noto Sans" font-size="23.3333" font-style="normal" font-weight="400" stroke="none" transform="matrix(4.66667,0,0,4.66667,0,0)">
            <path d="M3.64211,5.31429 C3.64211,4.49442 4.49442,3.64211 5.31429,3.64211 L12.6857,3.64211 C13.5056,3.64211 14.3579,4.49442 14.3579,5.31429 L14.3579,12.6857 C14.3579,13.5056 13.5056,14.3579 12.6857,14.3579 L5.31429,14.3579 C4.49442,14.3579 3.64211,13.5056 3.64211,12.6857 L3.64211,5.31429 M5.14361,5.31429 L5.14361,12.6857 C5.14361,12.8836 5.11637,12.8564 5.31429,12.8564 L12.6857,12.8564 C12.8836,12.8564 12.8564,12.8836 12.8564,12.6857 L12.8564,5.31429 C12.8564,5.11637 12.8836,5.14361 12.6857,5.14361 L5.31429,5.14361 C5.11637,5.14361 5.14361,5.11637 5.14361,5.31429 " fill-rule="nonzero" vector-effect="none"/>
        </g>
    </g>
</svg>
