<?xml version='1.0' encoding='UTF-8' standalone='no'?>
<svg baseProfile="tiny" height="5.89643mm" version="1.2" viewBox="0 0 39 39" width="5.89643mm" xmlns="http://www.w3.org/2000/svg" xmlns:xlink="http://www.w3.org/1999/xlink">
    <style id="current-color-scheme" type="text/css">.ColorScheme-Text {color:#fcfcfc;}</style>
    <title>Qt SVG Document</title>
    <desc>Auto-generated by Klassy window decoration</desc>
    <defs/>
    <g fill="none" fill-rule="evenodd" stroke="black" stroke-linecap="square" stroke-linejoin="bevel" stroke-width="1">
        <g class="ColorScheme-Text" fill="currentColor" fill-opacity="0.949996" font-family="Noto Sans" font-size="23.3333" font-style="normal" font-weight="400" stroke="none" transform="matrix(2.16667,0,0,2.16667,8.5,15.5)">
            <path d="M-0.693,0.738462 C-0.693,0.0435705 0.0435705,-0.693 0.738462,-0.693 L6.64615,-0.693 C7.34104,-0.693 8.07762,0.0435705 8.07762,0.738462 L8.07762,6.64615 C8.07762,7.34104 7.34104,8.07762 6.64615,8.07762 L0.738462,8.07762 C0.0435705,8.07762 -0.693,7.34104 -0.693,6.64615 L-0.693,0.738462 M0.693,0.738462 L0.693,6.64615 C0.693,6.76694 0.61767,6.69162 0.738462,6.69162 L6.64615,6.69162 C6.76694,6.69162 6.69162,6.76694 6.69162,6.64615 L6.69162,0.738462 C6.69162,0.61767 6.76694,0.693 6.64615,0.693 L0.738462,0.693 C0.61767,0.693 0.693,0.61767 0.693,0.738462 " fill-rule="nonzero" vector-effect="none"/>
        </g>
        <g class="ColorScheme-Text" fill="currentColor" fill-opacity="0.949996" font-family="Noto Sans" font-size="23.3333" font-style="normal" font-weight="400" stroke="none" transform="matrix(2.16667,0,0,2.16667,8.5,15.5)">
            <path d="M2.76923,-3.46223 L7.29092,-3.46223 C7.67366,-3.46223 7.98392,-3.15196 7.98392,-2.76923 C7.98392,-2.3865 7.67366,-2.07623 7.29092,-2.07623 L2.76923,-2.07623 C2.3865,-2.07623 2.07623,-2.3865 2.07623,-2.76923 C2.07623,-3.15196 2.3865,-3.46223 2.76923,-3.46223 M7.29092,-3.46223 C9.15912,-3.46223 10.8468,-1.77451 10.8468,0.0936923 L10.8468,4.61538 C10.8468,4.99812 10.5366,5.30838 10.1538,5.30838 C9.77111,5.30838 9.46085,4.99812 9.46085,4.61538 L9.46085,0.0936923 C9.46085,-1.20041 8.58502,-2.07623 7.29092,-2.07623 C6.90819,-2.07623 6.59792,-2.3865 6.59792,-2.76923 C6.59792,-3.15196 6.90819,-3.46223 7.29092,-3.46223 " fill-rule="nonzero" vector-effect="none"/>
        </g>
    </g>
</svg>
