<?xml version='1.0' encoding='UTF-8' standalone='no'?>
<svg baseProfile="tiny" height="4.23333mm" version="1.2" viewBox="0 0 16 16" width="4.23333mm" xmlns="http://www.w3.org/2000/svg" xmlns:xlink="http://www.w3.org/1999/xlink">
    <style id="current-color-scheme" type="text/css">.ColorScheme-Text {color:#fcfcfc;}</style>
    <title>Qt SVG Document</title>
    <desc>Auto-generated by Klassy window decoration</desc>
    <defs/>
    <g fill="none" fill-rule="evenodd" stroke="black" stroke-linecap="square" stroke-linejoin="bevel" stroke-width="1">
        <g class="ColorScheme-Text" fill="currentColor" fill-opacity="0.900008" font-family="Noto Sans" font-size="13.3333" font-style="normal" font-weight="400" stroke="none" transform="matrix(0.888889,0,0,0.888889,3.5,5.5)">
            <path d="M-0.563062,0.7875 C-0.563062,0.119348 0.119348,-0.563062 0.7875,-0.563062 L7.0875,-0.563062 C7.75565,-0.563062 8.43806,0.119348 8.43806,0.7875 L8.43806,7.0875 C8.43806,7.75565 7.75565,8.43806 7.0875,8.43806 L0.7875,8.43806 C0.119348,8.43806 -0.563062,7.75565 -0.563062,7.0875 L-0.563062,0.7875 M0.563062,0.7875 L0.563062,7.0875 C0.563062,7.2892 0.585804,7.31194 0.7875,7.31194 L7.0875,7.31194 C7.2892,7.31194 7.31194,7.2892 7.31194,7.0875 L7.31194,0.7875 C7.31194,0.585804 7.2892,0.563062 7.0875,0.563062 L0.7875,0.563062 C0.585804,0.563062 0.563062,0.585804 0.563062,0.7875 " fill-rule="nonzero" vector-effect="none"/>
        </g>
        <g class="ColorScheme-Text" fill="currentColor" fill-opacity="0.900008" font-family="Noto Sans" font-size="13.3333" font-style="normal" font-weight="400" stroke="none" transform="matrix(0.888889,0,0,0.888889,3.5,5.5)">
            <path d="M2.25,-2.81306 L7.42388,-2.81306 C7.73485,-2.81306 7.98694,-2.56097 7.98694,-2.25 C7.98694,-1.93903 7.73485,-1.68694 7.42388,-1.68694 L2.25,-1.68694 C1.93903,-1.68694 1.68694,-1.93903 1.68694,-2.25 C1.68694,-2.56097 1.93903,-2.81306 2.25,-2.81306 M7.42388,-2.81306 C9.14889,-2.81306 10.6881,-1.27389 10.6881,0.451125 L10.6881,5.625 C10.6881,5.93597 10.436,6.18806 10.125,6.18806 C9.81403,6.18806 9.56194,5.93597 9.56194,5.625 L9.56194,0.451125 C9.56194,-0.807437 8.68244,-1.68694 7.42388,-1.68694 C7.1129,-1.68694 6.86081,-1.93903 6.86081,-2.25 C6.86081,-2.56097 7.1129,-2.81306 7.42388,-2.81306 " fill-rule="nonzero" vector-effect="none"/>
        </g>
    </g>
</svg>
