<?xml version='1.0' encoding='UTF-8' standalone='no'?>
<svg baseProfile="tiny" height="4.23333mm" version="1.2" viewBox="0 0 16 16" width="4.23333mm" xmlns="http://www.w3.org/2000/svg" xmlns:xlink="http://www.w3.org/1999/xlink">
    <style id="current-color-scheme" type="text/css">.ColorScheme-Text {color:#fcfcfc;}</style>
    <title>Qt SVG Document</title>
    <desc>Auto-generated by Klassy window decoration</desc>
    <defs/>
    <g fill="none" fill-rule="evenodd" stroke="black" stroke-linecap="square" stroke-linejoin="bevel" stroke-width="1">
        <g class="ColorScheme-Text" fill="currentColor" fill-opacity="0.900008" font-family="Noto Sans" font-size="13.3333" font-style="normal" font-weight="400" stroke="none" transform="matrix(0.888889,0,0,0.888889,0,0)">
            <path d="M3.37444,4.95 C3.37444,4.15758 4.15758,3.37444 4.95,3.37444 L13.05,3.37444 C13.8424,3.37444 14.6256,4.15758 14.6256,4.95 L14.6256,13.05 C14.6256,13.8424 13.8424,14.6256 13.05,14.6256 L4.95,14.6256 C4.15758,14.6256 3.37444,13.8424 3.37444,13.05 L3.37444,4.95 M4.50056,4.95 L4.50056,13.05 C4.50056,13.376 4.62404,13.4994 4.95,13.4994 L13.05,13.4994 C13.376,13.4994 13.4994,13.376 13.4994,13.05 L13.4994,4.95 C13.4994,4.62404 13.376,4.50056 13.05,4.50056 L4.95,4.50056 C4.62404,4.50056 4.50056,4.62404 4.50056,4.95 " fill-rule="nonzero" vector-effect="none"/>
        </g>
    </g>
</svg>
