<?xml version='1.0' encoding='UTF-8' standalone='no'?>
<svg baseProfile="tiny" height="4.7625mm" version="1.2" viewBox="0 0 36 36" width="4.7625mm" xmlns="http://www.w3.org/2000/svg" xmlns:xlink="http://www.w3.org/1999/xlink">
    <style id="current-color-scheme" type="text/css">.ColorScheme-Text {color:#fcfcfc;}</style>
    <title>Qt SVG Document</title>
    <desc>Auto-generated by Klassy window decoration</desc>
    <defs/>
    <g fill="none" fill-rule="evenodd" stroke="black" stroke-linecap="square" stroke-linejoin="bevel" stroke-width="1">
        <g class="ColorScheme-Text" fill="currentColor" fill-opacity="0.949996" font-family="Noto Sans" font-size="26.6667" font-style="normal" font-weight="400" stroke="none" transform="matrix(2,0,0,2,0,0)">
            <path d="M3.49925,5.2 C3.49925,4.36436 4.36436,3.49925 5.2,3.49925 L12.8,3.49925 C13.6356,3.49925 14.5008,4.36436 14.5007,5.2 L14.5007,12.8 C14.5008,13.6356 13.6356,14.5008 12.8,14.5007 L5.2,14.5007 C4.36436,14.5008 3.49925,13.6356 3.49925,12.8 L3.49925,5.2 M5.00075,5.2 L5.00075,12.8 C5.00075,13.0137 4.9863,12.9992 5.2,12.9992 L12.8,12.9992 C13.0137,12.9992 12.9992,13.0137 12.9992,12.8 L12.9992,5.2 C12.9992,4.9863 13.0137,5.00075 12.8,5.00075 L5.2,5.00075 C4.9863,5.00075 5.00075,4.9863 5.00075,5.2 " fill-rule="nonzero" vector-effect="none"/>
        </g>
    </g>
</svg>
