<?xml version='1.0' encoding='UTF-8' standalone='no'?>
<svg baseProfile="tiny" height="5.92667mm" version="1.2" viewBox="0 0 28 28" width="5.92667mm" xmlns="http://www.w3.org/2000/svg" xmlns:xlink="http://www.w3.org/1999/xlink">
    <style id="current-color-scheme" type="text/css">.ColorScheme-Text {color:#fcfcfc;}</style>
    <title>Qt SVG Document</title>
    <desc>Auto-generated by Klassy window decoration</desc>
    <defs/>
    <g fill="none" fill-rule="evenodd" stroke="black" stroke-linecap="square" stroke-linejoin="bevel" stroke-width="1">
        <g class="ColorScheme-Text" fill="currentColor" fill-opacity="0.949996" font-family="Noto Sans" font-size="16.6667" font-style="normal" font-weight="400" stroke="none" transform="matrix(1.55556,0,0,1.55556,6,11)">
            <path d="M-0.6435,0.707143 C-0.6435,0.0500522 0.0500522,-0.6435 0.707143,-0.6435 L6.36429,-0.6435 C7.02138,-0.6435 7.71493,0.0500522 7.71493,0.707143 L7.71493,6.36429 C7.71493,7.02138 7.02138,7.71493 6.36429,7.71493 L0.707143,7.71493 C0.0500522,7.71493 -0.6435,7.02138 -0.6435,6.36429 L-0.6435,0.707143 M0.6435,0.707143 L0.6435,6.36429 C0.6435,6.48828 0.583145,6.42793 0.707143,6.42793 L6.36429,6.42793 C6.48828,6.42793 6.42793,6.48828 6.42793,6.36429 L6.42793,0.707143 C6.42793,0.583145 6.48828,0.6435 6.36429,0.6435 L0.707143,0.6435 C0.583145,0.6435 0.6435,0.583145 0.6435,0.707143 " fill-rule="nonzero" vector-effect="none"/>
        </g>
        <g class="ColorScheme-Text" fill="currentColor" fill-opacity="0.949996" font-family="Noto Sans" font-size="16.6667" font-style="normal" font-weight="400" stroke="none" transform="matrix(1.55556,0,0,1.55556,6,11)">
            <path d="M3.21429,-3.85779 L7.58443,-3.85779 C7.93982,-3.85779 8.22793,-3.56968 8.22793,-3.21429 C8.22793,-2.85889 7.93982,-2.57079 7.58443,-2.57079 L3.21429,-2.57079 C2.85889,-2.57079 2.57079,-2.85889 2.57079,-3.21429 C2.57079,-3.56968 2.85889,-3.85779 3.21429,-3.85779 M7.58443,-3.85779 C9.34285,-3.85779 10.9292,-2.27143 10.9292,-0.513 L10.9292,3.85714 C10.9292,4.21254 10.6411,4.50064 10.2857,4.50064 C9.93032,4.50064 9.64221,4.21254 9.64221,3.85714 L9.64221,-0.513 C9.64221,-1.73833 8.80976,-2.57079 7.58443,-2.57079 C7.22903,-2.57079 6.94093,-2.85889 6.94093,-3.21429 C6.94093,-3.56968 7.22903,-3.85779 7.58443,-3.85779 " fill-rule="nonzero" vector-effect="none"/>
        </g>
    </g>
</svg>
