<?xml version='1.0' encoding='UTF-8' standalone='no'?>
<svg baseProfile="tiny" height="12.7mm" version="1.2" viewBox="0 0 48 48" width="12.7mm" xmlns="http://www.w3.org/2000/svg" xmlns:xlink="http://www.w3.org/1999/xlink">
    <style id="current-color-scheme" type="text/css">.ColorScheme-Text {color:#fcfcfc;}</style>
    <title>Qt SVG Document</title>
    <desc>Auto-generated by Klassy window decoration</desc>
    <defs/>
    <g fill="none" fill-rule="evenodd" stroke="black" stroke-linecap="square" stroke-linejoin="bevel" stroke-width="1">
        <g class="ColorScheme-Text" fill="currentColor" fill-opacity="0.900008" font-family="Noto Sans" font-size="13.3333" font-style="normal" font-weight="400" stroke="none" transform="matrix(2.66667,0,0,2.66667,0,0)">
            <path d="M3.74944,5.25 C3.74944,4.499 4.499,3.74944 5.25,3.74944 L12.75,3.74944 C13.501,3.74944 14.2506,4.499 14.2506,5.25 L14.2506,12.75 C14.2506,13.501 13.501,14.2506 12.75,14.2506 L5.25,14.2506 C4.499,14.2506 3.74944,13.501 3.74944,12.75 L3.74944,5.25 M4.87556,5.25 L4.87556,12.75 C4.87556,13.0345 4.96546,13.1244 5.25,13.1244 L12.75,13.1244 C13.0345,13.1244 13.1244,13.0345 13.1244,12.75 L13.1244,5.25 C13.1244,4.96546 13.0345,4.87556 12.75,4.87556 L5.25,4.87556 C4.96546,4.87556 4.87556,4.96546 4.87556,5.25 " fill-rule="nonzero" vector-effect="none"/>
        </g>
    </g>
</svg>
