<?xml version='1.0' encoding='UTF-8' standalone='no'?>
<svg baseProfile="tiny" height="12.7mm" version="1.2" viewBox="0 0 48 48" width="12.7mm" xmlns="http://www.w3.org/2000/svg" xmlns:xlink="http://www.w3.org/1999/xlink">
    <style id="current-color-scheme" type="text/css">.ColorScheme-Text {color:#fcfcfc;}</style>
    <title>Qt SVG Document</title>
    <desc>Auto-generated by Klassy window decoration</desc>
    <defs/>
    <g fill="none" fill-rule="evenodd" stroke="black" stroke-linecap="square" stroke-linejoin="bevel" stroke-width="1">
        <g class="ColorScheme-Text" fill="currentColor" fill-opacity="0.900008" font-family="Noto Sans" font-size="13.3333" font-style="normal" font-weight="400" stroke="none" transform="matrix(2.66667,0,0,2.66667,11.5,17.5)">
            <path d="M-0.563063,0.7125 C-0.563063,0.085769 0.085769,-0.563063 0.7125,-0.563063 L6.4125,-0.563063 C7.03923,-0.563063 7.68806,0.085769 7.68806,0.7125 L7.68806,6.4125 C7.68806,7.03923 7.03923,7.68806 6.4125,7.68806 L0.7125,7.68806 C0.085769,7.68806 -0.563063,7.03923 -0.563063,6.4125 L-0.563063,0.7125 M0.563063,0.7125 L0.563063,6.4125 C0.563063,6.57277 0.552225,6.56194 0.7125,6.56194 L6.4125,6.56194 C6.57277,6.56194 6.56194,6.57277 6.56194,6.4125 L6.56194,0.7125 C6.56194,0.552225 6.57277,0.563063 6.4125,0.563063 L0.7125,0.563063 C0.552225,0.563063 0.563063,0.552225 0.563063,0.7125 " fill-rule="nonzero" vector-effect="none"/>
        </g>
        <g class="ColorScheme-Text" fill="currentColor" fill-opacity="0.900008" font-family="Noto Sans" font-size="13.3333" font-style="normal" font-weight="400" stroke="none" transform="matrix(2.66667,0,0,2.66667,11.5,17.5)">
            <path d="M2.25,-2.81306 L6.82387,-2.81306 C7.13485,-2.81306 7.38694,-2.56097 7.38694,-2.25 C7.38694,-1.93903 7.13485,-1.68694 6.82387,-1.68694 L2.25,-1.68694 C1.93903,-1.68694 1.68694,-1.93903 1.68694,-2.25 C1.68694,-2.56097 1.93903,-2.81306 2.25,-2.81306 M6.82387,-2.81306 C8.46605,-2.81306 9.93806,-1.34105 9.93806,0.301125 L9.93806,4.875 C9.93806,5.18597 9.68597,5.43806 9.375,5.43806 C9.06403,5.43806 8.81194,5.18597 8.81194,4.875 L8.81194,0.301125 C8.81194,-0.874594 7.99959,-1.68694 6.82387,-1.68694 C6.5129,-1.68694 6.26081,-1.93903 6.26081,-2.25 C6.26081,-2.56097 6.5129,-2.81306 6.82387,-2.81306 " fill-rule="nonzero" vector-effect="none"/>
        </g>
    </g>
</svg>
