<?xml version='1.0' encoding='UTF-8' standalone='no'?>
<svg baseProfile="tiny" height="4.86833mm" version="1.2" viewBox="0 0 23 23" width="4.86833mm" xmlns="http://www.w3.org/2000/svg" xmlns:xlink="http://www.w3.org/1999/xlink">
    <style id="current-color-scheme" type="text/css">.ColorScheme-Text {color:#fcfcfc;}</style>
    <title>Qt SVG Document</title>
    <desc>Auto-generated by Klassy window decoration</desc>
    <defs/>
    <g fill="none" fill-rule="evenodd" stroke="black" stroke-linecap="square" stroke-linejoin="bevel" stroke-width="1">
        <g class="ColorScheme-Text" fill="currentColor" fill-opacity="0.949996" font-family="Noto Sans" font-size="16.6667" font-style="normal" font-weight="400" stroke="none" transform="matrix(1.27778,0,0,1.27778,5,10)">
            <path d="M-0.783391,0.704348 C-0.783391,-0.00914404 -0.00914404,-0.783391 0.704348,-0.783391 L6.33913,-0.783391 C7.05262,-0.783391 7.82687,-0.00914404 7.82687,0.704348 L7.82687,6.33913 C7.82687,7.05262 7.05262,7.82687 6.33913,7.82687 L0.704348,7.82687 C-0.00914404,7.82687 -0.783391,7.05262 -0.783391,6.33913 L-0.783391,0.704348 M0.783391,0.704348 L0.783391,6.33913 C0.783391,6.40364 0.639839,6.26009 0.704348,6.26009 L6.33913,6.26009 C6.40364,6.26009 6.26009,6.40364 6.26009,6.33913 L6.26009,0.704348 C6.26009,0.639839 6.40364,0.783391 6.33913,0.783391 L0.704348,0.783391 C0.639839,0.783391 0.783391,0.639839 0.783391,0.704348 " fill-rule="nonzero" vector-effect="none"/>
        </g>
        <g class="ColorScheme-Text" fill="currentColor" fill-opacity="0.949996" font-family="Noto Sans" font-size="16.6667" font-style="normal" font-weight="400" stroke="none" transform="matrix(1.27778,0,0,1.27778,5,10)">
            <path d="M3.13043,-3.91383 L7.19843,-3.91383 C7.63109,-3.91383 7.98183,-3.56309 7.98183,-3.13043 C7.98183,-2.69778 7.63109,-2.34704 7.19843,-2.34704 L3.13043,-2.34704 C2.69778,-2.34704 2.34704,-2.69778 2.34704,-3.13043 C2.34704,-3.56309 2.69778,-3.91383 3.13043,-3.91383 M7.19843,-3.91383 C9.16624,-3.91383 10.9573,-2.12276 10.9573,-0.154957 L10.9573,3.91304 C10.9573,4.3457 10.6066,4.69643 10.1739,4.69643 C9.74126,4.69643 9.39052,4.3457 9.39052,3.91304 L9.39052,-0.154957 C9.39052,-1.47378 8.51725,-2.34704 7.19843,-2.34704 C6.76578,-2.34704 6.41504,-2.69778 6.41504,-3.13043 C6.41504,-3.56309 6.76578,-3.91383 7.19843,-3.91383 " fill-rule="nonzero" vector-effect="none"/>
        </g>
    </g>
</svg>
