<?xml version='1.0' encoding='UTF-8' standalone='no'?>
<svg baseProfile="tiny" height="4.86833mm" version="1.2" viewBox="0 0 23 23" width="4.86833mm" xmlns="http://www.w3.org/2000/svg" xmlns:xlink="http://www.w3.org/1999/xlink">
    <style id="current-color-scheme" type="text/css">.ColorScheme-Text {color:#fcfcfc;}</style>
    <title>Qt SVG Document</title>
    <desc>Auto-generated by Klassy window decoration</desc>
    <defs/>
    <g fill="none" fill-rule="evenodd" stroke="black" stroke-linecap="square" stroke-linejoin="bevel" stroke-width="1">
        <g class="ColorScheme-Text" fill="currentColor" fill-opacity="0.949996" font-family="Noto Sans" font-size="16.6667" font-style="normal" font-weight="400" stroke="none" transform="matrix(1.27778,0,0,1.27778,0,0)">
            <path d="M3.91226,5.63478 C3.91226,4.79162 4.79162,3.91226 5.63478,3.91226 L13.1478,3.91226 C13.991,3.91226 14.8703,4.79162 14.8703,5.63478 L14.8703,13.1478 C14.8703,13.991 13.991,14.8703 13.1478,14.8703 L5.63478,14.8703 C4.79162,14.8703 3.91226,13.991 3.91226,13.1478 L3.91226,5.63478 M5.47904,5.63478 L5.47904,13.1478 C5.47904,13.342 5.44061,13.3036 5.63478,13.3036 L13.1478,13.3036 C13.342,13.3036 13.3036,13.342 13.3036,13.1478 L13.3036,5.63478 C13.3036,5.44061 13.342,5.47904 13.1478,5.47904 L5.63478,5.47904 C5.44061,5.47904 5.47904,5.44061 5.47904,5.63478 " fill-rule="nonzero" vector-effect="none"/>
        </g>
    </g>
</svg>
