<?xml version='1.0' encoding='UTF-8' standalone='no'?>
<svg baseProfile="tiny" height="12.7mm" version="1.2" viewBox="0 0 72 72" width="12.7mm" xmlns="http://www.w3.org/2000/svg" xmlns:xlink="http://www.w3.org/1999/xlink">
    <style id="current-color-scheme" type="text/css">.ColorScheme-Text {color:#232629;}</style>
    <title>Qt SVG Document</title>
    <desc>Auto-generated by Klassy window decoration</desc>
    <defs/>
    <g fill="none" fill-rule="evenodd" stroke="black" stroke-linecap="square" stroke-linejoin="bevel" stroke-width="1">
        <g class="ColorScheme-Text" fill="currentColor" fill-opacity="0.949996" font-family="Noto Sans" font-size="20" font-style="normal" font-weight="400" stroke="none" transform="matrix(4,0,0,4,0,0)">
            <path d="M3.74925,5.4 C3.74925,4.59197 4.59197,3.74925 5.4,3.74925 L12.6,3.74925 C13.408,3.74925 14.2508,4.59197 14.2508,5.4 L14.2508,12.6 C14.2508,13.408 13.408,14.2508 12.6,14.2508 L5.4,14.2508 C4.59197,14.2508 3.74925,13.408 3.74925,12.6 L3.74925,5.4 M5.25075,5.4 L5.25075,12.6 C5.25075,12.7861 5.21391,12.7492 5.4,12.7492 L12.6,12.7492 C12.7861,12.7492 12.7492,12.7861 12.7492,12.6 L12.7492,5.4 C12.7492,5.21391 12.7861,5.25075 12.6,5.25075 L5.4,5.25075 C5.21391,5.25075 5.25075,5.21391 5.25075,5.4 " fill-rule="nonzero" vector-effect="none"/>
        </g>
    </g>
</svg>
