<?xml version='1.0' encoding='UTF-8' standalone='no'?>
<svg baseProfile="tiny" height="5.87963mm" version="1.2" viewBox="0 0 50 50" width="5.87963mm" xmlns="http://www.w3.org/2000/svg" xmlns:xlink="http://www.w3.org/1999/xlink">
    <style id="current-color-scheme" type="text/css">.ColorScheme-Text {color:#232629;}</style>
    <title>Qt SVG Document</title>
    <desc>Auto-generated by Klassy window decoration</desc>
    <defs/>
    <g fill="none" fill-rule="evenodd" stroke="black" stroke-linecap="square" stroke-linejoin="bevel" stroke-width="1">
        <g class="ColorScheme-Text" fill="currentColor" fill-opacity="0.949996" font-family="Noto Sans" font-size="30" font-style="normal" font-weight="400" stroke="none" transform="matrix(2.77778,0,0,2.77778,11,19)">
            <path d="M-0.72072,0.72 C-0.72072,0.023823 0.023823,-0.72072 0.72,-0.72072 L6.48,-0.72072 C7.17618,-0.72072 7.92072,0.023823 7.92072,0.72 L7.92072,6.48 C7.92072,7.17618 7.17618,7.92072 6.48,7.92072 L0.72,7.92072 C0.023823,7.92072 -0.72072,7.17618 -0.72072,6.48 L-0.72072,0.72 M0.72072,0.72 L0.72072,6.48 C0.72072,6.57911 0.620887,6.47928 0.72,6.47928 L6.48,6.47928 C6.57911,6.47928 6.47928,6.57911 6.47928,6.48 L6.47928,0.72 C6.47928,0.620887 6.57911,0.72072 6.48,0.72072 L0.72,0.72072 C0.620887,0.72072 0.72072,0.620887 0.72072,0.72 " fill-rule="nonzero" vector-effect="none"/>
        </g>
        <g class="ColorScheme-Text" fill="currentColor" fill-opacity="0.949996" font-family="Noto Sans" font-size="30" font-style="normal" font-weight="400" stroke="none" transform="matrix(2.77778,0,0,2.77778,11,19)">
            <path d="M2.88,-3.60072 L7.19856,-3.60072 C7.5966,-3.60072 7.91928,-3.27804 7.91928,-2.88 C7.91928,-2.48196 7.5966,-2.15928 7.19856,-2.15928 L2.88,-2.15928 C2.48196,-2.15928 2.15928,-2.48196 2.15928,-2.88 C2.15928,-3.27804 2.48196,-3.60072 2.88,-3.60072 M7.19856,-3.60072 C9.08847,-3.60072 10.8007,-1.88847 10.8007,0.00144 L10.8007,4.32 C10.8007,4.71804 10.478,5.04072 10.08,5.04072 C9.68196,5.04072 9.35928,4.71804 9.35928,4.32 L9.35928,0.00144 C9.35928,-1.2914 8.4914,-2.15928 7.19856,-2.15928 C6.80052,-2.15928 6.47784,-2.48196 6.47784,-2.88 C6.47784,-3.27804 6.80052,-3.60072 7.19856,-3.60072 " fill-rule="nonzero" vector-effect="none"/>
        </g>
    </g>
</svg>
