<?xml version='1.0' encoding='UTF-8' standalone='no'?>
<svg baseProfile="tiny" height="6.35mm" version="1.2" viewBox="0 0 42 42" width="6.35mm" xmlns="http://www.w3.org/2000/svg" xmlns:xlink="http://www.w3.org/1999/xlink">
    <style id="current-color-scheme" type="text/css">.ColorScheme-Text {color:#232629;}</style>
    <title>Qt SVG Document</title>
    <desc>Auto-generated by Klassy window decoration</desc>
    <defs/>
    <g fill="none" fill-rule="evenodd" stroke="black" stroke-linecap="square" stroke-linejoin="bevel" stroke-width="1">
        <g class="ColorScheme-Text" fill="currentColor" fill-opacity="0.949996" font-family="Noto Sans" font-size="23.3333" font-style="normal" font-weight="400" stroke="none" transform="matrix(2.33333,0,0,2.33333,0,0)">
            <path d="M3.42771,5.22857 C3.42771,4.35245 4.35245,3.42771 5.22857,3.42771 L12.7714,3.42771 C13.6475,3.42771 14.5723,4.35245 14.5723,5.22857 L14.5723,12.7714 C14.5723,13.6475 13.6475,14.5723 12.7714,14.5723 L5.22857,14.5723 C4.35245,14.5723 3.42771,13.6475 3.42771,12.7714 L3.42771,5.22857 M5.14371,5.22857 L5.14371,12.7714 C5.14371,12.9368 5.06324,12.8563 5.22857,12.8563 L12.7714,12.8563 C12.9368,12.8563 12.8563,12.9368 12.8563,12.7714 L12.8563,5.22857 C12.8563,5.06324 12.9368,5.14371 12.7714,5.14371 L5.22857,5.14371 C5.06324,5.14371 5.14371,5.06324 5.14371,5.22857 " fill-rule="nonzero" vector-effect="none"/>
        </g>
    </g>
</svg>
