<?xml version='1.0' encoding='UTF-8' standalone='no'?>
<svg baseProfile="tiny" height="6.35mm" version="1.2" viewBox="0 0 42 42" width="6.35mm" xmlns="http://www.w3.org/2000/svg" xmlns:xlink="http://www.w3.org/1999/xlink">
    <style id="current-color-scheme" type="text/css">.ColorScheme-Text {color:#232629;}</style>
    <title>Qt SVG Document</title>
    <desc>Auto-generated by Klassy window decoration</desc>
    <defs/>
    <g fill="none" fill-rule="evenodd" stroke="black" stroke-linecap="square" stroke-linejoin="bevel" stroke-width="1">
        <g class="ColorScheme-Text" fill="currentColor" fill-opacity="0.949996" font-family="Noto Sans" font-size="23.3333" font-style="normal" font-weight="400" stroke="none" transform="matrix(2.33333,0,0,2.33333,9,17)">
            <path d="M-0.858,0.728571 C-0.858,-0.0292027 -0.0292027,-0.858 0.728571,-0.858 L6.55714,-0.858 C7.31492,-0.858 8.14371,-0.0292027 8.14371,0.728571 L8.14371,6.55714 C8.14371,7.31492 7.31492,8.14371 6.55714,8.14371 L0.728571,8.14371 C-0.0292027,8.14371 -0.858,7.31492 -0.858,6.55714 L-0.858,0.728571 M0.858,0.728571 L0.858,6.55714 C0.858,6.60413 0.681588,6.42771 0.728571,6.42771 L6.55714,6.42771 C6.60413,6.42771 6.42771,6.60413 6.42771,6.55714 L6.42771,0.728571 C6.42771,0.681588 6.60413,0.858 6.55714,0.858 L0.728571,0.858 C0.681588,0.858 0.858,0.681588 0.858,0.728571 " fill-rule="nonzero" vector-effect="none"/>
        </g>
        <g class="ColorScheme-Text" fill="currentColor" fill-opacity="0.949996" font-family="Noto Sans" font-size="23.3333" font-style="normal" font-weight="400" stroke="none" transform="matrix(2.33333,0,0,2.33333,9,17)">
            <path d="M3.42857,-4.28657 L7.54114,-4.28657 C8.015,-4.28657 8.39914,-3.90243 8.39914,-3.42857 C8.39914,-2.95471 8.015,-2.57057 7.54114,-2.57057 L3.42857,-2.57057 C2.95471,-2.57057 2.57057,-2.95471 2.57057,-3.42857 C2.57057,-3.90243 2.95471,-4.28657 3.42857,-4.28657 M7.54114,-4.28657 C9.64902,-4.28657 11.5723,-2.3633 11.5723,-0.255429 L11.5723,3.85714 C11.5723,4.331 11.1881,4.71514 10.7143,4.71514 C10.2404,4.71514 9.85629,4.331 9.85629,3.85714 L9.85629,-0.255429 C9.85629,-1.65251 8.93823,-2.57057 7.54114,-2.57057 C7.06728,-2.57057 6.68314,-2.95471 6.68314,-3.42857 C6.68314,-3.90243 7.06728,-4.28657 7.54114,-4.28657 " fill-rule="nonzero" vector-effect="none"/>
        </g>
    </g>
</svg>
