<?xml version='1.0' encoding='UTF-8' standalone='no'?>
<svg baseProfile="tiny" height="12.7mm" version="1.2" viewBox="0 0 60 60" width="12.7mm" xmlns="http://www.w3.org/2000/svg" xmlns:xlink="http://www.w3.org/1999/xlink">
    <style id="current-color-scheme" type="text/css">.ColorScheme-Text {color:#fcfcfc;}</style>
    <title>Qt SVG Document</title>
    <desc>Auto-generated by Klassy window decoration</desc>
    <defs/>
    <g fill="none" fill-rule="evenodd" stroke="black" stroke-linecap="square" stroke-linejoin="bevel" stroke-width="1">
        <g class="ColorScheme-Text" fill="currentColor" fill-opacity="0.949996" font-family="Noto Sans" font-size="16.6667" font-style="normal" font-weight="400" stroke="none" transform="matrix(3.33333,0,0,3.33333,15.5,21.5)">
            <path d="M-0.75075,0.72 C-0.75075,0.0113841 0.0113841,-0.75075 0.72,-0.75075 L6.48,-0.75075 C7.18862,-0.75075 7.95075,0.0113841 7.95075,0.72 L7.95075,6.48 C7.95075,7.18862 7.18862,7.95075 6.48,7.95075 L0.72,7.95075 C0.0113841,7.95075 -0.75075,7.18862 -0.75075,6.48 L-0.75075,0.72 M0.75075,0.72 L0.75075,6.48 C0.75075,6.56667 0.633326,6.44925 0.72,6.44925 L6.48,6.44925 C6.56667,6.44925 6.44925,6.56667 6.44925,6.48 L6.44925,0.72 C6.44925,0.633326 6.56667,0.75075 6.48,0.75075 L0.72,0.75075 C0.633326,0.75075 0.75075,0.633326 0.75075,0.72 " fill-rule="nonzero" vector-effect="none"/>
        </g>
        <g class="ColorScheme-Text" fill="currentColor" fill-opacity="0.949996" font-family="Noto Sans" font-size="16.6667" font-style="normal" font-weight="400" stroke="none" transform="matrix(3.33333,0,0,3.33333,15.5,21.5)">
            <path d="M1.8,-2.55075 L6.0585,-2.55075 C6.47313,-2.55075 6.80925,-2.21463 6.80925,-1.8 C6.80925,-1.38537 6.47313,-1.04925 6.0585,-1.04925 L1.8,-1.04925 C1.38537,-1.04925 1.04925,-1.38537 1.04925,-1.8 C1.04925,-2.21463 1.38537,-2.55075 1.8,-2.55075 M6.0585,-2.55075 C7.99402,-2.55075 9.75075,-0.794016 9.75075,1.1415 L9.75075,5.4 C9.75075,5.81463 9.41463,6.15075 9,6.15075 C8.58537,6.15075 8.24925,5.81463 8.24925,5.4 L8.24925,1.1415 C8.24925,-0.172075 7.37207,-1.04925 6.0585,-1.04925 C5.64387,-1.04925 5.30775,-1.38537 5.30775,-1.8 C5.30775,-2.21463 5.64387,-2.55075 6.0585,-2.55075 " fill-rule="nonzero" vector-effect="none"/>
        </g>
    </g>
</svg>
