<?xml version='1.0' encoding='UTF-8' standalone='no'?>
<svg baseProfile="tiny" height="5.82083mm" version="1.2" viewBox="0 0 66 66" width="5.82083mm" xmlns="http://www.w3.org/2000/svg" xmlns:xlink="http://www.w3.org/1999/xlink">
    <style id="current-color-scheme" type="text/css">.ColorScheme-Text {color:#232629;}</style>
    <title>Qt SVG Document</title>
    <desc>Auto-generated by Klassy window decoration</desc>
    <defs/>
    <g fill="none" fill-rule="evenodd" stroke="black" stroke-linecap="square" stroke-linejoin="bevel" stroke-width="1">
        <g class="ColorScheme-Text" fill="currentColor" fill-opacity="0.949996" font-family="Noto Sans" font-size="40" font-style="normal" font-weight="400" stroke="none" transform="matrix(3.66667,0,0,3.66667,0,0)">
            <path d="M3.54464,5.29091 C3.54464,4.43955 4.43955,3.54464 5.29091,3.54464 L12.7091,3.54464 C13.5605,3.54464 14.4554,4.43955 14.4554,5.29091 L14.4554,12.7091 C14.4554,13.5605 13.5605,14.4554 12.7091,14.4554 L5.29091,14.4554 C4.43955,14.4554 3.54464,13.5605 3.54464,12.7091 L3.54464,5.29091 M5.18264,5.29091 L5.18264,12.7091 C5.18264,12.882 5.11803,12.8174 5.29091,12.8174 L12.7091,12.8174 C12.882,12.8174 12.8174,12.882 12.8174,12.7091 L12.8174,5.29091 C12.8174,5.11803 12.882,5.18264 12.7091,5.18264 L5.29091,5.18264 C5.11803,5.18264 5.18264,5.11803 5.18264,5.29091 " fill-rule="nonzero" vector-effect="none"/>
        </g>
    </g>
</svg>
