<?xml version='1.0' encoding='UTF-8' standalone='no'?>
<svg baseProfile="tiny" height="12.7mm" version="1.2" viewBox="0 0 108 108" width="12.7mm" xmlns="http://www.w3.org/2000/svg" xmlns:xlink="http://www.w3.org/1999/xlink">
    <style id="current-color-scheme" type="text/css">.ColorScheme-Text {color:#fcfcfc;}</style>
    <title>Qt SVG Document</title>
    <desc>Auto-generated by Klassy window decoration</desc>
    <defs/>
    <g fill="none" fill-rule="evenodd" stroke="black" stroke-linecap="square" stroke-linejoin="bevel" stroke-width="1">
        <g class="ColorScheme-Text" fill="currentColor" fill-opacity="0.949996" font-family="Noto Sans" font-size="30" font-style="normal" font-weight="400" stroke="none" transform="matrix(6,0,0,6,0,0)">
            <path d="M3.66592,5.33333 C3.66592,4.5161 4.5161,3.66592 5.33333,3.66592 L12.6667,3.66592 C13.4839,3.66592 14.3341,4.5161 14.3341,5.33333 L14.3341,12.6667 C14.3341,13.4839 13.4839,14.3341 12.6667,14.3341 L5.33333,14.3341 C4.5161,14.3341 3.66592,13.4839 3.66592,12.6667 L3.66592,5.33333 M5.16742,5.33333 L5.16742,12.6667 C5.16742,12.862 5.13804,12.8326 5.33333,12.8326 L12.6667,12.8326 C12.862,12.8326 12.8326,12.862 12.8326,12.6667 L12.8326,5.33333 C12.8326,5.13804 12.862,5.16742 12.6667,5.16742 L5.33333,5.16742 C5.13804,5.16742 5.16742,5.13804 5.16742,5.33333 " fill-rule="nonzero" vector-effect="none"/>
        </g>
    </g>
</svg>
