<?xml version='1.0' encoding='UTF-8' standalone='no'?>
<svg baseProfile="tiny" height="8.46667mm" version="1.2" viewBox="0 0 56 56" width="8.46667mm" xmlns="http://www.w3.org/2000/svg" xmlns:xlink="http://www.w3.org/1999/xlink">
    <style id="current-color-scheme" type="text/css">.ColorScheme-Text {color:#fcfcfc;}</style>
    <title>Qt SVG Document</title>
    <desc>Auto-generated by Klassy window decoration</desc>
    <defs/>
    <g fill="none" fill-rule="evenodd" stroke="black" stroke-linecap="square" stroke-linejoin="bevel" stroke-width="1">
        <g class="ColorScheme-Text" fill="currentColor" fill-opacity="0.949996" font-family="Noto Sans" font-size="23.3333" font-style="normal" font-weight="400" stroke="none" transform="matrix(3.11111,0,0,3.11111,12.5,22.5)">
            <path d="M-0.804375,0.707143 C-0.804375,-0.0165844 -0.0165844,-0.804375 0.707143,-0.804375 L6.36429,-0.804375 C7.08801,-0.804375 7.8758,-0.0165844 7.8758,0.707143 L7.8758,6.36429 C7.8758,7.08801 7.08801,7.8758 6.36429,7.8758 L0.707143,7.8758 C-0.0165844,7.8758 -0.804375,7.08801 -0.804375,6.36429 L-0.804375,0.707143 M0.804375,0.707143 L0.804375,6.36429 C0.804375,6.42165 0.649782,6.26705 0.707143,6.26705 L6.36429,6.26705 C6.42165,6.26705 6.26705,6.42165 6.26705,6.36429 L6.26705,0.707143 C6.26705,0.649782 6.42165,0.804375 6.36429,0.804375 L0.707143,0.804375 C0.649782,0.804375 0.804375,0.649782 0.804375,0.707143 " fill-rule="nonzero" vector-effect="none"/>
        </g>
        <g class="ColorScheme-Text" fill="currentColor" fill-opacity="0.949996" font-family="Noto Sans" font-size="23.3333" font-style="normal" font-weight="400" stroke="none" transform="matrix(3.11111,0,0,3.11111,12.5,22.5)">
            <path d="M3.21429,-4.01866 L7.26268,-4.01866 C7.70692,-4.01866 8.06705,-3.65853 8.06705,-3.21429 C8.06705,-2.77004 7.70692,-2.40991 7.26268,-2.40991 L3.21429,-2.40991 C2.77004,-2.40991 2.40991,-2.77004 2.40991,-3.21429 C2.40991,-3.65853 2.77004,-4.01866 3.21429,-4.01866 M7.26268,-4.01866 C9.26544,-4.01866 11.0901,-2.19401 11.0901,-0.19125 L11.0901,3.85714 C11.0901,4.30139 10.73,4.66152 10.2857,4.66152 C9.84147,4.66152 9.48134,4.30139 9.48134,3.85714 L9.48134,-0.19125 C9.48134,-1.52764 8.59907,-2.40991 7.26268,-2.40991 C6.81843,-2.40991 6.4583,-2.77004 6.4583,-3.21429 C6.4583,-3.65853 6.81843,-4.01866 7.26268,-4.01866 " fill-rule="nonzero" vector-effect="none"/>
        </g>
    </g>
</svg>
