<?xml version='1.0' encoding='UTF-8' standalone='no'?>
<svg baseProfile="tiny" height="8.46667mm" version="1.2" viewBox="0 0 32 32" width="8.46667mm" xmlns="http://www.w3.org/2000/svg" xmlns:xlink="http://www.w3.org/1999/xlink">
    <style id="current-color-scheme" type="text/css">.ColorScheme-Text {color:#232629;}</style>
    <title>Qt SVG Document</title>
    <desc>Auto-generated by Klassy window decoration</desc>
    <defs/>
    <g fill="none" fill-rule="evenodd" stroke="black" stroke-linecap="square" stroke-linejoin="bevel" stroke-width="1">
        <g class="ColorScheme-Text" fill="currentColor" fill-opacity="0.900008" font-family="Noto Sans" font-size="13.3333" font-style="normal" font-weight="400" stroke="none" transform="matrix(1.77778,0,0,1.77778,8,12)">
            <path d="M-0.563063,0.73125 C-0.563063,0.0941637 0.0941637,-0.563063 0.73125,-0.563063 L6.58125,-0.563063 C7.21834,-0.563063 7.87556,0.0941637 7.87556,0.73125 L7.87556,6.58125 C7.87556,7.21834 7.21834,7.87556 6.58125,7.87556 L0.73125,7.87556 C0.0941637,7.87556 -0.563063,7.21834 -0.563063,6.58125 L-0.563063,0.73125 M0.563063,0.73125 L0.563063,6.58125 C0.563063,6.75188 0.56062,6.74944 0.73125,6.74944 L6.58125,6.74944 C6.75188,6.74944 6.74944,6.75188 6.74944,6.58125 L6.74944,0.73125 C6.74944,0.56062 6.75188,0.563063 6.58125,0.563063 L0.73125,0.563063 C0.56062,0.563063 0.563063,0.56062 0.563063,0.73125 " fill-rule="nonzero" vector-effect="none"/>
        </g>
        <g class="ColorScheme-Text" fill="currentColor" fill-opacity="0.900008" font-family="Noto Sans" font-size="13.3333" font-style="normal" font-weight="400" stroke="none" transform="matrix(1.77778,0,0,1.77778,8,12)">
            <path d="M2.25,-2.81306 L6.97387,-2.81306 C7.28485,-2.81306 7.53694,-2.56097 7.53694,-2.25 C7.53694,-1.93903 7.28485,-1.68694 6.97387,-1.68694 L2.25,-1.68694 C1.93903,-1.68694 1.68694,-1.93903 1.68694,-2.25 C1.68694,-2.56097 1.93903,-2.81306 2.25,-2.81306 M6.97387,-2.81306 C8.63676,-2.81306 10.1256,-1.32426 10.1256,0.338625 L10.1256,5.0625 C10.1256,5.37347 9.87347,5.62556 9.5625,5.62556 C9.25153,5.62556 8.99944,5.37347 8.99944,5.0625 L8.99944,0.338625 C8.99944,-0.857805 8.1703,-1.68694 6.97387,-1.68694 C6.6629,-1.68694 6.41081,-1.93903 6.41081,-2.25 C6.41081,-2.56097 6.6629,-2.81306 6.97387,-2.81306 " fill-rule="nonzero" vector-effect="none"/>
        </g>
    </g>
</svg>
