<?xml version='1.0' encoding='UTF-8' standalone='no'?>
<svg baseProfile="tiny" height="8.46667mm" version="1.2" viewBox="0 0 32 32" width="8.46667mm" xmlns="http://www.w3.org/2000/svg" xmlns:xlink="http://www.w3.org/1999/xlink">
    <style id="current-color-scheme" type="text/css">.ColorScheme-Text {color:#232629;}</style>
    <title>Qt SVG Document</title>
    <desc>Auto-generated by Klassy window decoration</desc>
    <defs/>
    <g fill="none" fill-rule="evenodd" stroke="black" stroke-linecap="square" stroke-linejoin="bevel" stroke-width="1">
        <g class="ColorScheme-Text" fill="currentColor" fill-opacity="0.900008" font-family="Noto Sans" font-size="13.3333" font-style="normal" font-weight="400" stroke="none" transform="matrix(1.77778,0,0,1.77778,0,0)">
            <path d="M3.93694,5.4 C3.93694,4.66972 4.66972,3.93694 5.4,3.93694 L12.6,3.93694 C13.3303,3.93694 14.0631,4.66972 14.0631,5.4 L14.0631,12.6 C14.0631,13.3303 13.3303,14.0631 12.6,14.0631 L5.4,14.0631 C4.66972,14.0631 3.93694,13.3303 3.93694,12.6 L3.93694,5.4 M5.06306,5.4 L5.06306,12.6 C5.06306,12.8638 5.13617,12.9369 5.4,12.9369 L12.6,12.9369 C12.8638,12.9369 12.9369,12.8638 12.9369,12.6 L12.9369,5.4 C12.9369,5.13617 12.8638,5.06306 12.6,5.06306 L5.4,5.06306 C5.13617,5.06306 5.06306,5.13617 5.06306,5.4 " fill-rule="nonzero" vector-effect="none"/>
        </g>
    </g>
</svg>
