<?xml version='1.0' encoding='UTF-8' standalone='no'?>
<svg baseProfile="tiny" height="4.7625mm" version="1.2" viewBox="0 0 18 18" width="4.7625mm" xmlns="http://www.w3.org/2000/svg" xmlns:xlink="http://www.w3.org/1999/xlink">
    <style id="current-color-scheme" type="text/css">.ColorScheme-Text {color:#232629;}</style>
    <title>Qt SVG Document</title>
    <desc>Auto-generated by Klassy window decoration</desc>
    <defs/>
    <g fill="none" fill-rule="evenodd" stroke="black" stroke-linecap="square" stroke-linejoin="bevel" stroke-width="1">
        <g class="ColorScheme-Text" fill="currentColor" fill-opacity="0.900008" font-family="Noto Sans" font-size="13.3333" font-style="normal" font-weight="400" stroke="none" transform="matrix(1,0,0,1,4.5,6.5)">
            <path d="M-0.5005,0.7 C-0.5005,0.106087 0.106087,-0.5005 0.7,-0.5005 L6.3,-0.5005 C6.89391,-0.5005 7.5005,0.106087 7.5005,0.7 L7.5005,6.3 C7.5005,6.89391 6.89391,7.5005 6.3,7.5005 L0.7,7.5005 C0.106087,7.5005 -0.5005,6.89391 -0.5005,6.3 L-0.5005,0.7 M0.5005,0.7 L0.5005,6.3 C0.5005,6.47929 0.520715,6.4995 0.7,6.4995 L6.3,6.4995 C6.47929,6.4995 6.4995,6.47929 6.4995,6.3 L6.4995,0.7 C6.4995,0.520715 6.47929,0.5005 6.3,0.5005 L0.7,0.5005 C0.520715,0.5005 0.5005,0.520715 0.5005,0.7 " fill-rule="nonzero" vector-effect="none"/>
        </g>
        <g class="ColorScheme-Text" fill="currentColor" fill-opacity="0.900008" font-family="Noto Sans" font-size="13.3333" font-style="normal" font-weight="400" stroke="none" transform="matrix(1,0,0,1,4.5,6.5)">
            <path d="M2,-2.5005 L6.599,-2.5005 C6.87542,-2.5005 7.0995,-2.27642 7.0995,-2 C7.0995,-1.72358 6.87542,-1.4995 6.599,-1.4995 L2,-1.4995 C1.72358,-1.4995 1.4995,-1.72358 1.4995,-2 C1.4995,-2.27642 1.72358,-2.5005 2,-2.5005 M6.599,-2.5005 C8.13235,-2.5005 9.5005,-1.13235 9.5005,0.401 L9.5005,5 C9.5005,5.27642 9.27642,5.5005 9,5.5005 C8.72358,5.5005 8.4995,5.27642 8.4995,5 L8.4995,0.401 C8.4995,-0.717722 7.71772,-1.4995 6.599,-1.4995 C6.32258,-1.4995 6.0985,-1.72358 6.0985,-2 C6.0985,-2.27642 6.32258,-2.5005 6.599,-2.5005 " fill-rule="nonzero" vector-effect="none"/>
        </g>
    </g>
</svg>
