<?xml version='1.0' encoding='UTF-8' standalone='no'?>
<svg baseProfile="tiny" height="6.35mm" version="1.2" viewBox="0 0 60 60" width="6.35mm" xmlns="http://www.w3.org/2000/svg" xmlns:xlink="http://www.w3.org/1999/xlink">
    <style id="current-color-scheme" type="text/css">.ColorScheme-Text {color:#232629;}</style>
    <title>Qt SVG Document</title>
    <desc>Auto-generated by Klassy window decoration</desc>
    <defs/>
    <g fill="none" fill-rule="evenodd" stroke="black" stroke-linecap="square" stroke-linejoin="bevel" stroke-width="1">
        <g class="ColorScheme-Text" fill="currentColor" fill-opacity="0.949996" font-family="Noto Sans" font-size="33.3333" font-style="normal" font-weight="400" stroke="none" transform="matrix(3.33333,0,0,3.33333,0,0)">
            <path d="M3.59925,5.28 C3.59925,4.4554 4.4554,3.59925 5.28,3.59925 L12.72,3.59925 C13.5446,3.59925 14.4008,4.4554 14.4008,5.28 L14.4008,12.72 C14.4008,13.5446 13.5446,14.4008 12.72,14.4008 L5.28,14.4008 C4.4554,14.4008 3.59925,13.5446 3.59925,12.72 L3.59925,5.28 M5.10075,5.28 L5.10075,12.72 C5.10075,12.9227 5.07735,12.8993 5.28,12.8993 L12.72,12.8993 C12.9227,12.8993 12.8993,12.9227 12.8993,12.72 L12.8993,5.28 C12.8993,5.07735 12.9227,5.10075 12.72,5.10075 L5.28,5.10075 C5.07735,5.10075 5.10075,5.07735 5.10075,5.28 " fill-rule="nonzero" vector-effect="none"/>
        </g>
    </g>
</svg>
